<?xml version="1.0" encoding="UTF-8"?>
<!--Generator: Apple Native CoreSVG 232.5-->
<!DOCTYPE svg
PUBLIC "-//W3C//DTD SVG 1.1//EN"
       "http://www.w3.org/Graphics/SVG/1.1/DTD/svg11.dtd">
<svg version="1.1" xmlns="http://www.w3.org/2000/svg" xmlns:xlink="http://www.w3.org/1999/xlink" width="3300" height="2200">
 <g id="Notes">
  <rect height="2200" id="artboard" style="fill:white;opacity:1" width="3300" x="0" y="0"/>
  <line style="fill:none;stroke:black;opacity:1;stroke-width:0.5;" x1="263" x2="3036" y1="292" y2="292"/>
  <text style="stroke:none;fill:black;font-family:sans-serif;font-size:13;font-weight:bold;" transform="matrix(1 0 0 1 263 322)">Weight/Scale Variations</text>
  <text style="stroke:none;fill:black;font-family:sans-serif;font-size:13;text-anchor:middle;" transform="matrix(1 0 0 1 559.711 322)">Ultralight</text>
  <text style="stroke:none;fill:black;font-family:sans-serif;font-size:13;text-anchor:middle;" transform="matrix(1 0 0 1 856.422 322)">Thin</text>
  <text style="stroke:none;fill:black;font-family:sans-serif;font-size:13;text-anchor:middle;" transform="matrix(1 0 0 1 1153.13 322)">Light</text>
  <text style="stroke:none;fill:black;font-family:sans-serif;font-size:13;text-anchor:middle;" transform="matrix(1 0 0 1 1449.84 322)">Regular</text>
  <text style="stroke:none;fill:black;font-family:sans-serif;font-size:13;text-anchor:middle;" transform="matrix(1 0 0 1 1746.56 322)">Medium</text>
  <text style="stroke:none;fill:black;font-family:sans-serif;font-size:13;text-anchor:middle;" transform="matrix(1 0 0 1 2043.27 322)">Semibold</text>
  <text style="stroke:none;fill:black;font-family:sans-serif;font-size:13;text-anchor:middle;" transform="matrix(1 0 0 1 2339.98 322)">Bold</text>
  <text style="stroke:none;fill:black;font-family:sans-serif;font-size:13;text-anchor:middle;" transform="matrix(1 0 0 1 2636.69 322)">Heavy</text>
  <text style="stroke:none;fill:black;font-family:sans-serif;font-size:13;text-anchor:middle;" transform="matrix(1 0 0 1 2933.4 322)">Black</text>
  <line style="fill:none;stroke:black;opacity:1;stroke-width:0.5;" x1="263" x2="3036" y1="1903" y2="1903"/>
  <g transform="matrix(0.2 0 0 0.2 263 1933)">
   <path d="m46.2402 4.15039c21.5332 0 39.4531-17.8711 39.4531-39.4043s-17.9688-39.4043-39.502-39.4043c-21.4844 0-39.3555 17.8711-39.3555 39.4043s17.9199 39.4043 39.4043 39.4043Zm0-7.42188c-17.7246 0-31.8848-14.209-31.8848-31.9824s14.1113-31.9824 31.8359-31.9824c17.7734 0 32.0312 14.209 32.0312 31.9824s-14.209 31.9824-31.9824 31.9824Zm-17.9688-31.9824c0 2.14844 1.51367 3.61328 3.75977 3.61328h10.498v10.5957c0 2.19727 1.46484 3.71094 3.61328 3.71094 2.24609 0 3.71094-1.51367 3.71094-3.71094v-10.5957h10.5957c2.19727 0 3.71094-1.46484 3.71094-3.61328 0-2.19727-1.51367-3.71094-3.71094-3.71094h-10.5957v-10.5469c0-2.24609-1.46484-3.75977-3.71094-3.75977-2.14844 0-3.61328 1.51367-3.61328 3.75977v10.5469h-10.498c-2.24609 0-3.75977 1.51367-3.75977 3.71094Z"/>
  </g>
  <g transform="matrix(0.2 0 0 0.2 281.506 1933)">
   <path d="m58.5449 14.5508c27.2461 0 49.8047-22.6074 49.8047-49.8047 0-27.2461-22.6074-49.8047-49.8535-49.8047-27.1973 0-49.7559 22.5586-49.7559 49.8047 0 27.1973 22.6074 49.8047 49.8047 49.8047Zm0-8.30078c-23.0469 0-41.4551-18.457-41.4551-41.5039s18.3594-41.5039 41.4062-41.5039 41.5527 18.457 41.5527 41.5039-18.457 41.5039-41.5039 41.5039Zm-22.6562-41.5039c0 2.39258 1.66016 4.00391 4.15039 4.00391h14.3555v14.4043c0 2.44141 1.66016 4.15039 4.05273 4.15039 2.44141 0 4.15039-1.66016 4.15039-4.15039v-14.4043h14.4043c2.44141 0 4.15039-1.61133 4.15039-4.00391 0-2.44141-1.70898-4.15039-4.15039-4.15039h-14.4043v-14.3555c0-2.49023-1.70898-4.19922-4.15039-4.19922-2.39258 0-4.05273 1.70898-4.05273 4.19922v14.3555h-14.3555c-2.49023 0-4.15039 1.70898-4.15039 4.15039Z"/>
  </g>
  <g transform="matrix(0.2 0 0 0.2 304.924 1933)">
   <path d="m74.8535 28.3203c34.8145 0 63.623-28.8086 63.623-63.5742 0-34.8145-28.8574-63.623-63.6719-63.623-34.7656 0-63.5254 28.8086-63.5254 63.623 0 34.7656 28.8086 63.5742 63.5742 63.5742Zm0-9.08203c-30.1758 0-54.4434-24.3164-54.4434-54.4922 0-30.2246 24.2188-54.4922 54.3945-54.4922 30.2246 0 54.541 24.2676 54.541 54.4922 0 30.1758-24.2676 54.4922-54.4922 54.4922Zm-28.8574-54.4922c0 2.58789 1.85547 4.39453 4.58984 4.39453h19.7266v19.7754c0 2.68555 1.85547 4.58984 4.44336 4.58984 2.68555 0 4.54102-1.85547 4.54102-4.58984v-19.7754h19.7754c2.68555 0 4.58984-1.80664 4.58984-4.39453 0-2.73438-1.85547-4.58984-4.58984-4.58984h-19.7754v-19.7266c0-2.73438-1.85547-4.63867-4.54102-4.63867-2.58789 0-4.44336 1.9043-4.44336 4.63867v19.7266h-19.7266c-2.73438 0-4.58984 1.85547-4.58984 4.58984Z"/>
  </g>
  <text style="stroke:none;fill:black;font-family:sans-serif;font-size:13;font-weight:bold;" transform="matrix(1 0 0 1 263 1953)">Design Variations</text>
  <text style="stroke:none;fill:black;font-family:sans-serif;font-size:13;" transform="matrix(1 0 0 1 263 1971)">Symbols are supported in up to nine weights and three scales.</text>
  <text style="stroke:none;fill:black;font-family:sans-serif;font-size:13;" transform="matrix(1 0 0 1 263 1989)">For optimal layout with text and other symbols, vertically align</text>
  <text style="stroke:none;fill:black;font-family:sans-serif;font-size:13;" transform="matrix(1 0 0 1 263 2007)">symbols with the adjacent text.</text>
  <line style="fill:none;stroke:#00AEEF;stroke-width:0.5;opacity:1.0;" x1="776" x2="776" y1="1919" y2="1933"/>
  <g transform="matrix(0.2 0 0 0.2 776 1933)">
   <path d="m16.5527 0.78125c2.58789 0 3.85742-0.976562 4.78516-3.71094l6.29883-17.2363h28.8086l6.29883 17.2363c0.927734 2.73438 2.19727 3.71094 4.73633 3.71094 2.58789 0 4.24805-1.5625 4.24805-4.00391 0-0.830078-0.146484-1.61133-0.537109-2.63672l-22.9004-60.9863c-1.12305-2.97852-3.125-4.49219-6.25-4.49219-3.02734 0-5.07812 1.46484-6.15234 4.44336l-22.9004 61.084c-0.390625 1.02539-0.537109 1.80664-0.537109 2.63672 0 2.44141 1.5625 3.95508 4.10156 3.95508Zm13.4766-28.3691 11.8652-32.8613h0.244141l11.8652 32.8613Z"/>
  </g>
  <line style="fill:none;stroke:#00AEEF;stroke-width:0.5;opacity:1.0;" x1="792.836" x2="792.836" y1="1919" y2="1933"/>
  <text style="stroke:none;fill:black;font-family:sans-serif;font-size:13;font-weight:bold;" transform="matrix(1 0 0 1 776 1953)">Margins</text>
  <text style="stroke:none;fill:black;font-family:sans-serif;font-size:13;" transform="matrix(1 0 0 1 776 1971)">Leading and trailing margins on the left and right side of each symbol</text>
  <text style="stroke:none;fill:black;font-family:sans-serif;font-size:13;" transform="matrix(1 0 0 1 776 1989)">can be adjusted by modifying the x-location of the margin guidelines.</text>
  <text style="stroke:none;fill:black;font-family:sans-serif;font-size:13;" transform="matrix(1 0 0 1 776 2007)">Modifications are automatically applied proportionally to all</text>
  <text style="stroke:none;fill:black;font-family:sans-serif;font-size:13;" transform="matrix(1 0 0 1 776 2025)">scales and weights.</text>
  <g transform="matrix(0.2 0 0 0.2 1289 1933)">
   <path d="m14.209 9.32617 8.49609 8.54492c4.29688 4.3457 9.22852 4.05273 13.8672-1.07422l53.4668-58.9355-4.83398-4.88281-53.0762 58.3984c-1.75781 2.00195-3.41797 2.49023-5.76172 0.146484l-5.85938-5.81055c-2.34375-2.29492-1.80664-4.00391 0.195312-5.81055l57.373-54.0039-4.88281-4.83398-57.959 54.4434c-4.93164 4.58984-5.32227 9.47266-1.02539 13.8184Zm32.0801-90.9668c-2.09961 2.05078-2.24609 4.93164-1.07422 6.88477 1.17188 1.80664 3.4668 2.97852 6.68945 2.14844 7.32422-1.70898 14.9414-2.00195 22.0703 2.68555l-2.92969 7.27539c-1.70898 4.15039-0.830078 7.08008 1.85547 9.81445l11.4746 11.5723c2.44141 2.44141 4.49219 2.53906 7.32422 2.05078l5.32227-0.976562 3.32031 3.36914-0.195312 2.7832c-0.195312 2.49023 0.439453 4.39453 2.88086 6.78711l3.80859 3.71094c2.39258 2.39258 5.46875 2.53906 7.8125 0.195312l14.5508-14.5996c2.34375-2.34375 2.24609-5.32227-0.146484-7.71484l-3.85742-3.80859c-2.39258-2.39258-4.24805-3.17383-6.64062-2.97852l-2.88086 0.244141-3.22266-3.17383 1.2207-5.61523c0.634766-2.83203-0.146484-5.0293-3.07617-7.95898l-10.9863-10.9375c-16.6992-16.6016-38.8672-16.2109-53.3203-1.75781Zm7.4707 1.85547c12.1582-8.88672 28.6133-7.37305 39.7461 3.75977l12.1582 12.0605c1.17188 1.17188 1.36719 2.09961 1.02539 3.80859l-1.61133 7.42188 7.51953 7.42188 4.93164-0.292969c1.26953-0.0488281 1.66016 0.0488281 2.63672 1.02539l2.88086 2.88086-12.207 12.207-2.88086-2.88086c-0.976562-0.976562-1.12305-1.36719-1.07422-2.68555l0.341797-4.88281-7.4707-7.42188-7.61719 1.26953c-1.61133 0.341797-2.34375 0.195312-3.56445-0.976562l-10.0098-10.0098c-1.26953-1.17188-1.41602-2.00195-0.634766-3.85742l4.39453-10.4492c-7.8125-7.27539-17.9688-10.4004-28.125-7.42188-0.78125 0.195312-1.07422-0.439453-0.439453-0.976562Z"/>
  </g>
  <text style="stroke:none;fill:black;font-family:sans-serif;font-size:13;font-weight:bold;" transform="matrix(1 0 0 1 1289 1953)">Exporting</text>
  <text style="stroke:none;fill:black;font-family:sans-serif;font-size:13;" transform="matrix(1 0 0 1 1289 1971)">Symbols should be outlined when exporting to ensure the</text>
  <text style="stroke:none;fill:black;font-family:sans-serif;font-size:13;" transform="matrix(1 0 0 1 1289 1989)">design is preserved when submitting to Xcode.</text>
  <text id="template-version" style="stroke:none;fill:black;font-family:sans-serif;font-size:13;text-anchor:end;" transform="matrix(1 0 0 1 3036 1933)">Template v.2.0</text>
  <text style="stroke:none;fill:black;font-family:sans-serif;font-size:13;text-anchor:end;" transform="matrix(1 0 0 1 3036 1951)">Requires Xcode 12 or greater</text>
  <text id="descriptive-name" style="stroke:none;fill:black;font-family:sans-serif;font-size:13;text-anchor:end;" transform="matrix(1 0 0 1 3036 1969)">Generated from square.3.layers.3d.top.filled</text>
  <text style="stroke:none;fill:black;font-family:sans-serif;font-size:13;text-anchor:end;" transform="matrix(1 0 0 1 3036 1987)">Typeset at 100.0 points</text>
  <text style="stroke:none;fill:black;font-family:sans-serif;font-size:13;" transform="matrix(1 0 0 1 263 726)">Small</text>
  <text style="stroke:none;fill:black;font-family:sans-serif;font-size:13;" transform="matrix(1 0 0 1 263 1156)">Medium</text>
  <text style="stroke:none;fill:black;font-family:sans-serif;font-size:13;" transform="matrix(1 0 0 1 263 1586)">Large</text>
 </g>
 <g id="Guides">
  <g id="H-reference" style="fill:#27AAE1;stroke:none;" transform="matrix(1 0 0 1 339 696)">
   <path d="M0.993654 0L3.63775 0L29.3281-67.1323L30.0303-67.1323L30.0303-70.459L28.1226-70.459ZM11.6885-24.4799L46.9815-24.4799L46.2315-26.7285L12.4385-26.7285ZM55.1196 0L57.7637 0L30.6382-70.459L29.4326-70.459L29.4326-67.1323Z"/>
  </g>
  <line id="Baseline-S" style="fill:none;stroke:#27AAE1;opacity:1;stroke-width:0.5;" x1="263" x2="3036" y1="696" y2="696"/>
  <line id="Capline-S" style="fill:none;stroke:#27AAE1;opacity:1;stroke-width:0.5;" x1="263" x2="3036" y1="625.541" y2="625.541"/>
  <g id="H-reference" style="fill:#27AAE1;stroke:none;" transform="matrix(1 0 0 1 339 1126)">
   <path d="M0.993654 0L3.63775 0L29.3281-67.1323L30.0303-67.1323L30.0303-70.459L28.1226-70.459ZM11.6885-24.4799L46.9815-24.4799L46.2315-26.7285L12.4385-26.7285ZM55.1196 0L57.7637 0L30.6382-70.459L29.4326-70.459L29.4326-67.1323Z"/>
  </g>
  <line id="Baseline-M" style="fill:none;stroke:#27AAE1;opacity:1;stroke-width:0.5;" x1="263" x2="3036" y1="1126" y2="1126"/>
  <line id="Capline-M" style="fill:none;stroke:#27AAE1;opacity:1;stroke-width:0.5;" x1="263" x2="3036" y1="1055.54" y2="1055.54"/>
  <g id="H-reference" style="fill:#27AAE1;stroke:none;" transform="matrix(1 0 0 1 339 1556)">
   <path d="M0.993654 0L3.63775 0L29.3281-67.1323L30.0303-67.1323L30.0303-70.459L28.1226-70.459ZM11.6885-24.4799L46.9815-24.4799L46.2315-26.7285L12.4385-26.7285ZM55.1196 0L57.7637 0L30.6382-70.459L29.4326-70.459L29.4326-67.1323Z"/>
  </g>
  <line id="Baseline-L" style="fill:none;stroke:#27AAE1;opacity:1;stroke-width:0.5;" x1="263" x2="3036" y1="1556" y2="1556"/>
  <line id="Capline-L" style="fill:none;stroke:#27AAE1;opacity:1;stroke-width:0.5;" x1="263" x2="3036" y1="1485.54" y2="1485.54"/>
  <line id="left-margin" style="fill:none;stroke:#00AEEF;stroke-width:0.5;opacity:1.0;" x1="1387.51" x2="1387.51" y1="1030.79" y2="1150.12"/>
  <line id="right-margin" style="fill:none;stroke:#00AEEF;stroke-width:0.5;opacity:1.0;" x1="1512.18" x2="1512.18" y1="1030.79" y2="1150.12"/>
 </g>
 <g id="Symbols">
  <g id="Black-L" transform="matrix(1 0 0 1 2849.28 1556)">
   <path d="M110.753-13.2621L126.891-4.24223C127.139-4.09862 127.227-3.95381 127.227-3.70298C127.227-3.47416 127.139-3.30854 126.891-3.16493L85.971 19.7555C85.2016 20.1616 84.7318 20.3653 84.122 20.3653C83.5121 20.3653 83.0435 20.1616 82.2741 19.7555L41.3542-3.16493C41.1058-3.30854 41.0182-3.47416 41.0182-3.70298C41.0182-3.95381 41.1058-4.09862 41.3542-4.24223L59.9615-14.6628L42.0143-26.2905L25.8059-16.9552C19.5647-13.3179 16.084-9.55903 16.084-3.70298C16.084 2.15188 19.5647 5.9107 25.8059 9.52725L73.6377 37.1825C77.8627 39.6215 80.9223 40.9686 84.122 40.9686C87.3228 40.9686 90.3824 39.6215 94.6074 37.1825L142.439 9.52725C148.68 5.9107 152.161 2.15188 152.161-3.70298C152.161-9.55903 148.68-13.3179 142.439-16.9552L128.139-25.2483ZM110.728-43.9582L126.891-34.8934C127.139-34.729 127.227-34.5842 127.227-34.3554C127.227-34.1057 127.139-33.9609 126.891-33.8173L85.971-10.8761C85.2016-10.4908 84.7318-10.2871 84.122-10.2871C83.5121-10.2871 83.0435-10.4908 82.2741-10.8761L41.3542-33.8173C41.1058-33.9609 41.0182-34.1057 41.0182-34.3554C41.0182-34.5842 41.1058-34.729 41.3542-34.8934L58.4076-44.4648L40.5888-56.0769L25.8059-47.5868C19.5647-43.9691 16.084-40.2114 16.084-34.3554C16.084-28.5005 19.5647-24.7417 25.8059-21.1043L73.6377 6.53011C77.8627 8.9703 80.9223 10.3174 84.122 10.3174C87.3228 10.3174 90.3824 8.9703 94.6074 6.53011L142.439-21.1043C148.68-24.7417 152.161-28.5005 152.161-34.3554C152.161-40.2114 148.68-43.9691 142.439-47.5868L129.261-55.1863ZM84.122-21.4967C87.3228-21.4967 90.3824-22.8438 94.6074-25.2828L142.439-52.9172C148.68-56.5546 152.161-60.3134 152.161-66.1683C152.161-72.0035 148.68-75.7831 142.439-79.3997L94.6074-107.034C90.3824-109.494 87.3228-110.82 84.122-110.82C80.9223-110.82 77.8627-109.494 73.6377-107.034L25.8059-79.3997C19.5647-75.7831 16.084-72.0035 16.084-66.1683C16.084-60.3134 19.5647-56.5546 25.8059-52.9172L73.6377-25.2828C77.8627-22.8438 80.9223-21.4967 84.122-21.4967Z"/>
  </g>
  <g id="Heavy-L" transform="matrix(1 0 0 1 2553.54 1556)">
   <path d="M111.156-13.7411L127.886-4.33672C128.161-4.18923 128.275-4.03612 128.275-3.74996C128.275-3.49959 128.161-3.3163 127.886-3.16881L85.1964 20.8739C84.3663 21.3219 83.8221 21.5487 83.1473 21.5487C82.4724 21.5487 81.9339 21.3219 81.1038 20.8739L38.4142-3.16881C38.1392-3.3163 38.0251-3.49959 38.0251-3.74996C38.0251-4.03612 38.1392-4.18923 38.4142-4.33672L57.3492-14.9824L41.3075-25.1927L25.0988-15.8467C19.1897-12.3975 16.084-9.01263 16.084-3.74996C16.084 1.50709 19.1897 4.892 25.0988 8.31102L73.3361 36.2426C77.2483 38.4957 80.1325 39.7149 83.1473 39.7149C86.1677 39.7149 89.0518 38.4957 92.9641 36.2426L141.201 8.31102C147.11 4.892 150.216 1.50709 150.216-3.74996C150.216-9.01263 147.11-12.3975 141.201-15.8467L126.617-24.311ZM110.809-44.2802L127.886-34.6518C128.161-34.4741 128.275-34.321 128.275-34.0706C128.275-33.7901 128.161-33.637 127.886-33.4895L85.1964-9.41659C84.3663-8.99874 83.8221-8.77192 83.1473-8.77192C82.4724-8.77192 81.9339-8.99874 81.1038-9.41659L38.4142-33.4895C38.1392-33.637 38.0251-33.7901 38.0251-34.0706C38.0251-34.321 38.1392-34.4741 38.4142-34.6518L56.5087-44.8623L40.665-55.094L25.0988-46.1372C19.1897-42.7126 16.084-39.3333 16.084-34.0706C16.084-28.8136 19.1897-25.4287 25.0988-21.9795L73.3361 5.92198C77.2483 8.18069 80.1325 9.39984 83.1473 9.39984C86.1677 9.39984 89.0518 8.18069 92.9641 5.92198L141.201-21.9795C147.11-25.4287 150.216-28.8136 150.216-34.0706C150.216-39.3333 147.11-42.7126 141.201-46.1372L127.132-54.2756ZM83.1473-22.255C86.1677-22.255 89.0518-23.4741 92.9641-25.7272L141.201-53.6287C147.11-57.0779 150.216-60.4628 150.216-65.7198C150.216-70.9523 147.11-74.3674 141.201-77.7864L92.9641-105.688C89.0518-107.971 86.1677-109.16 83.1473-109.16C80.1325-109.16 77.2483-107.971 73.3361-105.688L25.0988-77.7864C19.1897-74.3674 16.084-70.9523 16.084-65.7198C16.084-60.4628 19.1897-57.0779 25.0988-53.6287L73.3361-25.7272C77.2483-23.4741 80.1325-22.255 83.1473-22.255Z"/>
  </g>
  <g id="Bold-L" transform="matrix(1 0 0 1 2258.11 1556)">
   <path d="M111.417-14.4669L128.959-4.54146C129.28-4.37892 129.439-4.20315 129.439-3.85605C129.439-3.56016 129.28-3.3464 128.959-3.18386L84.0944 22.2347C83.2098 22.7216 82.5958 22.9716 81.8589 22.9716C81.122 22.9716 80.5212 22.7216 79.6367 22.2347L34.772-3.18386C34.4514-3.3464 34.2916-3.56016 34.2916-3.85605C34.2916-4.20315 34.4514-4.37892 34.772-4.54146L54.1888-15.5085L40.5732-23.9593L24.1632-14.4863C18.7435-11.3198 16.084-8.39604 16.084-3.85605C16.084 0.670715 18.7435 3.59452 24.1632 6.72298L72.9746 35.0226C76.4727 37.0303 79.1044 38.0956 81.8589 38.0956C84.6267 38.0956 87.2583 37.0303 90.7565 35.0226L139.568 6.72298C144.988 3.59452 147.647 0.670715 147.647-3.85605C147.647-8.39604 144.988-11.3198 139.568-14.4863L124.451-23.2625ZM110.708-44.9108L128.959-34.5608C129.28-34.3602 129.439-34.1845 129.439-33.8886C129.439-33.5547 129.28-33.3789 128.959-33.2164L84.0944-7.75984C83.2098-7.31097 82.5958-7.06093 81.8589-7.06093C81.122-7.06093 80.5212-7.31097 79.6367-7.75984L34.772-33.2164C34.4514-33.3789 34.2916-33.5547 34.2916-33.8886C34.2916-34.1845 34.4514-34.3602 34.772-34.5608L54.1276-45.5479L40.7796-54.0587L24.1632-44.4808C18.7435-41.3392 16.084-38.4286 16.084-33.8886C16.084-29.3618 18.7435-26.438 24.1632-23.2716L72.9746 4.99009C76.4727 7.01101 79.1044 8.07633 81.8589 8.07633C84.6267 8.07633 87.2583 7.01101 90.7565 4.99009L139.568-23.2716C144.988-26.438 147.647-29.3618 147.647-33.8886C147.647-38.4286 144.988-41.3392 139.568-44.4808L124.288-53.3399ZM81.8589-23.4459C84.6267-23.4459 87.2583-24.5112 90.7565-26.5189L139.568-54.7805C144.988-57.947 147.647-60.8708 147.647-65.3976C147.647-69.8996 144.988-72.8614 139.568-75.9898L90.7565-104.251C87.2583-106.297 84.6267-107.324 81.8589-107.324C79.1044-107.324 76.4727-106.297 72.9746-104.251L24.1632-75.9898C18.7435-72.8614 16.084-69.8996 16.084-65.3976C16.084-60.8708 18.7435-57.947 24.1632-54.7805L72.9746-26.5189C76.4727-24.5112 79.1044-23.4459 81.8589-23.4459Z"/>
  </g>
  <g id="Semibold-L" transform="matrix(1 0 0 1 1962.29 1556)">
   <path d="M111.597-14.9673L129.699-4.68261C130.051-4.50969 130.242-4.31829 130.242-3.92918C130.242-3.60192 130.051-3.36715 129.699-3.19423L83.3346 23.1729C82.4126 23.6865 81.7504 23.9525 80.9707 23.9525C80.191 23.9525 79.5473 23.6865 78.6253 23.1729L32.2611-3.19423C31.9089-3.36715 31.7176-3.60192 31.7176-3.92918C31.7176-4.31829 31.9089-4.50969 32.2611-4.68261L52.01-15.8712L40.0669-23.1091L23.5182-13.5484C18.4358-10.5769 16.084-7.97096 16.084-3.92918C16.084 0.0941216 18.4358 2.70005 23.5182 5.62819L72.7253 34.1816C75.938 36.0201 78.3956 36.9793 80.9707 36.9793C83.5643 36.9793 86.0219 36.0201 89.2346 34.1816L138.442 5.62819C143.524 2.70005 145.876 0.0941216 145.876-3.92918C145.876-7.97096 143.524-10.5769 138.442-13.5484L122.958-22.5396ZM110.638-45.3455L129.699-34.498C130.051-34.2818 130.242-34.0904 130.242-33.7631C130.242-33.3925 130.051-33.2011 129.699-33.0281L83.3346-6.61769C82.4126-6.14743 81.7504-5.88138 80.9707-5.88138C80.191-5.88138 79.5473-6.14743 78.6253-6.61769L32.2611-33.0281C31.9089-33.2011 31.7176-33.3925 31.7176-33.7631C31.7176-34.0904 31.9089-34.2818 32.2611-34.498L52.4861-46.0205L40.8586-53.345L23.5182-43.3389C18.4358-40.3923 16.084-37.8049 16.084-33.7631C16.084-29.7398 18.4358-27.1339 23.5182-24.1624L72.7253 4.34765C75.938 6.20463 78.3956 7.16391 80.9707 7.16391C83.5643 7.16391 86.0219 6.20463 89.2346 4.34765L138.442-24.1624C143.524-27.1339 145.876-29.7398 145.876-33.7631C145.876-37.8049 143.524-40.3923 138.442-43.3389L122.327-52.6948ZM80.9707-24.2668C83.5643-24.2668 86.0219-25.2261 89.2346-27.0646L138.442-55.5746C143.524-58.5461 145.876-61.1521 145.876-65.1754C145.876-69.1738 143.524-71.8231 138.442-74.7512L89.2346-103.261C86.0219-105.143 83.5643-106.059 80.9707-106.059C78.3956-106.059 75.938-105.143 72.7253-103.261L23.5182-74.7512C18.4358-71.8231 16.084-69.1738 16.084-65.1754C16.084-61.1521 18.4358-58.5461 23.5182-55.5746L72.7253-27.0646C75.938-25.2261 78.3956-24.2668 80.9707-24.2668Z"/>
  </g>
  <g id="Medium-L" transform="matrix(1 0 0 1 1666.25 1556)">
   <path d="M111.733-15.3467L130.26-4.78963C130.636-4.60885 130.851-4.4056 130.851-3.98464C130.851-3.63358 130.636-3.38288 130.26-3.2021L82.7585 23.8842C81.808 24.4181 81.1093 24.6963 80.2972 24.6963C79.4851 24.6963 78.8089 24.4181 77.8584 23.8842L30.3572-3.2021C29.9812-3.38288 29.766-3.63358 29.766-3.98464C29.766-4.4056 29.9812-4.60885 30.3572-4.78963L50.358-16.1463L39.6831-22.4644L23.0292-12.8373C18.2026-10.0136 16.084-7.64866 16.084-3.98464C16.084-0.343076 18.2026 2.02182 23.0292 4.79808L72.5364 33.5438C75.5326 35.254 77.8582 36.1329 80.2972 36.1329C82.7587 36.1329 85.0844 35.254 88.0806 33.5438L137.588 4.79808C142.414 2.02182 144.533-0.343076 144.533-3.98464C144.533-7.64866 142.414-10.0136 137.588-12.8373L121.826-21.9915ZM110.585-45.6751L130.26-34.4505C130.636-34.2222 130.851-34.019 130.851-33.6679C130.851-33.2694 130.636-33.0662 130.26-32.8854L82.7585-5.75166C81.808-5.26519 81.1093-4.987 80.2972-4.987C79.4851-4.987 78.8089-5.26519 77.8584-5.75166L30.3572-32.8854C29.9812-33.0662 29.766-33.2694 29.766-33.6679C29.766-34.019 29.9812-34.2222 30.3572-34.4505L51.2414-46.3788L40.9185-52.8038L23.0292-42.4731C18.2026-39.6744 16.084-37.332 16.084-33.6679C16.084-30.0264 18.2026-27.6615 23.0292-24.8378L72.5364 3.86053C75.5326 5.59321 77.8582 6.47208 80.2972 6.47208C82.7587 6.47208 85.0844 5.59321 88.0806 3.86053L137.588-24.8378C142.414-27.6615 144.533-30.0264 144.533-33.6679C144.533-37.332 142.414-39.6744 137.588-42.4731L120.841-52.2057ZM80.2972-24.8893C82.7587-24.8893 85.0844-25.7682 88.0806-27.4784L137.588-56.1767C142.414-59.0004 144.533-61.3653 144.533-65.0069C144.533-68.6235 142.414-71.0358 137.588-73.8121L88.0806-102.51C85.0844-104.268 82.7587-105.099 80.2972-105.099C77.8582-105.099 75.5326-104.268 72.5364-102.51L23.0292-73.8121C18.2026-71.0358 16.084-68.6235 16.084-65.0069C16.084-61.3653 18.2026-59.0004 23.0292-56.1767L72.5364-27.4784C75.5326-25.7682 77.8582-24.8893 80.2972-24.8893Z"/>
  </g>
  <g id="Regular-L" transform="matrix(1 0 0 1 1370.41 1556)">
   <path d="M111.911-15.8416L130.991-4.92923C131.399-4.73818 131.645-4.51948 131.645-4.05697C131.645-3.67487 131.399-3.40341 130.991-3.21236L82.0071 24.812C81.0195 25.3724 80.2732 25.6664 79.4188 25.6664C78.5644 25.6664 77.8457 25.3724 76.8581 24.812L27.8739-3.21236C27.4667-3.40341 27.2204-3.67487 27.2204-4.05697C27.2204-4.51948 27.4667-4.73818 27.8739-4.92923L48.2031-16.505L39.1824-21.6234L22.3913-11.9097C17.8983-9.27877 16.084-7.22826 16.084-4.05697C16.084-0.913333 17.8983 1.13718 22.3913 3.71532L72.2899 32.712C75.0037 34.2549 77.1572 35.0289 79.4188 35.0289C81.708 35.0289 83.8615 34.2549 86.5754 32.712L136.474 3.71532C140.967 1.13718 142.781-0.913333 142.781-4.05697C142.781-7.22826 140.967-9.27877 136.474-11.9097L120.349-21.2766ZM110.516-46.105L130.991-34.3884C131.399-34.1446 131.645-33.9259 131.645-33.5438C131.645-33.109 131.399-32.8903 130.991-32.6992L82.0071-4.62206C81.0195-4.11444 80.2732-3.82041 79.4188-3.82041C78.5644-3.82041 77.8457-4.11444 76.8581-4.62206L27.8739-32.6992C27.4667-32.8903 27.2204-33.109 27.2204-33.5438C27.2204-33.9259 27.4667-34.1446 27.8739-34.3884L49.6179-46.8463L40.9967-52.0979L22.3913-41.3438C17.8983-38.738 16.084-36.7151 16.084-33.5438C16.084-30.4002 17.8983-28.3497 22.3913-25.7188L72.2899 3.22515C75.0037 4.79569 77.1572 5.56968 79.4188 5.56968C81.708 5.56968 83.8615 4.79569 86.5754 3.22515L136.474-25.7188C140.967-28.3497 142.781-30.4002 142.781-33.5438C142.781-36.7151 140.967-38.738 136.474-41.3438L118.901-51.5677ZM79.4188-25.7013C81.708-25.7013 83.8615-26.4753 86.5754-28.0182L136.474-56.9621C140.967-59.593 142.781-61.6435 142.781-64.7872C142.781-67.9057 140.967-70.009 136.474-72.5871L86.5754-101.531C83.8615-103.127 81.708-103.848 79.4188-103.848C77.1572-103.848 75.0037-103.127 72.2899-101.531L22.3913-72.5871C17.8983-70.009 16.084-67.9057 16.084-64.7872C16.084-61.6435 17.8983-59.593 22.3913-56.9621L72.2899-28.0182C75.0037-26.4753 77.1572-25.7013 79.4188-25.7013Z"/>
  </g>
  <g id="Light-L" transform="matrix(1 0 0 1 1075.1 1556)">
   <path d="M110.556-17.1967L130.705-5.63538C131.227-5.368 131.588-5.05387 131.588-4.43867C131.588-3.9039 131.227-3.55609 130.705-3.2887L80.3276 25.5945C79.4355 26.0977 78.7845 26.3726 78.0065 26.3726C77.2284 26.3726 76.6242 26.0977 75.7321 25.5945L25.3547-3.2887C24.833-3.55609 24.4721-3.9039 24.4721-4.43867C24.4721-5.05387 24.833-5.368 25.3547-5.63538L46.5045-17.7074L39.5831-21.5853L21.3607-11.0508C17.7075-8.93523 16.084-7.19009 16.084-4.43867C16.084-1.734 17.7075 0.0111461 21.3607 2.09307L72.1181 31.5096C74.3739 32.7853 76.1266 33.483 78.0065 33.483C79.9331 33.483 81.6858 32.7853 83.9416 31.5096L134.699 2.09307C138.352 0.0111461 139.976-1.734 139.976-4.43867C139.976-7.19009 138.352-8.93523 134.699-11.0508L117.047-21.2766ZM109.142-48.0326L130.705-35.6671C131.227-35.3661 131.588-35.0519 131.588-34.5172C131.588-33.9487 131.227-33.6346 130.705-33.3672L80.3276-4.45029C79.4355-3.98084 78.7845-3.7059 78.0065-3.7059C77.2284-3.7059 76.6242-3.98084 75.7321-4.45029L25.3547-33.3672C24.833-33.6346 24.4721-33.9487 24.4721-34.5172C24.4721-35.0519 24.833-35.3661 25.3547-35.6671L47.7857-48.5639L41.2066-52.5559L21.3607-41.0957C17.7075-38.967 16.084-37.2686 16.084-34.5172C16.084-31.8125 17.7075-30.0673 21.3607-27.9517L72.1181 1.43113C74.3739 2.75357 76.1266 3.45122 78.0065 3.45122C79.9331 3.45122 81.6858 2.75357 83.9416 1.43113L134.699-27.9517C138.352-30.0673 139.976-31.8125 139.976-34.5172C139.976-37.2686 138.352-38.967 134.699-41.0957L115.599-52.1593ZM78.0065-28.1442C79.9331-28.1442 81.6858-28.8419 83.9416-30.1176L134.699-59.5004C138.352-61.616 139.976-63.3612 139.976-66.0659C139.976-68.7836 138.352-70.5624 134.699-72.6444L83.9416-102.027C81.6858-103.337 79.9331-104.001 78.0065-104.001C76.1266-104.001 74.3739-103.337 72.1181-102.027L21.3607-72.6444C17.7075-70.5624 16.084-68.7836 16.084-66.0659C16.084-63.3612 17.7075-61.616 21.3607-59.5004L72.1181-30.1176C74.3739-28.8419 76.1266-28.1442 78.0065-28.1442Z"/>
  </g>
  <g id="Thin-L" transform="matrix(1 0 0 1 780.248 1556)">
   <path d="M108.764-18.9889L130.326-6.56933C131-6.20098 131.512-5.76064 131.512-4.94351C131.512-4.2068 131-3.75802 130.326-3.38967L78.1063 26.6294C77.3404 27.0568 76.8157 27.3065 76.1386 27.3065C75.4615 27.3065 75.0088 27.0568 74.2428 26.6294L22.0228-3.38967C21.3496-3.75802 20.8373-4.2068 20.8373-4.94351C20.8373-5.76064 21.3496-6.20098 22.0228-6.56933L44.258-19.2976L40.1132-21.5348L19.9976-9.91495C17.4551-8.48088 16.084-7.1396 16.084-4.94351C16.084-2.8194 17.4551-1.47812 19.9976-0.0524824L71.8909 29.9194C73.5409 30.8417 74.7636 31.4384 76.1386 31.4384C77.5856 31.4384 78.8082 30.8417 80.4582 29.9194L132.352-0.0524824C134.894-1.47812 136.265-2.8194 136.265-4.94351C136.265-7.1396 134.894-8.48088 132.352-9.91495L112.68-21.2766ZM107.325-50.5821L130.326-37.3583C131-36.9815 131.512-36.5412 131.512-35.8045C131.512-35.0594 131-34.619 130.326-34.2507L78.1063-4.22312C77.3404-3.80415 76.8157-3.55445 76.1386-3.55445C75.4615-3.55445 75.0088-3.80415 74.2428-4.22312L22.0228-34.2507C21.3496-34.619 20.8373-35.0594 20.8373-35.8045C20.8373-36.5412 21.3496-36.9815 22.0228-37.3583L45.3625-50.8357L41.4843-53.1617L19.9976-40.7675C17.4551-39.2699 16.084-38.0006 16.084-35.8045C16.084-33.6804 17.4551-32.3391 19.9976-30.905L71.8909-0.941596C73.5409 0.0526931 74.7636 0.649377 76.1386 0.649377C77.5856 0.649377 78.8082 0.0526931 80.4582-0.941596L132.352-30.905C134.894-32.3391 136.265-33.6804 136.265-35.8045C136.265-38.0006 134.894-39.2699 132.352-40.7675L111.233-52.9418ZM76.1386-31.3752C77.5856-31.3752 78.8082-31.9719 80.4582-32.8942L132.352-62.8576C134.894-64.2917 136.265-65.633 136.265-67.7571C136.265-69.9447 134.894-71.2944 132.352-72.7201L80.4582-102.684C78.8082-103.614 77.5856-104.203 76.1386-104.203C74.7636-104.203 73.5409-103.614 71.8909-102.684L19.9976-72.7201C17.4551-71.2944 16.084-69.9447 16.084-67.7571C16.084-65.633 17.4551-64.2917 19.9976-62.8576L71.8909-32.8942C73.5409-31.9719 74.7636-31.3752 76.1386-31.3752Z"/>
  </g>
  <g id="Ultralight-L" transform="matrix(1 0 0 1 484.487 1556)">
   <path d="M107.846-19.9068L130.132-7.0477C130.883-6.62763 131.473-6.12264 131.473-5.20208C131.473-4.36194 130.883-3.86145 130.132-3.44138L76.9686 27.1595C76.2673 27.5481 75.8072 27.7849 75.1819 27.7849C74.5565 27.7849 74.1813 27.5481 73.48 27.1595L20.3162-3.44138C19.5654-3.86145 18.9755-4.36194 18.9755-5.20208C18.9755-6.12264 19.5654-6.62763 20.3162-7.0477L43.1073-20.1121L40.3847-21.5089L19.2994-9.33316C17.3258-8.24816 16.084-7.11374 16.084-5.20208C16.084-3.37533 17.3258-2.24092 19.2994-1.15142L71.7746 29.1049C73.1143 29.8462 74.0654 30.3912 75.1819 30.3912C76.3832 30.3912 77.3343 29.8462 78.6741 29.1049L131.149-1.15142C133.123-2.24092 134.365-3.37533 134.365-5.20208C134.365-7.11374 133.123-8.24816 131.149-9.33316L110.444-21.2766ZM106.394-51.8879L130.132-38.2246C130.883-37.809 131.473-37.304 131.473-36.4639C131.473-35.6282 130.883-35.1232 130.132-34.7032L76.9686-4.10676C76.2673-3.71364 75.8072-3.47688 75.1819-3.47688C74.5565-3.47688 74.1813-3.71364 73.48-4.10676L20.3162-34.7032C19.5654-35.1232 18.9755-35.6282 18.9755-36.4639C18.9755-37.304 19.5654-37.809 20.3162-38.2246L44.1213-51.9993L41.6265-53.472L19.2994-40.5994C17.3258-39.425 16.084-38.3755 16.084-36.4639C16.084-34.6371 17.3258-33.5027 19.2994-32.4177L71.7746-2.1569C73.1143-1.33068 74.0654-0.785713 75.1819-0.785713C76.3832-0.785713 77.3343-1.33068 78.6741-2.1569L131.149-32.4177C133.123-33.5027 134.365-34.6371 134.365-36.4639C134.365-38.3755 133.123-39.425 131.149-40.5994L108.996-53.3426ZM75.1819-33.0301C76.3832-33.0301 77.3343-33.575 78.6741-34.3163L131.149-64.5771C133.123-65.6621 134.365-66.7965 134.365-68.6233C134.365-70.5394 133.123-71.6694 131.149-72.7589L78.6741-103.02C77.3343-103.756 76.3832-104.306 75.1819-104.306C74.0654-104.306 73.1143-103.756 71.7746-103.02L19.2994-72.7589C17.3258-71.6694 16.084-70.5394 16.084-68.6233C16.084-66.7965 17.3258-65.6621 19.2994-64.5771L71.7746-34.3163C73.1143-33.575 74.0654-33.0301 75.1819-33.0301Z"/>
  </g>
  <g id="Black-M" transform="matrix(1 0 0 1 2867.58 1126)">
   <path d="M85.2745-17.9823L97.4137-11.2368C97.5989-11.1186 97.6595-11.0006 97.6595-10.8159C97.6595-10.6365 97.5989-10.513 97.4137-10.3947L67.0435 6.51453C66.5124 6.78544 66.2253 6.92074 65.8191 6.92074C65.4129 6.92074 65.1255 6.78544 64.5944 6.51453L34.2243-10.3947C34.0391-10.513 33.9785-10.6365 33.9785-10.8159C33.9785-11.0006 34.0391-11.1186 34.2243-11.2368L48.4697-19.1838L33.2119-29.2423L20.4611-21.908C15.454-18.998 12.4609-15.8059 12.4609-10.8159C12.4609-5.82562 15.454-2.63353 20.4611 0.270902L57.2862 21.516C60.7662 23.5291 63.2331 24.6724 65.8191 24.6724C68.4048 24.6724 70.8717 23.5291 74.3518 21.516L111.177 0.270902C116.184-2.63353 119.177-5.82562 119.177-10.8159C119.177-15.8059 116.184-18.998 111.177-21.908L100.135-28.3022ZM85.5288-41.9764L97.4137-35.3501C97.5989-35.2263 97.6595-35.1083 97.6595-34.9289C97.6595-34.744 97.5989-34.626 97.4137-34.5077L67.0435-17.5929C66.5124-17.3275 66.2253-17.1922 65.8191-17.1922C65.4129-17.1922 65.1255-17.3275 64.5944-17.5929L34.2243-34.5077C34.0391-34.626 33.9785-34.744 33.9785-34.9289C33.9785-35.1083 34.0391-35.2263 34.2243-35.3501L46.6345-42.2756L31.4089-52.2877L20.4611-46.0154C15.454-43.1113 12.4609-39.9189 12.4609-34.9289C12.4609-29.9386 15.454-26.7465 20.4611-23.8366L57.2862-2.59699C60.7662-0.584133 63.2331 0.559121 65.8191 0.559121C68.4048 0.559121 70.8717-0.584133 74.3518-2.59699L111.177-23.8366C116.184-26.7465 119.177-29.9386 119.177-34.9289C119.177-39.9189 116.184-43.1113 111.177-46.0154L101.526-51.5537ZM65.8191-24.2694C68.4048-24.2694 70.8717-25.4127 74.3518-27.4258L111.177-48.6654C116.184-51.5753 119.177-54.7674 119.177-59.7577C119.177-64.7422 116.184-67.9398 111.177-70.8442L74.3518-92.0838C70.8717-94.1025 68.4048-95.2402 65.8191-95.2402C63.2331-95.2402 60.7662-94.1025 57.2862-92.0838L20.4611-70.8442C15.454-67.9398 12.4609-64.7422 12.4609-59.7577C12.4609-54.7674 15.454-51.5753 20.4611-48.6654L57.2862-27.4258C60.7662-25.4127 63.2331-24.2694 65.8191-24.2694Z"/>
  </g>
  <g id="Heavy-M" transform="matrix(1 0 0 1 2571.69 1126)">
   <path d="M85.7937-18.3256L98.4129-11.2641C98.6134-11.149 98.6894-11.0317 98.6894-10.8266C98.6894-10.6402 98.6134-10.5065 98.4129-10.3915L66.4412 7.53565C65.8421 7.85278 65.4734 8.01248 64.9966 8.01248C64.5198 8.01248 64.1534 7.85278 63.5542 7.53565L31.5826-10.3915C31.382-10.5065 31.3061-10.6402 31.3061-10.8266C31.3061-11.0317 31.382-11.149 31.5826-11.2641L46.0727-19.3853L32.4841-28.1727L19.8648-20.9036C15.105-18.13 12.4609-15.2753 12.4609-10.8266C12.4609-6.38023 15.105-3.52549 19.8648-0.768389L57.0072 20.7081C60.2237 22.5642 62.5561 23.5894 64.9966 23.5894C67.4394 23.5894 69.7718 22.5642 72.9883 20.7081L110.131-0.768389C114.89-3.52549 117.535-6.38023 117.535-10.8266C117.535-15.2753 114.89-18.13 110.131-20.9036L98.9519-27.3859ZM85.7355-42.1134L98.4129-34.9959C98.6134-34.8644 98.6894-34.7471 98.6894-34.5607C98.6894-34.3579 98.6134-34.2406 98.4129-34.1256L66.4412-16.182C65.8421-15.8813 65.4734-15.7216 64.9966-15.7216C64.5198-15.7216 64.1534-15.8813 63.5542-16.182L31.5826-34.1256C31.382-34.2406 31.3061-34.3579 31.3061-34.5607C31.3061-34.7471 31.382-34.8644 31.5826-34.9959L44.9473-42.5057L31.4639-51.2846L19.8648-44.6212C15.105-41.8619 12.4609-39.0094 12.4609-34.5607C12.4609-30.1143 15.105-27.2596 19.8648-24.4861L57.0072-3.02598C60.2237-1.16763 62.5561-0.142406 64.9966-0.142406C67.4394-0.142406 69.7718-1.16763 72.9883-3.02598L110.131-24.4861C114.89-27.2596 117.535-30.1143 117.535-34.5607C117.535-39.0094 114.89-41.8619 110.131-44.6212L99.7498-50.6089ZM64.9966-24.7853C67.4394-24.7853 69.7718-25.8106 72.9883-27.6666L110.131-49.1267C114.89-51.9002 117.535-54.755 117.535-59.2014C117.535-63.6336 114.89-66.5048 110.131-69.2619L72.9883-90.722C69.7718-92.5945 67.4394-93.6033 64.9966-93.6033C62.5561-93.6033 60.2237-92.5945 57.0072-90.722L19.8648-69.2619C15.105-66.5048 12.4609-63.6336 12.4609-59.2014C12.4609-54.755 15.105-51.9002 19.8648-49.1267L57.0072-27.6666C60.2237-25.8106 62.5561-24.7853 64.9966-24.7853Z"/>
  </g>
  <g id="Bold-M" transform="matrix(1 0 0 1 2275.9 1126)">
   <path d="M86.3744-18.7095L99.5306-11.2945C99.7484-11.1831 99.8415-11.0666 99.8415-10.8386C99.8415-10.6444 99.7484-10.4992 99.5306-10.3879L65.7675 8.67791C65.0922 9.04675 64.6323 9.23374 64.0765 9.23374C63.5207 9.23374 63.066 9.04675 62.3906 8.67791L28.6275-10.3879C28.4098-10.4992 28.3167-10.6444 28.3167-10.8386C28.3167-11.0666 28.4098-11.1831 28.6275-11.2945L43.3913-19.6107L31.6699-26.9762L19.1979-19.78C14.7147-17.1591 12.4609-14.6817 12.4609-10.8386C12.4609-7.00064 14.7147-4.52328 19.1979-1.93099L56.695 19.8044C59.6168 21.4848 61.7987 22.378 64.0765 22.378C66.3595 22.378 68.5413 21.4848 71.4631 19.8044L108.96-1.93099C113.443-4.52328 115.697-7.00064 115.697-10.8386C115.697-14.6817 113.443-17.1591 108.96-19.78L97.6281-26.3609ZM85.9667-42.2666L99.5306-34.5996C99.7484-34.4596 99.8415-34.3431 99.8415-34.1489C99.8415-33.926 99.7484-33.8095 99.5306-33.6981L65.7675-14.6037C65.0922-14.2635 64.6323-14.0765 64.0765-14.0765C63.5207-14.0765 63.066-14.2635 62.3906-14.6037L28.6275-33.6981C28.4098-33.8095 28.3167-33.926 28.3167-34.1489C28.3167-34.3431 28.4098-34.4596 28.6275-34.5996L43.0598-42.7631L31.5255-50.1624L19.1979-43.0616C14.7147-40.4642 12.4609-37.992 12.4609-34.1489C12.4609-30.3109 14.7147-27.8335 19.1979-25.2126L56.695-3.50587C59.6168-1.82037 61.7987-0.927164 64.0765-0.927164C66.3595-0.927164 68.5413-1.82037 71.4631-3.50587L108.96-25.2126C113.443-27.8335 115.697-30.3109 115.697-34.1489C115.697-37.992 113.443-40.4642 108.96-43.0616L97.7627-49.552ZM64.0765-25.3625C66.3595-25.3625 68.5413-26.2557 71.4631-27.936L108.96-49.6428C113.443-52.2637 115.697-54.7411 115.697-58.579C115.697-62.3935 113.443-64.8995 108.96-67.4918L71.4631-89.1986C68.5413-90.9075 66.3595-91.7721 64.0765-91.7721C61.7987-91.7721 59.6168-90.9075 56.695-89.1986L19.1979-67.4918C14.7147-64.8995 12.4609-62.3935 12.4609-58.579C12.4609-54.7411 14.7147-52.2637 19.1979-49.6428L56.695-27.936C59.6168-26.2557 61.7987-25.3625 64.0765-25.3625Z"/>
  </g>
  <g id="Semibold-M" transform="matrix(1 0 0 1 1979.82 1126)">
   <path d="M86.7748-18.9742L100.301-11.3155C100.531-11.2066 100.636-11.0906 100.636-10.8469C100.636-10.6473 100.531-10.4942 100.301-10.3853L65.303 9.46538C64.5752 9.86987 64.0525 10.0757 63.4422 10.0757C62.8319 10.0757 62.3163 9.86987 61.5885 9.46538L26.5903-10.3853C26.3607-10.4942 26.2558-10.6473 26.2558-10.8469C26.2558-11.0906 26.3607-11.2066 26.5903-11.3155L41.5428-19.7661L31.1086-26.1513L18.7381-19.0054C14.4456-16.4897 12.4609-14.2725 12.4609-10.8469C12.4609-7.42835 14.4456-5.21115 18.7381-2.73247L56.4799 19.1814C59.1985 20.7406 61.2765 21.5428 63.4422 21.5428C65.6149 21.5428 67.693 20.7406 70.4116 19.1814L108.153-2.73247C112.446-5.21115 114.431-7.42835 114.431-10.8469C114.431-14.2725 112.446-16.4897 108.153-19.0054L96.7154-25.6543ZM86.1261-42.3722L100.301-34.3265C100.531-34.1806 100.636-34.0646 100.636-33.865C100.636-33.6283 100.531-33.5123 100.301-33.4034L65.303-13.5157C64.5752-13.1482 64.0525-12.9424 63.4422-12.9424C62.8319-12.9424 62.3163-13.1482 61.5885-13.5157L26.5903-33.4034C26.3607-33.5123 26.2558-33.6283 26.2558-33.865C26.2558-34.0646 26.3607-34.1806 26.5903-34.3265L41.7587-42.9406L31.568-49.3888L18.7381-41.9865C14.4456-39.5007 12.4609-37.2906 12.4609-33.865C12.4609-30.4464 14.4456-28.2292 18.7381-25.7135L56.4799-3.8367C59.1985-2.27035 61.2765-1.46817 63.4422-1.46817C65.6149-1.46817 67.693-2.27035 70.4116-3.8367L108.153-25.7135C112.446-28.2292 114.431-30.4464 114.431-33.865C114.431-37.2906 112.446-39.5007 108.153-41.9865L96.3928-48.8233ZM63.4422-25.7603C65.6149-25.7603 67.693-26.5625 70.4116-28.1218L108.153-49.9986C112.446-52.5143 114.431-54.7315 114.431-58.15C114.431-61.5386 112.446-63.7928 108.153-66.2715L70.4116-88.1483C67.693-89.7446 65.6149-90.5097 63.4422-90.5097C61.2765-90.5097 59.1985-89.7446 56.4799-88.1483L18.7381-66.2715C14.4456-63.7928 12.4609-61.5386 12.4609-58.15C12.4609-54.7315 14.4456-52.5143 18.7381-49.9986L56.4799-28.1218C59.1985-26.5625 61.2765-25.7603 63.4422-25.7603Z"/>
  </g>
  <g id="Medium-M" transform="matrix(1 0 0 1 1683.59 1126)">
   <path d="M87.0784-19.1749L100.885-11.3314C101.124-11.2245 101.238-11.1089 101.238-10.8531C101.238-10.6494 101.124-10.4904 100.885-10.3835L64.9508 10.0625C64.1832 10.494 63.6128 10.7141 62.9612 10.7141C62.3096 10.7141 61.7478 10.494 60.9802 10.0625L25.0455-10.3835C24.807-10.4904 24.6931-10.6494 24.6931-10.8531C24.6931-11.1089 24.807-11.2245 25.0455-11.3314L40.1411-19.884L30.683-25.5259L18.3895-18.4181C14.2415-15.9822 12.4609-13.9622 12.4609-10.8531C12.4609-7.75266 14.2415-5.73273 18.3895-3.34019L56.3167 18.709C58.8812 20.1764 60.8806 20.9095 62.9612 20.9095C65.0504 20.9095 67.0498 20.1764 69.6143 18.709L107.542-3.34019C111.69-5.73273 113.47-7.75266 113.47-10.8531C113.47-13.9622 111.69-15.9822 107.542-18.4181L96.0234-25.1185ZM86.247-42.4523L100.885-34.1194C101.124-33.9689 101.238-33.8534 101.238-33.6497C101.238-33.4025 101.124-33.287 100.885-33.18L64.9508-12.6906C64.1832-12.3025 63.6128-12.0825 62.9612-12.0825C62.3096-12.0825 61.7478-12.3025 60.9802-12.6906L25.0455-33.18C24.807-33.287 24.6931-33.4025 24.6931-33.6497C24.6931-33.8534 24.807-33.9689 25.0455-34.1194L40.772-43.0752L31.6002-48.8022L18.3895-41.1712C14.2415-38.7701 12.4609-36.7588 12.4609-33.6497C12.4609-30.5492 14.2415-28.5293 18.3895-26.0933L56.3167-4.08755C58.8812-2.61155 60.8806-1.87839 62.9612-1.87839C65.0504-1.87839 67.0498-2.61155 69.6143-4.08755L107.542-26.0933C111.69-28.5293 113.47-30.5492 113.47-33.6497C113.47-36.7588 111.69-38.7701 107.542-41.1712L95.3541-48.2709ZM62.9612-26.062C65.0504-26.062 67.0498-26.7952 69.6143-28.2626L107.542-50.2683C111.69-52.7043 113.47-54.7242 113.47-57.8247C113.47-60.8904 111.69-62.9537 107.542-65.3462L69.6143-87.352C67.0498-88.8628 65.0504-89.5525 62.9612-89.5525C60.8806-89.5525 58.8812-88.8628 56.3167-87.352L18.3895-65.3462C14.2415-62.9537 12.4609-60.8904 12.4609-57.8247C12.4609-54.7242 14.2415-52.7043 18.3895-50.2683L56.3167-28.2626C58.8812-26.7952 60.8806-26.062 62.9612-26.062Z"/>
  </g>
  <g id="Regular-M" transform="matrix(1 0 0 1 1387.51 1126)">
   <path d="M87.4743-19.4367L101.648-11.3522C101.898-11.2477 102.023-11.1326 102.023-10.8613C102.023-10.6523 101.898-10.4855 101.648-10.381L64.4914 10.8413C63.6719 11.3081 63.0393 11.5467 62.3339 11.5467C61.6284 11.5467 61.0064 11.3081 60.1869 10.8413L23.0307-10.381C22.7805-10.4855 22.6549-10.6523 22.6549-10.8613C22.6549-11.1326 22.7805-11.2477 23.0307-11.3522L38.3129-20.0377L30.1278-24.7101L17.9347-17.6521C13.9753-15.3201 12.4609-13.5575 12.4609-10.8613C12.4609-8.17567 13.9753-6.41304 17.9347-4.13287L56.1039 18.0928C58.4674 19.4404 60.3642 20.0835 62.3339 20.0835C64.3141 20.0835 66.2109 19.4404 68.5744 18.0928L106.744-4.13287C110.703-6.41304 112.217-8.17567 112.217-10.8613C112.217-13.5575 110.703-15.3201 106.744-17.6521L95.1208-24.4196ZM86.4046-42.5568L101.648-33.8492C101.898-33.6929 102.023-33.5779 102.023-33.3689C102.023-33.1081 101.898-32.993 101.648-32.8885L64.4914-11.6145C63.6719-11.1995 63.0393-10.9608 62.3339-10.9608C61.6284-10.9608 61.0064-11.1995 60.1869-11.6145L23.0307-32.8885C22.7805-32.993 22.6549-33.1081 22.6549-33.3689C22.6549-33.5779 22.7805-33.6929 23.0307-33.8492L39.4851-43.2507L31.6422-48.0371L17.9347-40.1079C13.9753-37.8171 12.4609-36.0651 12.4609-33.3689C12.4609-30.6832 13.9753-28.9206 17.9347-26.5887L56.1039-4.41475C58.4674-3.0566 60.3642-2.41345 62.3339-2.41345C64.3141-2.41345 66.2109-3.0566 68.5744-4.41475L106.744-26.5887C110.703-28.9206 112.217-30.6832 112.217-33.3689C112.217-36.0651 110.703-37.8171 106.744-40.1079L93.9993-47.5502ZM62.3339-26.4555C64.3141-26.4555 66.2109-27.0987 68.5744-28.4463L106.744-50.6202C110.703-52.9521 112.217-54.7147 112.217-57.4004C112.217-60.0448 110.703-61.8592 106.744-64.1394L68.5744-86.3133C66.2109-87.7126 64.3141-88.304 62.3339-88.304C60.3642-88.304 58.4674-87.7126 56.1039-86.3133L17.9347-64.1394C13.9753-61.8592 12.4609-60.0448 12.4609-57.4004C12.4609-54.7147 13.9753-52.9521 17.9347-50.6202L56.1039-28.4463C58.4674-27.0987 60.3642-26.4555 62.3339-26.4555Z"/>
  </g>
  <g id="Light-M" transform="matrix(1 0 0 1 1092.05 1126)">
   <path d="M86.2594-20.6516L101.391-11.9853C101.744-11.8124 101.972-11.6117 101.972-11.2035C101.972-10.8576 101.744-10.6224 101.391-10.4494L62.9857 11.5428C62.2517 11.9583 61.7047 12.1798 61.0677 12.1798C60.4307 12.1798 59.9113 11.9583 59.1773 11.5428L20.7721-10.4494C20.4192-10.6224 20.1909-10.8576 20.1909-11.2035C20.1909-11.6117 20.4192-11.8124 20.7721-11.9853L36.79-21.1157L30.4872-24.6758L17.0107-16.8821C13.8042-15.0121 12.4609-13.5233 12.4609-11.2035C12.4609-8.91144 13.8042-7.42258 17.0107-5.5873L55.9499 17.0148C57.9028 18.1229 59.4402 18.6976 61.0677 18.6976C62.7227 18.6976 64.2602 18.1229 66.2131 17.0148L105.152-5.5873C108.359-7.42258 109.702-8.91144 109.702-11.2035C109.702-13.5233 108.359-15.0121 105.152-16.8821L92.1606-24.4196ZM85.1726-44.285L101.391-34.9956C101.744-34.788 101.972-34.5874 101.972-34.2415C101.972-33.861 101.744-33.6604 101.391-33.4874L62.9857-11.4605C62.2517-11.0797 61.7047-10.8581 61.0677-10.8581C60.4307-10.8581 59.9113-11.0797 59.1773-11.4605L20.7721-33.4874C20.4192-33.6604 20.1909-33.861 20.1909-34.2415C20.1909-34.5874 20.4192-34.788 20.7721-34.9956L37.8425-44.7907L31.8305-48.4478L17.0107-39.8854C13.8042-38.0225 12.4609-36.5613 12.4609-34.2415C12.4609-31.9494 13.8042-30.4606 17.0107-28.5907L55.9499-6.02317C57.9028-4.88747 59.4402-4.31276 61.0677-4.31276C62.7227-4.31276 64.2602-4.88747 66.2131-6.02317L105.152-28.5907C108.359-30.4606 109.702-31.9494 109.702-34.2415C109.702-36.5613 108.359-38.0225 105.152-39.8854L91.0391-48.0807ZM61.0677-28.6457C62.7227-28.6457 64.2602-29.2204 66.2131-30.3285L105.152-52.8959C108.359-54.7659 109.702-56.2547 109.702-58.5468C109.702-60.8319 108.359-62.3554 105.152-64.1907L66.2131-86.7582C64.2602-87.9009 62.7227-88.4409 61.0677-88.4409C59.4402-88.4409 57.9028-87.9009 55.9499-86.7582L17.0107-64.1907C13.8042-62.3554 12.4609-60.8319 12.4609-58.5468C12.4609-56.2547 13.8042-54.7659 17.0107-52.8959L55.9499-30.3285C57.9028-29.2204 59.4402-28.6457 61.0677-28.6457Z"/>
  </g>
  <g id="Thin-M" transform="matrix(1 0 0 1 797.004 1126)">
   <path d="M84.6527-22.2584L101.051-12.8226C101.54-12.5592 101.904-12.2454 101.904-11.6561C101.904-11.1292 101.54-10.8034 101.051-10.5399L60.9942 12.4707C60.3734 12.8182 59.9395 13.0172 59.393 13.0172C58.8465 13.0172 58.4629 12.8182 57.8421 12.4707L17.7848-10.5399C17.2961-10.8034 16.9321-11.1292 16.9321-11.6561C16.9321-12.2454 17.2961-12.5592 17.7848-12.8226L34.7759-22.5414L30.9624-24.6306L15.7887-15.8637C13.5779-14.6048 12.4609-13.478 12.4609-11.6561C12.4609-9.88455 13.5779-8.75779 15.7887-7.5109L55.7462 15.5891C57.156 16.3803 58.2182 16.8645 59.393 16.8645C60.6181 16.8645 61.6803 16.3803 63.0901 15.5891L103.048-7.5109C105.258-8.75779 106.375-9.88455 106.375-11.6561C106.375-13.478 105.258-14.6048 103.048-15.8637L88.2455-24.4196ZM83.5432-46.5707L101.051-36.5119C101.54-36.2364 101.904-35.9226 101.904-35.3957C101.904-34.8567 101.54-34.543 101.051-34.2795L60.9942-11.2568C60.3734-10.9213 59.9395-10.7224 59.393-10.7224C58.8465-10.7224 58.4629-10.9213 57.8421-11.2568L17.7848-34.2795C17.2961-34.543 16.9321-34.8567 16.9321-35.3957C16.9321-35.9226 17.2961-36.2364 17.7848-36.5119L35.67-46.8274L32.0794-48.9909L15.7887-39.5912C13.5779-38.294 12.4609-37.2176 12.4609-35.3957C12.4609-33.6241 13.5779-32.4973 15.7887-31.2384L55.7462-8.15045C57.156-7.30894 58.2182-6.82476 59.393-6.82476C60.6181-6.82476 61.6803-7.30894 63.0901-8.15045L103.048-31.2384C105.258-32.4973 106.375-33.6241 106.375-35.3957C106.375-37.2176 105.258-38.294 103.048-39.5912L87.124-48.7822ZM59.393-31.5424C60.6181-31.5424 61.6803-32.0266 63.0901-32.8178L103.048-55.9058C105.258-57.1647 106.375-58.2915 106.375-60.0631C106.375-61.8729 105.258-63.0117 103.048-64.2586L63.0901-87.3466C61.6803-88.1498 60.6181-88.622 59.393-88.622C58.2182-88.622 57.156-88.1498 55.7462-87.3466L15.7887-64.2586C13.5779-63.0117 12.4609-61.8729 12.4609-60.0631C12.4609-58.2915 13.5779-57.1647 15.7887-55.9058L55.7462-32.8178C57.156-32.0266 58.2182-31.5424 59.393-31.5424Z"/>
  </g>
  <g id="Ultralight-M" transform="matrix(1 0 0 1 501.145 1126)">
   <path d="M83.8297-23.0814L100.878-13.2515C101.436-12.9417 101.869-12.57 101.869-11.888C101.869-11.2683 101.436-10.8961 100.878-10.5863L59.9741 12.9459C59.4113 13.2587 59.0354 13.4461 58.5352 13.4461C58.0351 13.4461 57.7211 13.2587 57.1582 12.9459L16.2548-10.5863C15.6966-10.8961 15.2629-11.2683 15.2629-11.888C15.2629-12.57 15.6966-12.9417 16.2548-13.2515L33.7443-23.2716L31.2058-24.6074L15.1628-15.3421C13.462-14.3961 12.4609-13.4548 12.4609-11.888C12.4609-10.383 13.462-9.44167 15.1628-8.49616L55.6419 14.8588C56.7735 15.4878 57.5923 15.9256 58.5352 15.9256C59.5401 15.9256 60.3589 15.4878 61.4905 14.8588L101.97-8.49616C103.67-9.44167 104.671-10.383 104.671-11.888C104.671-13.4548 103.67-14.3961 101.97-15.3421L86.2402-24.4196ZM82.7086-47.7414L100.878-37.2885C101.436-36.9782 101.869-36.6065 101.869-35.9868C101.869-35.3667 101.436-34.995 100.878-34.6852L59.9741-11.1525C59.4113-10.8402 59.0354-10.6528 58.5352-10.6528C58.0351-10.6528 57.7211-10.8402 57.1582-11.1525L16.2548-34.6852C15.6966-34.995 15.2629-35.3667 15.2629-35.9868C15.2629-36.6065 15.6966-36.9782 16.2548-37.2885L34.5572-47.8706L32.2069-49.2691L15.1628-39.4405C13.462-38.4331 12.4609-37.5537 12.4609-35.9868C12.4609-34.4818 13.462-33.5405 15.1628-32.5946L55.6419-9.24003C56.7735-8.54921 57.5923-8.11139 58.5352-8.11139C59.5401-8.11139 60.3589-8.54921 61.4905-9.24003L101.97-32.5946C103.67-33.5405 104.671-34.4818 104.671-35.9868C104.671-37.5537 103.67-38.4331 101.97-39.4405L85.1187-49.1415ZM58.5352-33.0261C59.5401-33.0261 60.3589-33.4639 61.4905-34.0929L101.97-57.4474C103.67-58.3934 104.671-59.3347 104.671-60.8397C104.671-62.4061 103.67-63.3479 101.97-64.2934L61.4905-87.6479C60.3589-88.2773 59.5401-88.7147 58.5352-88.7147C57.5923-88.7147 56.7735-88.2773 55.6419-87.6479L15.1628-64.2934C13.462-63.3479 12.4609-62.4061 12.4609-60.8397C12.4609-59.3347 13.462-58.3934 15.1628-57.4474L55.6419-34.0929C56.7735-33.4639 57.5923-33.0261 58.5352-33.0261Z"/>
  </g>
  <g id="Black-S" transform="matrix(1 0 0 1 2881.64 696)">
   <path d="M66.6016-21.6797L76.0254-16.4551C76.1719-16.3574 76.2207-16.2598 76.2207-16.1133C76.2207-15.9668 76.1719-15.8691 76.0254-15.7715L52.6367-2.7832C52.2461-2.58789 52.0508-2.49023 51.7578-2.49023C51.4648-2.49023 51.2695-2.58789 50.8789-2.7832L27.4902-15.7715C27.3438-15.8691 27.2949-15.9668 27.2949-16.1133C27.2949-16.2598 27.3438-16.3574 27.4902-16.4551L38.623-22.6562L26.2695-30.8594L16.1621-25.0488C12.207-22.7539 9.76562-20.166 9.76562-16.1133C9.76562-12.0605 12.207-9.47266 16.1621-7.17773L44.9707 9.42383C47.7539 11.0352 49.707 11.9629 51.7578 11.9629C53.8086 11.9629 55.7617 11.0352 58.5449 9.42383L87.3535-7.17773C91.3086-9.47266 93.75-12.0605 93.75-16.1133C93.75-20.166 91.3086-22.7539 87.3535-25.0488L78.6621-30.0781ZM66.8945-40.5762L76.0254-35.498C76.1719-35.4004 76.2207-35.3027 76.2207-35.1562C76.2207-35.0098 76.1719-34.9121 76.0254-34.8145L52.6367-21.8262C52.2461-21.6309 52.0508-21.5332 51.7578-21.5332C51.4648-21.5332 51.2695-21.6309 50.8789-21.8262L27.4902-34.8145C27.3438-34.9121 27.2949-35.0098 27.2949-35.1562C27.2949-35.3027 27.3438-35.4004 27.4902-35.498L36.9629-40.7715L24.6094-48.9258L16.1621-44.0918C12.207-41.7969 9.76562-39.209 9.76562-35.1562C9.76562-31.1035 12.207-28.5156 16.1621-26.2207L44.9707-9.61914C47.7539-8.00781 49.707-7.08008 51.7578-7.08008C53.8086-7.08008 55.7617-8.00781 58.5449-9.61914L87.3535-26.2207C91.3086-28.5156 93.75-31.1035 93.75-35.1562C93.75-39.209 91.3086-41.7969 87.3535-44.0918L79.9316-48.3398ZM51.7578-26.6113C53.8086-26.6113 55.7617-27.5391 58.5449-29.1504L87.3535-45.752C91.3086-48.0469 93.75-50.6348 93.75-54.6875C93.75-58.7402 91.3086-61.3281 87.3535-63.623L58.5449-80.2246C55.7617-81.8359 53.8086-82.7637 51.7578-82.7637C49.707-82.7637 47.7539-81.8359 44.9707-80.2246L16.1621-63.623C12.207-61.3281 9.76562-58.7402 9.76562-54.6875C9.76562-50.6348 12.207-48.0469 16.1621-45.752L44.9707-29.1504C47.7539-27.5391 49.707-26.6113 51.7578-26.6113Z"/>
  </g>
  <g id="Heavy-S" transform="matrix(1 0 0 1 2585.47 696)">
   <path d="M67.2008-21.818L76.9128-16.3975C77.0593-16.3113 77.1081-16.2252 77.1081-16.0787C77.1081-15.9437 77.0593-15.8461 76.9128-15.76L52.314-1.99954C51.8543-1.75813 51.5783-1.63742 51.2162-1.63742C50.854-1.63742 50.5781-1.75813 50.1183-1.99954L25.5196-15.76C25.3731-15.8461 25.3242-15.9437 25.3242-16.0787C25.3242-16.2252 25.3731-16.3113 25.5196-16.3975L36.7676-22.6908L25.6011-29.9489L15.7703-24.2882C11.9304-22.0509 9.76562-19.7166 9.76562-16.0787C9.76562-12.4409 11.9304-10.1065 15.7703-7.88073L44.7517 8.87065C47.3621 10.3783 49.2461 11.2138 51.2162 11.2138C53.1863 11.2138 55.0703 10.3783 57.6806 8.87065L86.662-7.88073C90.5019-10.1065 92.6667-12.4409 92.6667-16.0787C92.6667-19.7166 90.5019-22.0509 86.662-24.2882L78.0283-29.2945ZM67.2287-40.4725L76.9128-35.0486C77.0593-34.9509 77.1081-34.8648 77.1081-34.7298C77.1081-34.5834 77.0593-34.4972 76.9128-34.4111L52.314-20.6392C51.8543-20.4093 51.5783-20.2886 51.2162-20.2886C50.854-20.2886 50.5781-20.4093 50.1183-20.6392L25.5196-34.4111C25.3731-34.4972 25.3242-34.5834 25.3242-34.7298C25.3242-34.8648 25.3731-34.9509 25.5196-35.0486L35.7298-40.7715L24.6324-48.0153L15.7703-42.9278C11.9304-40.7021 9.76562-38.3677 9.76562-34.7298C9.76562-31.092 11.9304-28.7576 15.7703-26.5203L44.7517-9.78048C47.3621-8.27288 49.2461-7.43734 51.2162-7.43734C53.1863-7.43734 55.0703-8.27288 57.6806-9.78048L86.662-26.5203C90.5019-28.7576 92.6667-31.092 92.6667-34.7298C92.6667-38.3677 90.5019-40.7021 86.662-42.9278L78.7907-47.464ZM51.2162-26.7727C53.1863-26.7727 55.0703-27.6082 57.6806-29.1158L86.662-45.8557C90.5019-48.093 92.6667-50.4273 92.6667-54.0652C92.6667-57.6915 90.5019-60.0374 86.662-62.2632L57.6806-79.003C55.0703-80.5221 53.1863-81.3462 51.2162-81.3462C49.2461-81.3462 47.3621-80.5221 44.7517-79.003L15.7703-62.2632C11.9304-60.0374 9.76562-57.6915 9.76562-54.0652C9.76562-50.4273 11.9304-48.093 15.7703-45.8557L44.7517-29.1158C47.3621-27.6082 49.2461-26.7727 51.2162-26.7727Z"/>
  </g>
  <g id="Bold-S" transform="matrix(1 0 0 1 2289.37 696)">
   <path d="M67.8711-21.9727L77.9053-16.333C78.0518-16.2598 78.1006-16.1865 78.1006-16.04C78.1006-15.918 78.0518-15.8203 77.9053-15.7471L51.9531-1.12305C51.416-0.830078 51.0498-0.683594 50.6104-0.683594C50.1709-0.683594 49.8047-0.830078 49.2676-1.12305L23.3154-15.7471C23.1689-15.8203 23.1201-15.918 23.1201-16.04C23.1201-16.1865 23.1689-16.2598 23.3154-16.333L34.6924-22.7295L24.8535-28.9307L15.332-23.4375C11.6211-21.2646 9.76562-19.2139 9.76562-16.04C9.76562-12.8662 11.6211-10.8154 15.332-8.66699L44.5068 8.25195C46.9238 9.64355 48.7305 10.376 50.6104 10.376C52.4902 10.376 54.2969 9.64355 56.7139 8.25195L85.8887-8.66699C89.5996-10.8154 91.4551-12.8662 91.4551-16.04C91.4551-19.2139 89.5996-21.2646 85.8887-23.4375L77.3193-28.418ZM67.6025-40.3564L77.9053-34.5459C78.0518-34.4482 78.1006-34.375 78.1006-34.2529C78.1006-34.1064 78.0518-34.0332 77.9053-33.96L51.9531-19.3115C51.416-19.043 51.0498-18.8965 50.6104-18.8965C50.1709-18.8965 49.8047-19.043 49.2676-19.3115L23.3154-33.96C23.1689-34.0332 23.1201-34.1064 23.1201-34.2529C23.1201-34.375 23.1689-34.4482 23.3154-34.5459L34.3506-40.7715L24.6582-46.9971L15.332-41.626C11.6211-39.4775 9.76562-37.4268 9.76562-34.2529C9.76562-31.0791 11.6211-29.0283 15.332-26.8555L44.5068-9.96094C46.9238-8.56934 48.7305-7.83691 50.6104-7.83691C52.4902-7.83691 54.2969-8.56934 56.7139-9.96094L85.8887-26.8555C89.5996-29.0283 91.4551-31.0791 91.4551-34.2529C91.4551-37.4268 89.5996-39.4775 85.8887-41.626L77.5146-46.4844ZM50.6104-26.9531C52.4902-26.9531 54.2969-27.6855 56.7139-29.0771L85.8887-45.9717C89.5996-48.1445 91.4551-50.1953 91.4551-53.3691C91.4551-56.5186 89.5996-58.5938 85.8887-60.7422L56.7139-77.6367C54.2969-79.0527 52.4902-79.7607 50.6104-79.7607C48.7305-79.7607 46.9238-79.0527 44.5068-77.6367L15.332-60.7422C11.6211-58.5938 9.76562-56.5186 9.76562-53.3691C9.76562-50.1953 11.6211-48.1445 15.332-45.9717L44.5068-29.0771C46.9238-27.6855 48.7305-26.9531 50.6104-26.9531Z"/>
  </g>
  <g id="Semibold-S" transform="matrix(1 0 0 1 1993.07 696)">
   <path d="M68.3332-22.0793L78.5896-16.2886C78.736-16.2242 78.7849-16.1599 78.7849-16.0134C78.7849-15.9002 78.736-15.8025 78.5896-15.7382L51.7043-0.51875C51.1139-0.190234 50.6854-0.0259766 50.1927-0.0259766C49.6999-0.0259766 49.2715-0.190234 48.6811-0.51875L21.7958-15.7382C21.6493-15.8025 21.6005-15.9002 21.6005-16.0134C21.6005-16.1599 21.6493-16.2242 21.7958-16.2886L33.2616-22.7562L24.3381-28.2286L15.0299-22.851C11.4078-20.7226 9.76562-18.8673 9.76562-16.0134C9.76562-13.1595 11.4078-11.3042 15.0299-9.20908L44.338 7.82539C46.6217 9.13701 48.375 9.79834 50.1927 9.79834C52.0104 9.79834 53.7637 9.13701 56.0474 7.82539L85.3555-9.20908C88.9775-11.3042 90.6197-13.1595 90.6197-16.0134C90.6197-18.8673 88.9775-20.7226 85.3555-22.851L76.8306-27.8137ZM67.8603-40.2765L78.5896-34.1993C78.736-34.1017 78.7849-34.0373 78.7849-33.9241C78.7849-33.7776 78.736-33.7133 78.5896-33.6489L51.7043-18.3962C51.1139-18.101 50.6854-17.9367 50.1927-17.9367C49.6999-17.9367 49.2715-18.101 48.6811-18.3962L21.7958-33.6489C21.6493-33.7133 21.6005-33.7776 21.6005-33.9241C21.6005-34.0373 21.6493-34.1017 21.7958-34.1993L33.3997-40.7715L24.676-46.295L15.0299-40.7284C11.4078-38.6333 9.76562-36.778 9.76562-33.9241C9.76562-31.0702 11.4078-29.2149 15.0299-27.0865L44.338-10.0854C46.6217-8.77373 48.375-8.1124 50.1927-8.1124C52.0104-8.1124 53.7637-8.77373 56.0474-10.0854L85.3555-27.0865C88.9775-29.2149 90.6197-31.0702 90.6197-33.9241C90.6197-36.778 88.9775-38.6333 85.3555-40.7284L76.6349-45.809ZM50.1927-27.0775C52.0104-27.0775 53.7637-27.7389 56.0474-29.0505L85.3555-46.0517C88.9775-48.1801 90.6197-50.0354 90.6197-52.8893C90.6197-55.7099 88.9775-57.5984 85.3555-59.6936L56.0474-76.6947C53.7637-78.0396 52.0104-78.6677 50.1927-78.6677C48.375-78.6677 46.6217-78.0396 44.338-76.6947L15.0299-59.6936C11.4078-57.5984 9.76562-55.7099 9.76562-52.8893C9.76562-50.0354 11.4078-48.1801 15.0299-46.0517L44.338-29.0505C46.6217-27.7389 48.375-27.0775 50.1927-27.0775Z"/>
  </g>
  <g id="Medium-S" transform="matrix(1 0 0 1 1696.68 696)">
   <path d="M68.6836-22.1602L79.1084-16.2549C79.2549-16.1973 79.3037-16.1396 79.3037-15.9932C79.3037-15.8867 79.2549-15.7891 79.1084-15.7314L51.5156-0.0605469C50.8848 0.294922 50.4092 0.472656 49.876 0.472656C49.3428 0.472656 48.8672 0.294922 48.2363-0.0605469L20.6436-15.7314C20.4971-15.7891 20.4482-15.8867 20.4482-15.9932C20.4482-16.1396 20.4971-16.1973 20.6436-16.2549L32.1768-22.7764L23.9473-27.6963L14.8008-22.4062C11.2461-20.3115 9.76562-18.6045 9.76562-15.9932C9.76562-13.3818 11.2461-11.6748 14.8008-9.62012L44.21 7.50195C46.3926 8.75293 48.1055 9.36035 49.876 9.36035C51.6465 9.36035 53.3594 8.75293 55.542 7.50195L84.9512-9.62012C88.5059-11.6748 89.9863-13.3818 89.9863-15.9932C89.9863-18.6045 88.5059-20.3115 84.9512-22.4062L76.46-27.3555ZM68.0557-40.2158L79.1084-33.9365C79.2549-33.8389 79.3037-33.7812 79.3037-33.6748C79.3037-33.5283 79.2549-33.4707 79.1084-33.4131L51.5156-17.7021C50.8848-17.3867 50.4092-17.209 49.876-17.209C49.3428-17.209 48.8672-17.3867 48.2363-17.7021L20.6436-33.4131C20.4971-33.4707 20.4482-33.5283 20.4482-33.6748C20.4482-33.7812 20.4971-33.8389 20.6436-33.9365L32.6787-40.7715L24.6895-45.7627L14.8008-40.0479C11.2461-37.9932 9.76562-36.2861 9.76562-33.6748C9.76562-31.0635 11.2461-29.3564 14.8008-27.2617L44.21-10.1797C46.3926-8.92871 48.1055-8.32129 49.876-8.32129C51.6465-8.32129 53.3594-8.92871 55.542-10.1797L84.9512-27.2617C88.5059-29.3564 89.9863-31.0635 89.9863-33.6748C89.9863-36.2861 88.5059-37.9932 84.9512-40.0479L75.9678-45.2969ZM49.876-27.1719C51.6465-27.1719 53.3594-27.7793 55.542-29.0303L84.9512-46.1123C88.5059-48.207 89.9863-49.9141 89.9863-52.5254C89.9863-55.0967 88.5059-56.8438 84.9512-58.8984L55.542-75.9805C53.3594-77.2715 51.6465-77.8389 49.876-77.8389C48.1055-77.8389 46.3926-77.2715 44.21-75.9805L14.8008-58.8984C11.2461-56.8438 9.76562-55.0967 9.76562-52.5254C9.76562-49.9141 11.2461-48.207 14.8008-46.1123L44.21-29.0303C46.3926-27.7793 48.1055-27.1719 49.876-27.1719Z"/>
  </g>
  <g id="Regular-S" transform="matrix(1 0 0 1 1400.38 696)">
   <path d="M69.1406-22.2656L79.7852-16.2109C79.9316-16.1621 79.9805-16.1133 79.9805-15.9668C79.9805-15.8691 79.9316-15.7715 79.7852-15.7227L51.2695 0.537109C50.5859 0.927734 50.0488 1.12305 49.4629 1.12305C48.877 1.12305 48.3398 0.927734 47.6562 0.537109L19.1406-15.7227C18.9941-15.7715 18.9453-15.8691 18.9453-15.9668C18.9453-16.1133 18.9941-16.1621 19.1406-16.2109L30.7617-22.8027L23.4375-27.002L14.502-21.8262C11.0352-19.7754 9.76562-18.2617 9.76562-15.9668C9.76562-13.6719 11.0352-12.1582 14.502-10.1562L44.043 7.08008C46.0938 8.25195 47.7539 8.78906 49.4629 8.78906C51.1719 8.78906 52.832 8.25195 54.8828 7.08008L84.4238-10.1562C87.8906-12.1582 89.1602-13.6719 89.1602-15.9668C89.1602-18.2617 87.8906-19.7754 84.4238-21.8262L75.9766-26.7578ZM68.3105-40.1367L79.7852-33.5938C79.9316-33.4961 79.9805-33.4473 79.9805-33.3496C79.9805-33.2031 79.9316-33.1543 79.7852-33.1055L51.2695-16.7969C50.5859-16.4551 50.0488-16.2598 49.4629-16.2598C48.877-16.2598 48.3398-16.4551 47.6562-16.7969L19.1406-33.1055C18.9941-33.1543 18.9453-33.2031 18.9453-33.3496C18.9453-33.4473 18.9941-33.4961 19.1406-33.5938L31.7383-40.7715L24.707-45.0684L14.502-39.1602C11.0352-37.1582 9.76562-35.6445 9.76562-33.3496C9.76562-31.0547 11.0352-29.541 14.502-27.4902L44.043-10.3027C46.0938-9.13086 47.7539-8.59375 49.4629-8.59375C51.1719-8.59375 52.832-9.13086 54.8828-10.3027L84.4238-27.4902C87.8906-29.541 89.1602-31.0547 89.1602-33.3496C89.1602-35.6445 87.8906-37.1582 84.4238-39.1602L75.0977-44.6289ZM49.4629-27.2949C51.1719-27.2949 52.832-27.832 54.8828-29.0039L84.4238-46.1914C87.8906-48.2422 89.1602-49.7559 89.1602-52.0508C89.1602-54.2969 87.8906-55.8594 84.4238-57.8613L54.8828-75.0488C52.832-76.2695 51.1719-76.7578 49.4629-76.7578C47.7539-76.7578 46.0938-76.2695 44.043-75.0488L14.502-57.8613C11.0352-55.8594 9.76562-54.2969 9.76562-52.0508C9.76562-49.7559 11.0352-48.2422 14.502-46.1914L44.043-29.0039C46.0938-27.832 47.7539-27.2949 49.4629-27.2949Z"/>
  </g>
  <g id="Light-S" transform="matrix(1 0 0 1 1104.78 696)">
   <path d="M68.0659-23.3403L79.5581-16.771C79.7954-16.6616 79.9351-16.5371 79.9351-16.2695C79.9351-16.0508 79.7954-15.8926 79.5581-15.7832L49.9375 1.15771C49.3296 1.50293 48.8682 1.6831 48.3428 1.6831C47.8174 1.6831 47.3711 1.50293 46.7632 1.15771L17.1426-15.7832C16.9053-15.8926 16.7656-16.0508 16.7656-16.2695C16.7656-16.5371 16.9053-16.6616 17.1426-16.771L29.4146-23.7563L23.7554-26.9717L13.6846-21.145C10.8838-19.5029 9.76562-18.2314 9.76562-16.2695C9.76562-14.3227 10.8838-13.0513 13.6846-11.4429L43.9067 6.12647C45.5942 7.08643 46.9365 7.563 48.3428 7.563C49.7642 7.563 51.1065 7.08643 52.794 6.12647L83.0161-11.4429C85.8169-13.0513 86.9351-14.3227 86.9351-16.2695C86.9351-18.2314 85.8169-19.5029 83.0161-21.145L73.3579-26.7578ZM67.2207-41.6655L79.5581-34.6079C79.7954-34.4648 79.9351-34.3403 79.9351-34.1216C79.9351-33.8691 79.7954-33.7446 79.5581-33.6352L49.9375-16.6606C49.3296-16.3491 48.8682-16.1689 48.3428-16.1689C47.8174-16.1689 47.3711-16.3491 46.7632-16.6606L17.1426-33.6352C16.9053-33.7446 16.7656-33.8691 16.7656-34.1216C16.7656-34.3403 16.9053-34.4648 17.1426-34.6079L30.2852-42.1338L24.8735-45.4316L13.6846-38.9634C10.8838-37.3398 9.76562-36.0835 9.76562-34.1216C9.76562-32.1748 10.8838-30.9033 13.6846-29.2612L43.9067-11.7256C45.5942-10.7505 46.9365-10.2739 48.3428-10.2739C49.7642-10.2739 51.1065-10.7505 52.794-11.7256L83.0161-29.2612C85.8169-30.9033 86.9351-32.1748 86.9351-34.1216C86.9351-36.0835 85.8169-37.3398 83.0161-38.9634L72.479-45.0981ZM48.3428-29.2324C49.7642-29.2324 51.1065-29.709 52.794-30.6689L83.0161-48.2046C85.8169-49.8467 86.9351-51.1182 86.9351-53.0649C86.9351-54.9932 85.8169-56.2983 83.0161-57.9067L52.794-75.4424C51.1065-76.436 49.7642-76.8789 48.3428-76.8789C46.9365-76.8789 45.5942-76.436 43.9067-75.4424L13.6846-57.9067C10.8838-56.2983 9.76562-54.9932 9.76562-53.0649C9.76562-51.1182 10.8838-49.8467 13.6846-48.2046L43.9067-30.6689C45.5942-29.709 46.9365-29.2324 48.3428-29.2324Z"/>
  </g>
  <g id="Thin-S" transform="matrix(1 0 0 1 809.543 696)">
   <path d="M66.6446-24.7617L79.2578-17.5117C79.6152-17.3223 79.875-17.0976 79.875-16.6699C79.875-16.291 79.6152-16.0527 79.2578-15.8633L48.1758 1.9785C47.668 2.26366 47.3067 2.42382 46.8613 2.42382C46.416 2.42382 46.0899 2.26366 45.582 1.9785L14.5-15.8633C14.1426-16.0527 13.8829-16.291 13.8829-16.6699C13.8829-17.0976 14.1426-17.3223 14.5-17.5117L27.6328-25.0176L24.1758-26.9316L12.6035-20.2442C10.6836-19.1426 9.76562-18.1914 9.76562-16.6699C9.76562-15.1836 10.6836-14.2324 12.6035-13.1445L43.7266 4.86525C44.9336 5.54494 45.8555 5.94143 46.8613 5.94143C47.9024 5.94143 48.8243 5.54494 50.0313 4.86525L81.1543-13.1445C83.0743-14.2324 83.9922-15.1836 83.9922-16.6699C83.9922-18.1914 83.0743-19.1426 81.1543-20.2442L69.8946-26.7578ZM65.7793-43.6875L79.2578-35.9492C79.6152-35.7461 79.875-35.5215 79.875-35.1426C79.875-34.75 79.6152-34.5254 79.2578-34.3359L48.1758-16.4805C47.668-16.209 47.3067-16.0488 46.8613-16.0488C46.416-16.0488 46.0899-16.209 45.582-16.4805L14.5-34.3359C14.1426-34.5254 13.8829-34.75 13.8829-35.1426C13.8829-35.5215 14.1426-35.7461 14.5-35.9492L28.3633-43.9355L25.0937-45.9121L12.6035-38.7031C10.6836-37.5801 9.76562-36.6641 9.76562-35.1426C9.76562-33.6562 10.6836-32.7051 12.6035-31.6035L43.7266-13.6074C44.9336-12.8925 45.8555-12.4961 46.8613-12.4961C47.9024-12.4961 48.8243-12.8925 50.0313-13.6074L81.1543-31.6035C83.0743-32.7051 83.9922-33.6562 83.9922-35.1426C83.9922-36.6641 83.0743-37.5801 81.1543-38.7031L69.0157-45.7187ZM46.8613-31.7949C47.9024-31.7949 48.8243-32.1914 50.0313-32.8711L81.1543-50.8672C83.0743-51.9687 83.9922-52.9199 83.9922-54.4062C83.9922-55.914 83.0743-56.8789 81.1543-57.9668L50.0313-75.9629C48.8243-76.6562 47.9024-77.0391 46.8613-77.0391C45.8555-77.0391 44.9336-76.6562 43.7266-75.9629L12.6035-57.9668C10.6836-56.8789 9.76562-55.914 9.76562-54.4062C9.76562-52.9199 10.6836-51.9687 12.6035-50.8672L43.7266-32.8711C44.9336-32.1914 45.8555-31.7949 46.8613-31.7949Z"/>
  </g>
  <g id="Ultralight-S" transform="matrix(1 0 0 1 513.586 696)">
   <path d="M65.9165-25.4897L79.104-17.8911C79.523-17.6606 79.8442-17.3848 79.8442-16.875C79.8442-16.4141 79.523-16.1348 79.104-15.9043L47.2735 2.39891C46.8169 2.65331 46.5069 2.80321 46.1026 2.80321C45.6983 2.80321 45.4336 2.65331 44.9771 2.39891L13.1465-15.9043C12.7276-16.1348 12.4063-16.4141 12.4063-16.875C12.4063-17.3848 12.7276-17.6606 13.1465-17.8911L26.7202-25.6636L24.3911-26.9111L12.0498-19.7827C10.5811-18.958 9.76562-18.1709 9.76562-16.875C9.76562-15.6245 10.5811-14.8374 12.0498-14.0161L43.6343 4.21926C44.5952 4.7554 45.3018 5.11087 46.1026 5.11087C46.9488 5.11087 47.6553 4.7554 48.6163 4.21926L80.2007-14.0161C81.6695-14.8374 82.4849-15.6245 82.4849-16.875C82.4849-18.1709 81.6695-18.958 80.2007-19.7827L68.1207-26.7578ZM65.041-44.7231L79.104-36.6362C79.523-36.4023 79.8442-36.1264 79.8442-35.6655C79.8442-35.2012 79.523-34.9253 79.104-34.6948L47.2735-16.3882C46.8169-16.1372 46.5069-15.9873 46.1026-15.9873C45.6983-15.9873 45.4336-16.1372 44.9771-16.3882L13.1465-34.6948C12.7276-34.9253 12.4063-35.2012 12.4063-35.6655C12.4063-36.1264 12.7276-36.4023 13.1465-36.6362L27.3789-44.8584L25.2065-46.1582L12.0498-38.5698C10.5811-37.7031 9.76562-36.9614 9.76562-35.6655C9.76562-34.415 10.5811-33.6279 12.0498-32.8032L43.6343-14.5713C44.5952-13.9897 45.3018-13.6342 46.1026-13.6342C46.9488-13.6342 47.6553-13.9897 48.6163-14.5713L80.2007-32.8032C81.6695-33.6279 82.4849-34.415 82.4849-35.6655C82.4849-36.9614 81.6695-37.7031 80.2007-38.5698L67.2418-46.0366ZM46.1026-33.1074C46.9488-33.1074 47.6553-33.4628 48.6163-33.999L80.2007-52.2309C81.6695-53.0556 82.4849-53.8427 82.4849-55.0932C82.4849-56.3857 81.6695-57.1763 80.2007-57.9976L48.6163-76.2295C47.6553-76.769 46.9488-77.1211 46.1026-77.1211C45.3018-77.1211 44.5952-76.769 43.6343-76.2295L12.0498-57.9976C10.5811-57.1763 9.76562-56.3857 9.76562-55.0932C9.76562-53.8427 10.5811-53.0556 12.0498-52.2309L43.6343-33.999C44.5952-33.4628 45.3018-33.1074 46.1026-33.1074Z"/>
  </g>
 </g>
</svg>
