<?xml version="1.0" ?>
<!-- Uploaded to: SVG Repo, www.svgrepo.com, Generator: SVG Repo Mixer Tools -->
<svg width="800px" height="800px" viewBox="0 0 20 20" version="1.1" xmlns="http://www.w3.org/2000/svg">
<g id="layer1">
<path d="M 6 0.29296875 L 5.2929688 1 L 7.7929688 3.5019531 L 0.29296875 11 L 9 19.708984 L 18.707031 10 L 10 1.2929688 L 8.5 2.7929688 L 6 0.29296875 z M 10 2.7070312 L 17.294922 10 L 2.7070312 10 L 8.5 4.2070312 L 12.365234 8.0703125 L 13.072266 7.3652344 L 9.2089844 3.5019531 L 10 2.7070312 z M 18.5 10.5 L 17.203125 12.75 L 17.099609 12.960938 L 17.035156 13.183594 L 17.003906 13.412109 L 17.005859 13.644531 L 17.046875 13.875 L 17.123047 14.09375 L 17.230469 14.300781 L 17.371094 14.486328 L 17.537109 14.650391 L 17.724609 14.785156 L 17.933594 14.888672 L 18.154297 14.958984 L 18.382812 14.996094 L 18.617188 14.996094 L 18.845703 14.958984 L 19.066406 14.888672 L 19.275391 14.785156 L 19.462891 14.650391 L 19.630859 14.486328 L 19.769531 14.300781 L 19.876953 14.09375 L 19.953125 13.875 L 19.994141 13.644531 L 19.998047 13.412109 L 19.966797 13.183594 L 19.900391 12.960938 L 19.800781 12.75 L 18.5 10.5 z M 1.7070312 11 L 16.294922 11 L 9 18.292969 L 1.7070312 11 z M 18.5 12.501953 L 18.933594 13.25 L 18.984375 13.371094 L 19 13.501953 L 18.984375 13.630859 L 18.933594 13.75 L 18.853516 13.853516 L 18.751953 13.933594 L 18.628906 13.982422 L 18.5 14.001953 L 18.371094 13.982422 L 18.251953 13.933594 L 18.146484 13.853516 L 18.068359 13.75 L 18.017578 13.630859 L 18 13.501953 L 18.017578 13.371094 L 18.068359 13.25 L 18.5 12.501953 z " style="fill:#222222; fill-opacity:1; stroke:none; stroke-width:0px;"/>
</g>
</svg>