<?xml version="1.0" encoding="UTF-8"?>
<!--Generator: Apple Native CoreSVG 232.5-->
<!DOCTYPE svg
PUBLIC "-//W3C//DTD SVG 1.1//EN"
       "http://www.w3.org/Graphics/SVG/1.1/DTD/svg11.dtd">
<svg version="1.1" xmlns="http://www.w3.org/2000/svg" xmlns:xlink="http://www.w3.org/1999/xlink" width="3300" height="2200">
 <!--glyph: "uni10070E.medium", point size: 100.0, font version: "19.0d7e1", template writer version: "128"-->
 <style>.monochrome-0 {-sfsymbols-motion-group:1}
.monochrome-1 {-sfsymbols-motion-group:0}

.multicolor-0:tintColor {-sfsymbols-motion-group:1}
.multicolor-1:tintColor {-sfsymbols-motion-group:0}

.hierarchical-0:primary {-sfsymbols-motion-group:1}
.hierarchical-1:secondary {-sfsymbols-motion-group:0}

.SFSymbolsPreviewWireframe {fill:none;opacity:1.0;stroke:black;stroke-width:0.5}
</style>
 <g id="Notes">
  <rect height="2200" id="artboard" style="fill:white;opacity:1" width="3300" x="0" y="0"/>
  <line style="fill:none;stroke:black;opacity:1;stroke-width:0.5;" x1="263" x2="3036" y1="292" y2="292"/>
  <text style="stroke:none;fill:black;font-family:sans-serif;font-size:13;font-weight:bold;" transform="matrix(1 0 0 1 263 322)">Weight/Scale Variations</text>
  <text style="stroke:none;fill:black;font-family:sans-serif;font-size:13;text-anchor:middle;" transform="matrix(1 0 0 1 559.711 322)">Ultralight</text>
  <text style="stroke:none;fill:black;font-family:sans-serif;font-size:13;text-anchor:middle;" transform="matrix(1 0 0 1 856.422 322)">Thin</text>
  <text style="stroke:none;fill:black;font-family:sans-serif;font-size:13;text-anchor:middle;" transform="matrix(1 0 0 1 1153.13 322)">Light</text>
  <text style="stroke:none;fill:black;font-family:sans-serif;font-size:13;text-anchor:middle;" transform="matrix(1 0 0 1 1449.84 322)">Regular</text>
  <text style="stroke:none;fill:black;font-family:sans-serif;font-size:13;text-anchor:middle;" transform="matrix(1 0 0 1 1746.56 322)">Medium</text>
  <text style="stroke:none;fill:black;font-family:sans-serif;font-size:13;text-anchor:middle;" transform="matrix(1 0 0 1 2043.27 322)">Semibold</text>
  <text style="stroke:none;fill:black;font-family:sans-serif;font-size:13;text-anchor:middle;" transform="matrix(1 0 0 1 2339.98 322)">Bold</text>
  <text style="stroke:none;fill:black;font-family:sans-serif;font-size:13;text-anchor:middle;" transform="matrix(1 0 0 1 2636.69 322)">Heavy</text>
  <text style="stroke:none;fill:black;font-family:sans-serif;font-size:13;text-anchor:middle;" transform="matrix(1 0 0 1 2933.4 322)">Black</text>
  <line style="fill:none;stroke:black;opacity:1;stroke-width:0.5;" x1="263" x2="3036" y1="1903" y2="1903"/>
  <g transform="matrix(0.2 0 0 0.2 263 1933)">
   <path d="m46.2402 4.15039c21.5332 0 39.4531-17.8711 39.4531-39.4043s-17.9688-39.4043-39.502-39.4043c-21.4844 0-39.3555 17.8711-39.3555 39.4043s17.9199 39.4043 39.4043 39.4043Zm0-7.42188c-17.7246 0-31.8848-14.209-31.8848-31.9824s14.1113-31.9824 31.8359-31.9824c17.7734 0 32.0312 14.209 32.0312 31.9824s-14.209 31.9824-31.9824 31.9824Zm-17.9688-31.9824c0 2.14844 1.51367 3.61328 3.75977 3.61328h10.498v10.5957c0 2.19727 1.46484 3.71094 3.61328 3.71094 2.24609 0 3.71094-1.51367 3.71094-3.71094v-10.5957h10.5957c2.19727 0 3.71094-1.46484 3.71094-3.61328 0-2.19727-1.51367-3.71094-3.71094-3.71094h-10.5957v-10.5469c0-2.24609-1.46484-3.75977-3.71094-3.75977-2.14844 0-3.61328 1.51367-3.61328 3.75977v10.5469h-10.498c-2.24609 0-3.75977 1.51367-3.75977 3.71094Z"/>
  </g>
  <g transform="matrix(0.2 0 0 0.2 281.506 1933)">
   <path d="m58.5449 14.5508c27.2461 0 49.8047-22.6074 49.8047-49.8047 0-27.2461-22.6074-49.8047-49.8535-49.8047-27.1973 0-49.7559 22.5586-49.7559 49.8047 0 27.1973 22.6074 49.8047 49.8047 49.8047Zm0-8.30078c-23.0469 0-41.4551-18.457-41.4551-41.5039s18.3594-41.5039 41.4062-41.5039 41.5527 18.457 41.5527 41.5039-18.457 41.5039-41.5039 41.5039Zm-22.6562-41.5039c0 2.39258 1.66016 4.00391 4.15039 4.00391h14.3555v14.4043c0 2.44141 1.66016 4.15039 4.05273 4.15039 2.44141 0 4.15039-1.66016 4.15039-4.15039v-14.4043h14.4043c2.44141 0 4.15039-1.61133 4.15039-4.00391 0-2.44141-1.70898-4.15039-4.15039-4.15039h-14.4043v-14.3555c0-2.49023-1.70898-4.19922-4.15039-4.19922-2.39258 0-4.05273 1.70898-4.05273 4.19922v14.3555h-14.3555c-2.49023 0-4.15039 1.70898-4.15039 4.15039Z"/>
  </g>
  <g transform="matrix(0.2 0 0 0.2 304.924 1933)">
   <path d="m74.8535 28.3203c34.8145 0 63.623-28.8086 63.623-63.5742 0-34.8145-28.8574-63.623-63.6719-63.623-34.7656 0-63.5254 28.8086-63.5254 63.623 0 34.7656 28.8086 63.5742 63.5742 63.5742Zm0-9.08203c-30.1758 0-54.4434-24.3164-54.4434-54.4922 0-30.2246 24.2188-54.4922 54.3945-54.4922 30.2246 0 54.541 24.2676 54.541 54.4922 0 30.1758-24.2676 54.4922-54.4922 54.4922Zm-28.8574-54.4922c0 2.58789 1.85547 4.39453 4.58984 4.39453h19.7266v19.7754c0 2.68555 1.85547 4.58984 4.44336 4.58984 2.68555 0 4.54102-1.85547 4.54102-4.58984v-19.7754h19.7754c2.68555 0 4.58984-1.80664 4.58984-4.39453 0-2.73438-1.85547-4.58984-4.58984-4.58984h-19.7754v-19.7266c0-2.73438-1.85547-4.63867-4.54102-4.63867-2.58789 0-4.44336 1.9043-4.44336 4.63867v19.7266h-19.7266c-2.73438 0-4.58984 1.85547-4.58984 4.58984Z"/>
  </g>
  <text style="stroke:none;fill:black;font-family:sans-serif;font-size:13;font-weight:bold;" transform="matrix(1 0 0 1 263 1953)">Design Variations</text>
  <text style="stroke:none;fill:black;font-family:sans-serif;font-size:13;" transform="matrix(1 0 0 1 263 1971)">Symbols are supported in up to nine weights and three scales.</text>
  <text style="stroke:none;fill:black;font-family:sans-serif;font-size:13;" transform="matrix(1 0 0 1 263 1989)">For optimal layout with text and other symbols, vertically align</text>
  <text style="stroke:none;fill:black;font-family:sans-serif;font-size:13;" transform="matrix(1 0 0 1 263 2007)">symbols with the adjacent text.</text>
  <line style="fill:none;stroke:#00AEEF;stroke-width:0.5;opacity:1.0;" x1="776" x2="776" y1="1919" y2="1933"/>
  <g transform="matrix(0.2 0 0 0.2 776 1933)">
   <path d="m16.5527 0.78125c2.58789 0 3.85742-0.976562 4.78516-3.71094l6.29883-17.2363h28.8086l6.29883 17.2363c0.927734 2.73438 2.19727 3.71094 4.73633 3.71094 2.58789 0 4.24805-1.5625 4.24805-4.00391 0-0.830078-0.146484-1.61133-0.537109-2.63672l-22.9004-60.9863c-1.12305-2.97852-3.125-4.49219-6.25-4.49219-3.02734 0-5.07812 1.46484-6.15234 4.44336l-22.9004 61.084c-0.390625 1.02539-0.537109 1.80664-0.537109 2.63672 0 2.44141 1.5625 3.95508 4.10156 3.95508Zm13.4766-28.3691 11.8652-32.8613h0.244141l11.8652 32.8613Z"/>
  </g>
  <line style="fill:none;stroke:#00AEEF;stroke-width:0.5;opacity:1.0;" x1="792.836" x2="792.836" y1="1919" y2="1933"/>
  <text style="stroke:none;fill:black;font-family:sans-serif;font-size:13;font-weight:bold;" transform="matrix(1 0 0 1 776 1953)">Margins</text>
  <text style="stroke:none;fill:black;font-family:sans-serif;font-size:13;" transform="matrix(1 0 0 1 776 1971)">Leading and trailing margins on the left and right side of each symbol</text>
  <text style="stroke:none;fill:black;font-family:sans-serif;font-size:13;" transform="matrix(1 0 0 1 776 1989)">can be adjusted by modifying the x-location of the margin guidelines.</text>
  <text style="stroke:none;fill:black;font-family:sans-serif;font-size:13;" transform="matrix(1 0 0 1 776 2007)">Modifications are automatically applied proportionally to all</text>
  <text style="stroke:none;fill:black;font-family:sans-serif;font-size:13;" transform="matrix(1 0 0 1 776 2025)">scales and weights.</text>
  <g transform="matrix(0.2 0 0 0.2 1289 1933)">
   <path d="m14.209 9.32617 8.49609 8.54492c4.29688 4.3457 9.22852 4.05273 13.8672-1.07422l53.4668-58.9355-4.83398-4.88281-53.0762 58.3984c-1.75781 2.00195-3.41797 2.49023-5.76172 0.146484l-5.85938-5.81055c-2.34375-2.29492-1.80664-4.00391 0.195312-5.81055l57.373-54.0039-4.88281-4.83398-57.959 54.4434c-4.93164 4.58984-5.32227 9.47266-1.02539 13.8184Zm32.0801-90.9668c-2.09961 2.05078-2.24609 4.93164-1.07422 6.88477 1.17188 1.80664 3.4668 2.97852 6.68945 2.14844 7.32422-1.70898 14.9414-2.00195 22.0703 2.68555l-2.92969 7.27539c-1.70898 4.15039-0.830078 7.08008 1.85547 9.81445l11.4746 11.5723c2.44141 2.44141 4.49219 2.53906 7.32422 2.05078l5.32227-0.976562 3.32031 3.36914-0.195312 2.7832c-0.195312 2.49023 0.439453 4.39453 2.88086 6.78711l3.80859 3.71094c2.39258 2.39258 5.46875 2.53906 7.8125 0.195312l14.5508-14.5996c2.34375-2.34375 2.24609-5.32227-0.146484-7.71484l-3.85742-3.80859c-2.39258-2.39258-4.24805-3.17383-6.64062-2.97852l-2.88086 0.244141-3.22266-3.17383 1.2207-5.61523c0.634766-2.83203-0.146484-5.0293-3.07617-7.95898l-10.9863-10.9375c-16.6992-16.6016-38.8672-16.2109-53.3203-1.75781Zm7.4707 1.85547c12.1582-8.88672 28.6133-7.37305 39.7461 3.75977l12.1582 12.0605c1.17188 1.17188 1.36719 2.09961 1.02539 3.80859l-1.61133 7.42188 7.51953 7.42188 4.93164-0.292969c1.26953-0.0488281 1.66016 0.0488281 2.63672 1.02539l2.88086 2.88086-12.207 12.207-2.88086-2.88086c-0.976562-0.976562-1.12305-1.36719-1.07422-2.68555l0.341797-4.88281-7.4707-7.42188-7.61719 1.26953c-1.61133 0.341797-2.34375 0.195312-3.56445-0.976562l-10.0098-10.0098c-1.26953-1.17188-1.41602-2.00195-0.634766-3.85742l4.39453-10.4492c-7.8125-7.27539-17.9688-10.4004-28.125-7.42188-0.78125 0.195312-1.07422-0.439453-0.439453-0.976562Z"/>
  </g>
  <text style="stroke:none;fill:black;font-family:sans-serif;font-size:13;font-weight:bold;" transform="matrix(1 0 0 1 1289 1953)">Exporting</text>
  <text style="stroke:none;fill:black;font-family:sans-serif;font-size:13;" transform="matrix(1 0 0 1 1289 1971)">Symbols should be outlined when exporting to ensure the</text>
  <text style="stroke:none;fill:black;font-family:sans-serif;font-size:13;" transform="matrix(1 0 0 1 1289 1989)">design is preserved when submitting to Xcode.</text>
  <text id="template-version" style="stroke:none;fill:black;font-family:sans-serif;font-size:13;text-anchor:end;" transform="matrix(1 0 0 1 3036 1933)">Template v.5.0</text>
  <text style="stroke:none;fill:black;font-family:sans-serif;font-size:13;text-anchor:end;" transform="matrix(1 0 0 1 3036 1951)">Requires Xcode 15 or greater</text>
  <text id="descriptive-name" style="stroke:none;fill:black;font-family:sans-serif;font-size:13;text-anchor:end;" transform="matrix(1 0 0 1 3036 1969)">Generated from wand.and.stars.inverse</text>
  <text style="stroke:none;fill:black;font-family:sans-serif;font-size:13;text-anchor:end;" transform="matrix(1 0 0 1 3036 1987)">Typeset at 100.0 points</text>
  <text style="stroke:none;fill:black;font-family:sans-serif;font-size:13;" transform="matrix(1 0 0 1 263 726)">Small</text>
  <text style="stroke:none;fill:black;font-family:sans-serif;font-size:13;" transform="matrix(1 0 0 1 263 1156)">Medium</text>
  <text style="stroke:none;fill:black;font-family:sans-serif;font-size:13;" transform="matrix(1 0 0 1 263 1586)">Large</text>
 </g>
 <g id="Guides">
  <g id="H-reference" style="fill:#27AAE1;stroke:none;" transform="matrix(1 0 0 1 339 696)">
   <path d="M0.993654 0L3.63775 0L29.3281-67.1323L30.0303-67.1323L30.0303-70.459L28.1226-70.459ZM11.6885-24.4799L46.9815-24.4799L46.2315-26.7285L12.4385-26.7285ZM55.1196 0L57.7637 0L30.6382-70.459L29.4326-70.459L29.4326-67.1323Z"/>
  </g>
  <line id="Baseline-S" style="fill:none;stroke:#27AAE1;opacity:1;stroke-width:0.5;" x1="263" x2="3036" y1="696" y2="696"/>
  <line id="Capline-S" style="fill:none;stroke:#27AAE1;opacity:1;stroke-width:0.5;" x1="263" x2="3036" y1="625.541" y2="625.541"/>
  <g id="H-reference" style="fill:#27AAE1;stroke:none;" transform="matrix(1 0 0 1 339 1126)">
   <path d="M0.993654 0L3.63775 0L29.3281-67.1323L30.0303-67.1323L30.0303-70.459L28.1226-70.459ZM11.6885-24.4799L46.9815-24.4799L46.2315-26.7285L12.4385-26.7285ZM55.1196 0L57.7637 0L30.6382-70.459L29.4326-70.459L29.4326-67.1323Z"/>
  </g>
  <line id="Baseline-M" style="fill:none;stroke:#27AAE1;opacity:1;stroke-width:0.5;" x1="263" x2="3036" y1="1126" y2="1126"/>
  <line id="Capline-M" style="fill:none;stroke:#27AAE1;opacity:1;stroke-width:0.5;" x1="263" x2="3036" y1="1055.54" y2="1055.54"/>
  <g id="H-reference" style="fill:#27AAE1;stroke:none;" transform="matrix(1 0 0 1 339 1556)">
   <path d="M0.993654 0L3.63775 0L29.3281-67.1323L30.0303-67.1323L30.0303-70.459L28.1226-70.459ZM11.6885-24.4799L46.9815-24.4799L46.2315-26.7285L12.4385-26.7285ZM55.1196 0L57.7637 0L30.6382-70.459L29.4326-70.459L29.4326-67.1323Z"/>
  </g>
  <line id="Baseline-L" style="fill:none;stroke:#27AAE1;opacity:1;stroke-width:0.5;" x1="263" x2="3036" y1="1556" y2="1556"/>
  <line id="Capline-L" style="fill:none;stroke:#27AAE1;opacity:1;stroke-width:0.5;" x1="263" x2="3036" y1="1485.54" y2="1485.54"/>
  <line id="left-margin-Ultralight-S" style="fill:none;stroke:#00AEEF;stroke-width:0.5;opacity:1.0;" x1="512.633" x2="512.633" y1="600.785" y2="720.121"/>
  <line id="right-margin-Ultralight-S" style="fill:none;stroke:#00AEEF;stroke-width:0.5;opacity:1.0;" x1="606.789" x2="606.789" y1="600.785" y2="720.121"/>
  <line id="left-margin-Regular-S" style="fill:none;stroke:#00AEEF;stroke-width:0.5;opacity:1.0;" x1="1401.04" x2="1401.04" y1="600.785" y2="720.121"/>
  <line id="right-margin-Regular-S" style="fill:none;stroke:#00AEEF;stroke-width:0.5;opacity:1.0;" x1="1498.65" x2="1498.65" y1="600.785" y2="720.121"/>
  <line id="left-margin-Black-S" style="fill:none;stroke:#00AEEF;stroke-width:0.5;opacity:1.0;" x1="2879.96" x2="2879.96" y1="600.785" y2="720.121"/>
  <line id="right-margin-Black-S" style="fill:none;stroke:#00AEEF;stroke-width:0.5;opacity:1.0;" x1="2986.84" x2="2986.84" y1="600.785" y2="720.121"/>
 </g>
 <g id="Symbols">
  <g id="Black-S" transform="matrix(1 0 0 1 2879.96 696)">
   <path class="monochrome-0 multicolor-0:tintColor hierarchical-0:primary SFSymbolsPreviewWireframe" d="M86.3281 4.83398C89.3555 7.91016 94.5801 7.91016 97.7051 4.83398C100.781 1.70898 100.781-3.41797 97.7051-6.54297L61.4258-43.3105C58.3984-46.3867 53.1738-46.3867 50.0488-43.3105C46.9727-40.1855 46.9727-35.0586 50.0488-31.9336ZM90.0391-0.195312L77.3926-12.8906L80.8105-16.5039L93.6523-3.71094C94.873-2.49023 95.4102-0.830078 94.1406 0.390625C92.9688 1.51367 91.3086 1.07422 90.0391-0.195312Z"/>
   <path class="monochrome-1 multicolor-1:tintColor hierarchical-1:secondary SFSymbolsPreviewWireframe" d="M39.6484 7.42188C40.918 7.42188 41.8945 6.54297 42.041 5.17578C43.2129-5.56641 43.6035-6.15234 54.7852-7.61719C56.2988-7.8125 57.1777-8.74023 57.1777-10.0098C57.1777-11.2305 56.2988-12.1582 55.0781-12.4023C43.5059-14.6973 43.1641-14.5508 42.041-25.1953C41.8945-26.5625 40.918-27.4414 39.6484-27.4414C38.3789-27.4414 37.4023-26.5625 37.2559-25.2441C36.0352-14.1602 35.6445-13.7695 24.2676-12.4023C23.0469-12.2559 22.1191-11.2305 22.1191-10.0098C22.1191-8.78906 22.998-7.86133 24.2188-7.61719C35.791-5.32227 36.0352-5.37109 37.2559 5.27344C37.4023 6.54297 38.4277 7.42188 39.6484 7.42188ZM20.0195-28.418C20.9961-28.418 21.7285-29.1504 21.8262-30.127C22.6562-38.3301 22.998-38.3301 31.3965-39.7461C32.5684-39.9414 33.2031-40.5762 33.2031-41.5527C33.2031-42.5293 32.5684-43.1641 31.5918-43.3594C22.9004-45.1172 22.9492-45.0684 21.8262-52.9297C21.6797-53.9551 20.9961-54.6875 20.0195-54.6875C19.043-54.6875 18.3105-53.9551 18.2129-52.9785C17.3828-44.5801 17.0898-44.6289 8.49609-43.3594C7.51953-43.2129 6.83594-42.5293 6.83594-41.5527C6.83594-40.5762 7.4707-39.9414 8.44727-39.7461C17.0898-38.0371 16.8945-37.9883 18.2129-30.0293C18.3594-29.1504 19.043-28.418 20.0195-28.418ZM41.6504-56.3477C42.5293-56.3477 43.1641-56.9824 43.3105-57.8613C44.5312-65.2832 44.3848-65.2344 52.002-66.6016C53.0762-66.7969 53.6621-67.3828 53.6621-68.2617C53.6621-69.1406 53.0762-69.7266 52.1484-69.9219C44.2383-71.582 44.043-71.4355 43.3105-78.6133C43.2129-79.541 42.5293-80.1758 41.6504-80.1758C40.7715-80.1758 40.1367-79.541 39.9902-78.6621C38.7207-71.0938 39.0137-70.8008 31.2012-69.9219C30.3223-69.8242 29.6387-69.1406 29.6387-68.2617C29.6387-67.3828 30.2246-66.7969 31.1523-66.6016C39.0137-64.9414 39.1113-65.0879 39.9902-57.8125C40.0879-56.9824 40.7715-56.3477 41.6504-56.3477ZM79.541-42.2363C80.5176-42.2363 81.2012-42.9199 81.3965-43.8965C83.0078-52.002 82.5195-52.0996 90.918-53.5156C92.0898-53.7109 92.7734-54.3457 92.7734-55.3223C92.7734-56.2988 92.0898-56.9336 91.1133-57.1289C82.4219-58.8867 82.1289-58.7891 81.3965-66.6992C81.2988-67.7246 80.5176-68.4082 79.541-68.4082C78.5645-68.4082 77.8809-67.7246 77.7344-66.748C76.4648-58.3984 76.6602-58.0078 68.0664-57.1289C67.0898-57.0312 66.3086-56.2988 66.3574-55.3223C66.4062-54.3457 66.9922-53.7109 68.0176-53.5156C76.6602-51.8555 76.9043-51.8555 77.7344-43.8477C77.832-42.9199 78.5645-42.2363 79.541-42.2363Z"/>
  </g>
  <g id="Regular-S" transform="matrix(1 0 0 1 1401.04 696)">
   <path class="monochrome-0 multicolor-0:tintColor hierarchical-0:primary SFSymbolsPreviewWireframe" d="M82.959 1.5625C84.7168 3.36914 87.793 3.32031 89.4531 1.5625C91.2109-0.292969 91.1621-3.17383 89.4531-4.98047L53.2715-41.2598C51.5137-43.0664 48.4375-43.0664 46.7773-41.2598C45.0195-39.4043 45.0684-36.5234 46.7773-34.7656ZM84.4727-1.36719L61.1328-24.707L63.1836-26.709L86.5234-3.36914C87.2559-2.63672 87.4512-1.80664 86.7676-1.07422C86.0352-0.439453 85.2539-0.585938 84.4727-1.36719Z"/>
   <path class="monochrome-1 multicolor-1:tintColor hierarchical-1:secondary SFSymbolsPreviewWireframe" d="M36.2793 3.07617C37.1094 3.07617 37.6465 2.53906 37.7441 1.70898C38.916-8.54492 39.5508-8.93555 49.9023-10.498C50.8301-10.6445 51.416-11.1328 51.416-11.9629C51.416-12.793 50.8301-13.2812 50.0977-13.4277C39.6484-15.3809 38.916-15.4297 37.7441-25.6348C37.6465-26.4648 37.1094-27.0508 36.2793-27.0508C35.498-27.0508 34.9121-26.4648 34.8145-25.6836C33.5938-15.2832 33.1055-14.7949 22.5098-13.4277C21.7285-13.3301 21.1914-12.793 21.1914-11.9629C21.1914-11.1816 21.7285-10.6445 22.5098-10.498C33.1055-8.49609 33.5449-8.44727 34.8145 1.75781C34.9121 2.53906 35.498 3.07617 36.2793 3.07617ZM18.1152-30.5176C18.75-30.5176 19.0918-30.9082 19.1895-31.4941C20.5078-39.0137 20.5078-39.4043 28.418-40.7227C29.0039-40.8203 29.3945-41.1621 29.3945-41.7969C29.3945-42.4316 29.0039-42.7734 28.418-42.8711C20.5078-44.1895 20.5078-44.5801 19.1895-52.0996C19.0918-52.6855 18.75-53.0762 18.1152-53.0762C17.5293-53.0762 17.1387-52.6855 17.041-52.0996C15.7715-44.5801 15.7715-44.1895 7.8125-42.8711C7.27539-42.7734 6.83594-42.4316 6.83594-41.7969C6.83594-41.1621 7.27539-40.8203 7.8125-40.7227C15.7715-39.4043 15.7715-39.0137 17.041-31.4941C17.1387-30.9082 17.5293-30.5176 18.1152-30.5176ZM39.4043-55.4199C39.9414-55.4199 40.1855-55.7617 40.2832-56.2012C41.5527-62.4512 41.4551-62.5488 47.9492-63.8672C48.4375-63.9648 48.7793-64.2578 48.7793-64.7461C48.7793-65.2832 48.4375-65.5762 47.9492-65.6738C41.4551-66.9922 41.5527-67.041 40.2832-73.3398C40.1855-73.7793 39.9414-74.1211 39.4043-74.1211C38.916-74.1211 38.623-73.7793 38.5254-73.3398C37.2559-67.041 37.3535-66.9922 30.8594-65.6738C30.3711-65.5762 30.0781-65.2832 30.0781-64.7461C30.0781-64.2578 30.3711-63.9648 30.8594-63.8672C37.3535-62.5488 37.2559-62.4512 38.5254-56.2012C38.623-55.7617 38.916-55.4199 39.4043-55.4199ZM71.4844-41.6016C72.0703-41.6016 72.4609-42.041 72.5586-42.5781C73.8281-50.0977 73.877-50.4883 81.7871-51.8066C82.373-51.9043 82.7637-52.2949 82.7637-52.8809C82.7637-53.5156 82.373-53.8574 81.7871-53.9551C73.877-55.2734 73.8281-55.6641 72.5586-63.1836C72.4609-63.7695 72.0703-64.1602 71.4844-64.1602C70.8984-64.1602 70.5078-63.7695 70.4102-63.1836C69.1406-55.6641 69.0918-55.2734 61.1816-53.9551C60.5957-53.8574 60.2051-53.5156 60.2051-52.8809C60.2051-52.2949 60.5957-51.9043 61.1816-51.8066C69.0918-50.4883 69.1406-50.0977 70.4102-42.5781C70.5078-42.041 70.8984-41.6016 71.4844-41.6016Z"/>
  </g>
  <g id="Ultralight-S" transform="matrix(1 0 0 1 512.633 696)">
   <path class="monochrome-0 multicolor-0:tintColor hierarchical-0:primary SFSymbolsPreviewWireframe" d="M83.4585 2.83397C84.3989 3.82324 85.7949 3.729 86.6377 2.83397C87.5327 1.8867 87.6201 0.640595 86.6377-0.394079L49.5479-37.627C48.6074-38.5708 47.2114-38.5254 46.3232-37.627C45.4282-36.7251 45.4316-35.3428 46.3232-34.4478ZM84.1548 1.3574L59.3618-23.3901L60.5498-24.6201L85.3428 0.218233C85.8482 0.723606 85.9526 1.09959 85.4961 1.55955C85.0816 1.96727 84.6636 1.86619 84.1548 1.3574Z"/>
   <path class="monochrome-1 multicolor-1:tintColor hierarchical-1:secondary SFSymbolsPreviewWireframe" d="M33.9634-0.738251C34.2486-0.738251 34.4224-0.912082 34.4746-1.19724C36.1914-11.4511 36.0088-11.1606 46.4966-13.2226C46.7886-13.2783 47.0113-13.4487 47.0113-13.7793C47.0113-14.1099 46.7886-14.2349 46.5103-14.2905C36.0157-16.3799 36.1914-16.0654 34.4746-26.3159C34.4224-26.6465 34.2486-26.8237 33.9634-26.8237C33.6817-26.8237 33.459-26.6465 33.4067-26.3193C31.7319-16.0552 31.8794-16.3843 21.3745-14.2905C21.1382-14.2383 20.9189-14.1099 20.9189-13.7793C20.9189-13.4521 21.1382-13.2783 21.3745-13.2226C31.8794-11.1299 31.7285-11.4443 33.4067-1.19382C33.459-0.912082 33.6817-0.738251 33.9634-0.738251ZM15.7993-32.8335C15.98-32.8335 16.0948-32.9516 16.147-33.1743C17.647-39.1953 17.8286-40.0854 24.3765-41.4038C24.6446-41.456 24.7627-41.5708 24.7627-41.7969C24.7627-42.023 24.6446-42.1377 24.3765-42.1899C17.8286-43.5083 17.647-44.3984 16.147-50.4194C16.0948-50.6421 15.98-50.7603 15.7993-50.7603C15.6221-50.7603 15.5039-50.6421 15.4517-50.4194C13.9551-44.3984 13.8189-43.5083 7.22217-42.1899C6.95752-42.1377 6.83594-42.023 6.83594-41.7969C6.83594-41.5708 6.95752-41.456 7.22217-41.4038C13.8189-40.0854 13.9551-39.1953 15.4517-33.1743C15.5039-32.9516 15.6221-32.8335 15.7993-32.8335ZM35.3174-55.3291C35.4912-55.3291 35.5537-55.4439 35.606-55.6563C36.9663-61.0889 37.1411-61.9585 43.0904-63.1406C43.3516-63.1929 43.4209-63.3042 43.4209-63.4292C43.4209-63.603 43.3516-63.7144 43.0904-63.7666C37.1411-64.9487 36.9663-65.7695 35.606-71.251C35.5537-71.4634 35.4912-71.5781 35.3174-71.5781C35.147-71.5781 35.0811-71.4634 35.0288-71.251C33.6685-65.7695 33.5391-64.9487 27.5445-63.7666C27.3286-63.7144 27.2173-63.603 27.2173-63.4292C27.2173-63.3496 27.3286-63.1929 27.5445-63.1406C33.5391-61.9585 33.6685-61.0889 35.0288-55.6563C35.0811-55.4439 35.147-55.3291 35.3174-55.3291ZM64.8091-43.2363C64.9864-43.2363 65.0591-43.3579 65.1114-43.5317C66.6534-49.5981 66.8384-50.4883 73.3863-51.8066C73.6544-51.8589 73.7725-51.9771 73.7725-52.1997C73.7725-52.3804 73.6544-52.4951 73.3863-52.5474C66.8384-53.8657 66.6534-54.8013 65.1114-60.8223C65.0591-61.0449 64.9864-61.1631 64.8091-61.1631C64.6319-61.1631 64.5137-61.0449 64.4615-60.8223C62.9649-54.8013 62.8252-53.8657 56.232-52.5474C55.9639-52.4951 55.8457-52.3804 55.8457-52.1997C55.8457-51.9771 55.9639-51.8589 56.232-51.8066C62.8252-50.4883 62.9649-49.5981 64.4615-43.5317C64.5137-43.3579 64.6319-43.2363 64.8091-43.2363Z"/>
  </g>
 </g>
</svg>
