<?xml version="1.0" encoding="UTF-8"?>
<!--Generator: Apple Native CoreSVG 232.5-->
<!DOCTYPE svg
PUBLIC "-//W3C//DTD SVG 1.1//EN"
       "http://www.w3.org/Graphics/SVG/1.1/DTD/svg11.dtd">
<svg version="1.1" xmlns="http://www.w3.org/2000/svg" xmlns:xlink="http://www.w3.org/1999/xlink" width="3300" height="2200">
 <!--glyph: "uni101165.medium", point size: 100.0, font version: "19.0d7e1", template writer version: "128"-->
 <style>.monochrome-0 {-sfsymbols-motion-group:0}
.monochrome-1 {-sfsymbols-motion-group:0}

.multicolor-0:systemGreenColor {-sfsymbols-motion-group:0}
.multicolor-1:tertiaryLabelColor {-sfsymbols-motion-group:0}

.hierarchical-0:primary {-sfsymbols-motion-group:0}
.hierarchical-1:secondary {-sfsymbols-motion-group:0}

.SFSymbolsPreviewWireframe {fill:none;opacity:1.0;stroke:black;stroke-width:0.5}
</style>
 <g id="Notes">
  <rect height="2200" id="artboard" style="fill:white;opacity:1" width="3300" x="0" y="0"/>
  <line style="fill:none;stroke:black;opacity:1;stroke-width:0.5;" x1="263" x2="3036" y1="292" y2="292"/>
  <text style="stroke:none;fill:black;font-family:sans-serif;font-size:13;font-weight:bold;" transform="matrix(1 0 0 1 263 322)">Weight/Scale Variations</text>
  <text style="stroke:none;fill:black;font-family:sans-serif;font-size:13;text-anchor:middle;" transform="matrix(1 0 0 1 559.711 322)">Ultralight</text>
  <text style="stroke:none;fill:black;font-family:sans-serif;font-size:13;text-anchor:middle;" transform="matrix(1 0 0 1 856.422 322)">Thin</text>
  <text style="stroke:none;fill:black;font-family:sans-serif;font-size:13;text-anchor:middle;" transform="matrix(1 0 0 1 1153.13 322)">Light</text>
  <text style="stroke:none;fill:black;font-family:sans-serif;font-size:13;text-anchor:middle;" transform="matrix(1 0 0 1 1449.84 322)">Regular</text>
  <text style="stroke:none;fill:black;font-family:sans-serif;font-size:13;text-anchor:middle;" transform="matrix(1 0 0 1 1746.56 322)">Medium</text>
  <text style="stroke:none;fill:black;font-family:sans-serif;font-size:13;text-anchor:middle;" transform="matrix(1 0 0 1 2043.27 322)">Semibold</text>
  <text style="stroke:none;fill:black;font-family:sans-serif;font-size:13;text-anchor:middle;" transform="matrix(1 0 0 1 2339.98 322)">Bold</text>
  <text style="stroke:none;fill:black;font-family:sans-serif;font-size:13;text-anchor:middle;" transform="matrix(1 0 0 1 2636.69 322)">Heavy</text>
  <text style="stroke:none;fill:black;font-family:sans-serif;font-size:13;text-anchor:middle;" transform="matrix(1 0 0 1 2933.4 322)">Black</text>
  <line style="fill:none;stroke:black;opacity:1;stroke-width:0.5;" x1="263" x2="3036" y1="1903" y2="1903"/>
  <g transform="matrix(0.2 0 0 0.2 263 1933)">
   <path d="m46.2402 4.15039c21.5332 0 39.4531-17.8711 39.4531-39.4043s-17.9688-39.4043-39.502-39.4043c-21.4844 0-39.3555 17.8711-39.3555 39.4043s17.9199 39.4043 39.4043 39.4043Zm0-7.42188c-17.7246 0-31.8848-14.209-31.8848-31.9824s14.1113-31.9824 31.8359-31.9824c17.7734 0 32.0312 14.209 32.0312 31.9824s-14.209 31.9824-31.9824 31.9824Zm-17.9688-31.9824c0 2.14844 1.51367 3.61328 3.75977 3.61328h10.498v10.5957c0 2.19727 1.46484 3.71094 3.61328 3.71094 2.24609 0 3.71094-1.51367 3.71094-3.71094v-10.5957h10.5957c2.19727 0 3.71094-1.46484 3.71094-3.61328 0-2.19727-1.51367-3.71094-3.71094-3.71094h-10.5957v-10.5469c0-2.24609-1.46484-3.75977-3.71094-3.75977-2.14844 0-3.61328 1.51367-3.61328 3.75977v10.5469h-10.498c-2.24609 0-3.75977 1.51367-3.75977 3.71094Z"/>
  </g>
  <g transform="matrix(0.2 0 0 0.2 281.506 1933)">
   <path d="m58.5449 14.5508c27.2461 0 49.8047-22.6074 49.8047-49.8047 0-27.2461-22.6074-49.8047-49.8535-49.8047-27.1973 0-49.7559 22.5586-49.7559 49.8047 0 27.1973 22.6074 49.8047 49.8047 49.8047Zm0-8.30078c-23.0469 0-41.4551-18.457-41.4551-41.5039s18.3594-41.5039 41.4062-41.5039 41.5527 18.457 41.5527 41.5039-18.457 41.5039-41.5039 41.5039Zm-22.6562-41.5039c0 2.39258 1.66016 4.00391 4.15039 4.00391h14.3555v14.4043c0 2.44141 1.66016 4.15039 4.05273 4.15039 2.44141 0 4.15039-1.66016 4.15039-4.15039v-14.4043h14.4043c2.44141 0 4.15039-1.61133 4.15039-4.00391 0-2.44141-1.70898-4.15039-4.15039-4.15039h-14.4043v-14.3555c0-2.49023-1.70898-4.19922-4.15039-4.19922-2.39258 0-4.05273 1.70898-4.05273 4.19922v14.3555h-14.3555c-2.49023 0-4.15039 1.70898-4.15039 4.15039Z"/>
  </g>
  <g transform="matrix(0.2 0 0 0.2 304.924 1933)">
   <path d="m74.8535 28.3203c34.8145 0 63.623-28.8086 63.623-63.5742 0-34.8145-28.8574-63.623-63.6719-63.623-34.7656 0-63.5254 28.8086-63.5254 63.623 0 34.7656 28.8086 63.5742 63.5742 63.5742Zm0-9.08203c-30.1758 0-54.4434-24.3164-54.4434-54.4922 0-30.2246 24.2188-54.4922 54.3945-54.4922 30.2246 0 54.541 24.2676 54.541 54.4922 0 30.1758-24.2676 54.4922-54.4922 54.4922Zm-28.8574-54.4922c0 2.58789 1.85547 4.39453 4.58984 4.39453h19.7266v19.7754c0 2.68555 1.85547 4.58984 4.44336 4.58984 2.68555 0 4.54102-1.85547 4.54102-4.58984v-19.7754h19.7754c2.68555 0 4.58984-1.80664 4.58984-4.39453 0-2.73438-1.85547-4.58984-4.58984-4.58984h-19.7754v-19.7266c0-2.73438-1.85547-4.63867-4.54102-4.63867-2.58789 0-4.44336 1.9043-4.44336 4.63867v19.7266h-19.7266c-2.73438 0-4.58984 1.85547-4.58984 4.58984Z"/>
  </g>
  <text style="stroke:none;fill:black;font-family:sans-serif;font-size:13;font-weight:bold;" transform="matrix(1 0 0 1 263 1953)">Design Variations</text>
  <text style="stroke:none;fill:black;font-family:sans-serif;font-size:13;" transform="matrix(1 0 0 1 263 1971)">Symbols are supported in up to nine weights and three scales.</text>
  <text style="stroke:none;fill:black;font-family:sans-serif;font-size:13;" transform="matrix(1 0 0 1 263 1989)">For optimal layout with text and other symbols, vertically align</text>
  <text style="stroke:none;fill:black;font-family:sans-serif;font-size:13;" transform="matrix(1 0 0 1 263 2007)">symbols with the adjacent text.</text>
  <line style="fill:none;stroke:#00AEEF;stroke-width:0.5;opacity:1.0;" x1="776" x2="776" y1="1919" y2="1933"/>
  <g transform="matrix(0.2 0 0 0.2 776 1933)">
   <path d="m16.5527 0.78125c2.58789 0 3.85742-0.976562 4.78516-3.71094l6.29883-17.2363h28.8086l6.29883 17.2363c0.927734 2.73438 2.19727 3.71094 4.73633 3.71094 2.58789 0 4.24805-1.5625 4.24805-4.00391 0-0.830078-0.146484-1.61133-0.537109-2.63672l-22.9004-60.9863c-1.12305-2.97852-3.125-4.49219-6.25-4.49219-3.02734 0-5.07812 1.46484-6.15234 4.44336l-22.9004 61.084c-0.390625 1.02539-0.537109 1.80664-0.537109 2.63672 0 2.44141 1.5625 3.95508 4.10156 3.95508Zm13.4766-28.3691 11.8652-32.8613h0.244141l11.8652 32.8613Z"/>
  </g>
  <line style="fill:none;stroke:#00AEEF;stroke-width:0.5;opacity:1.0;" x1="792.836" x2="792.836" y1="1919" y2="1933"/>
  <text style="stroke:none;fill:black;font-family:sans-serif;font-size:13;font-weight:bold;" transform="matrix(1 0 0 1 776 1953)">Margins</text>
  <text style="stroke:none;fill:black;font-family:sans-serif;font-size:13;" transform="matrix(1 0 0 1 776 1971)">Leading and trailing margins on the left and right side of each symbol</text>
  <text style="stroke:none;fill:black;font-family:sans-serif;font-size:13;" transform="matrix(1 0 0 1 776 1989)">can be adjusted by modifying the x-location of the margin guidelines.</text>
  <text style="stroke:none;fill:black;font-family:sans-serif;font-size:13;" transform="matrix(1 0 0 1 776 2007)">Modifications are automatically applied proportionally to all</text>
  <text style="stroke:none;fill:black;font-family:sans-serif;font-size:13;" transform="matrix(1 0 0 1 776 2025)">scales and weights.</text>
  <g transform="matrix(0.2 0 0 0.2 1289 1933)">
   <path d="m14.209 9.32617 8.49609 8.54492c4.29688 4.3457 9.22852 4.05273 13.8672-1.07422l53.4668-58.9355-4.83398-4.88281-53.0762 58.3984c-1.75781 2.00195-3.41797 2.49023-5.76172 0.146484l-5.85938-5.81055c-2.34375-2.29492-1.80664-4.00391 0.195312-5.81055l57.373-54.0039-4.88281-4.83398-57.959 54.4434c-4.93164 4.58984-5.32227 9.47266-1.02539 13.8184Zm32.0801-90.9668c-2.09961 2.05078-2.24609 4.93164-1.07422 6.88477 1.17188 1.80664 3.4668 2.97852 6.68945 2.14844 7.32422-1.70898 14.9414-2.00195 22.0703 2.68555l-2.92969 7.27539c-1.70898 4.15039-0.830078 7.08008 1.85547 9.81445l11.4746 11.5723c2.44141 2.44141 4.49219 2.53906 7.32422 2.05078l5.32227-0.976562 3.32031 3.36914-0.195312 2.7832c-0.195312 2.49023 0.439453 4.39453 2.88086 6.78711l3.80859 3.71094c2.39258 2.39258 5.46875 2.53906 7.8125 0.195312l14.5508-14.5996c2.34375-2.34375 2.24609-5.32227-0.146484-7.71484l-3.85742-3.80859c-2.39258-2.39258-4.24805-3.17383-6.64062-2.97852l-2.88086 0.244141-3.22266-3.17383 1.2207-5.61523c0.634766-2.83203-0.146484-5.0293-3.07617-7.95898l-10.9863-10.9375c-16.6992-16.6016-38.8672-16.2109-53.3203-1.75781Zm7.4707 1.85547c12.1582-8.88672 28.6133-7.37305 39.7461 3.75977l12.1582 12.0605c1.17188 1.17188 1.36719 2.09961 1.02539 3.80859l-1.61133 7.42188 7.51953 7.42188 4.93164-0.292969c1.26953-0.0488281 1.66016 0.0488281 2.63672 1.02539l2.88086 2.88086-12.207 12.207-2.88086-2.88086c-0.976562-0.976562-1.12305-1.36719-1.07422-2.68555l0.341797-4.88281-7.4707-7.42188-7.61719 1.26953c-1.61133 0.341797-2.34375 0.195312-3.56445-0.976562l-10.0098-10.0098c-1.26953-1.17188-1.41602-2.00195-0.634766-3.85742l4.39453-10.4492c-7.8125-7.27539-17.9688-10.4004-28.125-7.42188-0.78125 0.195312-1.07422-0.439453-0.439453-0.976562Z"/>
  </g>
  <text style="stroke:none;fill:black;font-family:sans-serif;font-size:13;font-weight:bold;" transform="matrix(1 0 0 1 1289 1953)">Exporting</text>
  <text style="stroke:none;fill:black;font-family:sans-serif;font-size:13;" transform="matrix(1 0 0 1 1289 1971)">Symbols should be outlined when exporting to ensure the</text>
  <text style="stroke:none;fill:black;font-family:sans-serif;font-size:13;" transform="matrix(1 0 0 1 1289 1989)">design is preserved when submitting to Xcode.</text>
  <text id="template-version" style="stroke:none;fill:black;font-family:sans-serif;font-size:13;text-anchor:end;" transform="matrix(1 0 0 1 3036 1933)">Template v.5.0</text>
  <text style="stroke:none;fill:black;font-family:sans-serif;font-size:13;text-anchor:end;" transform="matrix(1 0 0 1 3036 1951)">Requires Xcode 15 or greater</text>
  <text id="descriptive-name" style="stroke:none;fill:black;font-family:sans-serif;font-size:13;text-anchor:end;" transform="matrix(1 0 0 1 3036 1969)">Generated from point.3.filled.connected.trianglepath.dotted</text>
  <text style="stroke:none;fill:black;font-family:sans-serif;font-size:13;text-anchor:end;" transform="matrix(1 0 0 1 3036 1987)">Typeset at 100.0 points</text>
  <text style="stroke:none;fill:black;font-family:sans-serif;font-size:13;" transform="matrix(1 0 0 1 263 726)">Small</text>
  <text style="stroke:none;fill:black;font-family:sans-serif;font-size:13;" transform="matrix(1 0 0 1 263 1156)">Medium</text>
  <text style="stroke:none;fill:black;font-family:sans-serif;font-size:13;" transform="matrix(1 0 0 1 263 1586)">Large</text>
 </g>
 <g id="Guides">
  <g id="H-reference" style="fill:#27AAE1;stroke:none;" transform="matrix(1 0 0 1 339 696)">
   <path d="M0.993654 0L3.63775 0L29.3281-67.1323L30.0303-67.1323L30.0303-70.459L28.1226-70.459ZM11.6885-24.4799L46.9815-24.4799L46.2315-26.7285L12.4385-26.7285ZM55.1196 0L57.7637 0L30.6382-70.459L29.4326-70.459L29.4326-67.1323Z"/>
  </g>
  <line id="Baseline-S" style="fill:none;stroke:#27AAE1;opacity:1;stroke-width:0.5;" x1="263" x2="3036" y1="696" y2="696"/>
  <line id="Capline-S" style="fill:none;stroke:#27AAE1;opacity:1;stroke-width:0.5;" x1="263" x2="3036" y1="625.541" y2="625.541"/>
  <g id="H-reference" style="fill:#27AAE1;stroke:none;" transform="matrix(1 0 0 1 339 1126)">
   <path d="M0.993654 0L3.63775 0L29.3281-67.1323L30.0303-67.1323L30.0303-70.459L28.1226-70.459ZM11.6885-24.4799L46.9815-24.4799L46.2315-26.7285L12.4385-26.7285ZM55.1196 0L57.7637 0L30.6382-70.459L29.4326-70.459L29.4326-67.1323Z"/>
  </g>
  <line id="Baseline-M" style="fill:none;stroke:#27AAE1;opacity:1;stroke-width:0.5;" x1="263" x2="3036" y1="1126" y2="1126"/>
  <line id="Capline-M" style="fill:none;stroke:#27AAE1;opacity:1;stroke-width:0.5;" x1="263" x2="3036" y1="1055.54" y2="1055.54"/>
  <g id="H-reference" style="fill:#27AAE1;stroke:none;" transform="matrix(1 0 0 1 339 1556)">
   <path d="M0.993654 0L3.63775 0L29.3281-67.1323L30.0303-67.1323L30.0303-70.459L28.1226-70.459ZM11.6885-24.4799L46.9815-24.4799L46.2315-26.7285L12.4385-26.7285ZM55.1196 0L57.7637 0L30.6382-70.459L29.4326-70.459L29.4326-67.1323Z"/>
  </g>
  <line id="Baseline-L" style="fill:none;stroke:#27AAE1;opacity:1;stroke-width:0.5;" x1="263" x2="3036" y1="1556" y2="1556"/>
  <line id="Capline-L" style="fill:none;stroke:#27AAE1;opacity:1;stroke-width:0.5;" x1="263" x2="3036" y1="1485.54" y2="1485.54"/>
  <line id="left-margin-Ultralight-S" style="fill:none;stroke:#00AEEF;stroke-width:0.5;opacity:1.0;" x1="510.886" x2="510.886" y1="600.785" y2="720.121"/>
  <line id="right-margin-Ultralight-S" style="fill:none;stroke:#00AEEF;stroke-width:0.5;opacity:1.0;" x1="608.536" x2="608.536" y1="600.785" y2="720.121"/>
  <line id="left-margin-Regular-S" style="fill:none;stroke:#00AEEF;stroke-width:0.5;opacity:1.0;" x1="1398.79" x2="1398.79" y1="600.785" y2="720.121"/>
  <line id="right-margin-Regular-S" style="fill:none;stroke:#00AEEF;stroke-width:0.5;opacity:1.0;" x1="1500.89" x2="1500.89" y1="600.785" y2="720.121"/>
  <line id="left-margin-Black-S" style="fill:none;stroke:#00AEEF;stroke-width:0.5;opacity:1.0;" x1="2876.42" x2="2876.42" y1="600.785" y2="720.121"/>
  <line id="right-margin-Black-S" style="fill:none;stroke:#00AEEF;stroke-width:0.5;opacity:1.0;" x1="2990.38" x2="2990.38" y1="600.785" y2="720.121"/>
 </g>
 <g id="Symbols">
  <g id="Black-S" transform="matrix(1 0 0 1 2876.42 696)">
   <path class="monochrome-0 multicolor-0:systemGreenColor hierarchical-0:primary SFSymbolsPreviewWireframe" d="M26.0742-41.5527C35.1074-41.5527 42.4316-48.877 42.4316-57.9102C42.4316-66.8945 35.1074-74.2188 26.0742-74.2188C17.0898-74.2188 9.76562-66.8945 9.76562-57.9102C9.76562-48.877 17.0898-41.5527 26.0742-41.5527ZM87.8906-41.5527C96.875-41.5527 104.199-48.877 104.199-57.9102C104.199-66.8945 96.875-74.2188 87.8906-74.2188C78.8574-74.2188 71.5332-66.8945 71.5332-57.9102C71.5332-48.877 78.8574-41.5527 87.8906-41.5527ZM56.9824 3.85742C65.9668 3.85742 73.291-3.4668 73.291-12.5C73.291-21.4844 65.9668-28.8086 56.9824-28.8086C47.9492-28.8086 40.625-21.4844 40.625-12.5C40.625-3.4668 47.9492 3.85742 56.9824 3.85742Z"/>
   <path class="monochrome-1 multicolor-1:tertiaryLabelColor hierarchical-1:secondary SFSymbolsPreviewWireframe" d="M47.9492-54.4434C49.8535-54.4434 51.3672-55.957 51.3672-57.8613C51.3672-59.7656 49.8535-61.2793 47.9492-61.2793C46.0449-61.2793 44.5312-59.7656 44.5312-57.8613C44.5312-55.957 46.0449-54.4434 47.9492-54.4434ZM56.9824-54.4434C58.8867-54.4434 60.4004-55.957 60.4004-57.8613C60.4004-59.7656 58.8867-61.2793 56.9824-61.2793C55.0781-61.2793 53.5645-59.7656 53.5645-57.8613C53.5645-55.957 55.0781-54.4434 56.9824-54.4434ZM66.0156-54.4434C67.9199-54.4434 69.4336-55.957 69.4336-57.8613C69.4336-59.7656 67.9199-61.2793 66.0156-61.2793C64.1113-61.2793 62.5977-59.7656 62.5977-57.8613C62.5977-55.957 64.1113-54.4434 66.0156-54.4434ZM77.2949-35.6934C79.1992-35.6934 80.7129-37.207 80.7129-39.1113C80.7129-41.0156 79.1992-42.5293 77.2949-42.5293C75.3906-42.5293 73.877-41.0156 73.877-39.1113C73.877-37.207 75.3906-35.6934 77.2949-35.6934ZM69.5801-27.1973C71.4844-27.1973 72.998-28.7109 72.998-30.6152C72.998-32.5195 71.4844-34.0332 69.5801-34.0332C67.6758-34.0332 66.1621-32.5195 66.1621-30.6152C66.1621-28.7109 67.6758-27.1973 69.5801-27.1973ZM44.3848-27.1973C46.2891-27.1973 47.8027-28.7109 47.8027-30.6152C47.8027-32.5195 46.2891-34.0332 44.3848-34.0332C42.4805-34.0332 40.9668-32.5195 40.9668-30.6152C40.9668-28.7109 42.4805-27.1973 44.3848-27.1973ZM36.6699-35.6934C38.5742-35.6934 40.0879-37.207 40.0879-39.1113C40.0879-41.0156 38.5742-42.5293 36.6699-42.5293C34.7656-42.5293 33.252-41.0156 33.252-39.1113C33.252-37.207 34.7656-35.6934 36.6699-35.6934Z"/>
  </g>
  <g id="Regular-S" transform="matrix(1 0 0 1 1398.79 696)">
   <path class="monochrome-0 multicolor-0:systemGreenColor hierarchical-0:primary SFSymbolsPreviewWireframe" d="M22.4609-43.5547C29.541-43.5547 35.2539-49.2188 35.2539-56.2988C35.2539-63.2812 29.541-68.9941 22.4609-68.9941C15.4785-68.9941 9.76562-63.2812 9.76562-56.2988C9.76562-49.2188 15.4785-43.5547 22.4609-43.5547ZM79.541-43.5547C86.6211-43.5547 92.334-49.2188 92.334-56.2988C92.334-63.2812 86.6211-68.9941 79.541-68.9941C72.5586-68.9941 66.8457-63.2812 66.8457-56.2988C66.8457-49.2188 72.5586-43.5547 79.541-43.5547ZM51.0254-1.51367C58.1055-1.51367 63.8184-7.17773 63.8184-14.2578C63.8184-21.2891 58.1055-26.9531 51.0254-26.9531C44.043-26.9531 38.3301-21.2891 38.3301-14.2578C38.3301-7.17773 44.043-1.51367 51.0254-1.51367Z"/>
   <path class="monochrome-1 multicolor-1:tertiaryLabelColor hierarchical-1:secondary SFSymbolsPreviewWireframe" d="M41.3574-52.6855C43.3105-52.6855 44.9219-54.3457 44.9219-56.2988C44.9219-58.252 43.3105-59.8633 41.3574-59.8633C39.4043-59.8633 37.793-58.252 37.793-56.2988C37.793-54.3457 39.4043-52.6855 41.3574-52.6855ZM51.0254-52.6855C52.9785-52.6855 54.6387-54.3457 54.6387-56.2988C54.6387-58.252 52.9785-59.8633 51.0254-59.8633C49.0723-59.8633 47.4609-58.252 47.4609-56.2988C47.4609-54.3457 49.0723-52.6855 51.0254-52.6855ZM60.7422-52.6855C62.6953-52.6855 64.3066-54.3457 64.3066-56.2988C64.3066-58.252 62.6953-59.8633 60.7422-59.8633C58.7891-59.8633 57.1777-58.252 57.1777-56.2988C57.1777-54.3457 58.7891-52.6855 60.7422-52.6855ZM69.7754-35.3516C71.7285-35.3516 73.3398-36.9629 73.3398-38.916C73.3398-40.8691 71.7285-42.4805 69.7754-42.4805C67.8223-42.4805 66.2109-40.8691 66.2109-38.916C66.2109-36.9629 67.8223-35.3516 69.7754-35.3516ZM62.6465-27.4902C64.5996-27.4902 66.2109-29.1016 66.2109-31.0547C66.2109-33.0078 64.5996-34.6191 62.6465-34.6191C60.6934-34.6191 59.082-33.0078 59.082-31.0547C59.082-29.1016 60.6934-27.4902 62.6465-27.4902ZM39.4043-27.4902C41.3574-27.4902 42.9688-29.1016 42.9688-31.0547C42.9688-33.0078 41.3574-34.6191 39.4043-34.6191C37.4512-34.6191 35.8398-33.0078 35.8398-31.0547C35.8398-29.1016 37.4512-27.4902 39.4043-27.4902ZM32.2754-35.3516C34.2285-35.3516 35.8398-36.9629 35.8398-38.916C35.8398-40.8691 34.2285-42.4805 32.2754-42.4805C30.3223-42.4805 28.7109-40.8691 28.7109-38.916C28.7109-36.9629 30.3223-35.3516 32.2754-35.3516Z"/>
  </g>
  <g id="Ultralight-S" transform="matrix(1 0 0 1 510.886 696)">
   <path class="monochrome-0 multicolor-0:systemGreenColor hierarchical-0:primary SFSymbolsPreviewWireframe" d="M20.2813-45.7344C26.0445-45.7344 30.7583-50.4448 30.7583-56.2534C30.7583-62.0098 26.0445-66.7237 20.2813-66.7237C14.4795-66.7237 9.76562-62.0098 9.76562-56.2534C9.76562-50.4448 14.4795-45.7344 20.2813-45.7344ZM77.4068-45.7344C83.1699-45.7344 87.8838-50.4448 87.8838-56.2534C87.8838-62.0098 83.1699-66.7237 77.4068-66.7237C71.605-66.7237 66.8911-62.0098 66.8911-56.2534C66.8911-50.4448 71.605-45.7344 77.4068-45.7344ZM48.8457-3.73875C54.6089-3.73875 59.3228-8.44921 59.3228-14.2578C59.3228-20.0176 54.6089-24.728 48.8457-24.728C43.044-24.728 38.3301-20.0176 38.3301-14.2578C38.3301-8.44921 43.044-3.73875 48.8457-3.73875Z"/>
   <path class="monochrome-1 multicolor-1:tertiaryLabelColor hierarchical-1:secondary SFSymbolsPreviewWireframe" d="M38.7691-53.8662C39.8594-53.8662 40.7896-54.7544 40.7896-55.8901C40.7896-56.9805 39.8594-57.9107 38.7691-57.9107C37.6333-57.9107 36.7031-56.9805 36.7031-55.8901C36.7031-54.7544 37.6333-53.8662 38.7691-53.8662ZM48.8457-53.8662C49.9815-53.8662 50.8697-54.7544 50.8697-55.8901C50.8697-56.9805 49.9815-57.9107 48.8457-57.9107C47.71-57.9107 46.8252-56.9805 46.8252-55.8901C46.8252-54.7544 47.71-53.8662 48.8457-53.8662ZM58.8804-53.8662C60.0161-53.8662 60.9009-54.7544 60.9009-55.8901C60.9009-56.9805 60.0161-57.9107 58.8804-57.9107C57.79-57.9107 56.8599-56.9805 56.8599-55.8901C56.8599-54.7544 57.79-53.8662 58.8804-53.8662ZM67.5503-36.8047C68.6861-36.8047 69.5708-37.6894 69.5708-38.8252C69.5708-39.9609 68.6861-40.8457 67.5503-40.8457C66.4146-40.8457 65.5298-39.9609 65.5298-38.8252C65.5298-37.6894 66.4146-36.8047 67.5503-36.8047ZM60.4214-28.9433C61.5572-28.9433 62.4419-29.8281 62.4419-30.9639C62.4419-32.0996 61.5572-32.9844 60.4214-32.9844C59.2857-32.9844 58.4009-32.0996 58.4009-30.9639C58.4009-29.8281 59.2857-28.9433 60.4214-28.9433ZM37.1792-28.9433C38.315-28.9433 39.1997-29.8281 39.1997-30.9639C39.1997-32.0996 38.315-32.9844 37.1792-32.9844C36.0435-32.9844 35.1587-32.0996 35.1587-30.9639C35.1587-29.8281 36.0435-28.9433 37.1792-28.9433ZM30.0503-36.8047C31.1861-36.8047 32.0708-37.6894 32.0708-38.8252C32.0708-39.9609 31.1861-40.8457 30.0503-40.8457C28.9146-40.8457 28.0298-39.9609 28.0298-38.8252C28.0298-37.6894 28.9146-36.8047 30.0503-36.8047Z"/>
  </g>
 </g>
</svg>
