<?xml version="1.0" encoding="UTF-8"?>
<!--Generator: Apple Native CoreSVG 232.5-->
<!DOCTYPE svg
PUBLIC "-//W3C//DTD SVG 1.1//EN"
       "http://www.w3.org/Graphics/SVG/1.1/DTD/svg11.dtd">
<svg version="1.1" xmlns="http://www.w3.org/2000/svg" xmlns:xlink="http://www.w3.org/1999/xlink" width="3300" height="2200">
 <!--glyph: "uni10016F.medium", point size: 100.0, font version: "19.0d7e1", template writer version: "128"-->
 <style>.monochrome-0 {-sfsymbols-motion-group:2}
.monochrome-1 {-sfsymbols-motion-group:1}
.monochrome-2 {-sfsymbols-motion-group:0}

.multicolor-0:tintColor {-sfsymbols-motion-group:2}
.multicolor-1:tintColor {-sfsymbols-motion-group:1}
.multicolor-2:tintColor {-sfsymbols-motion-group:0}

.hierarchical-0:primary {-sfsymbols-motion-group:2}
.hierarchical-1:primary {-sfsymbols-motion-group:1}
.hierarchical-2:primary {-sfsymbols-motion-group:0}

.SFSymbolsPreviewWireframe {fill:none;opacity:1.0;stroke:black;stroke-width:0.5}
</style>
 <g id="Notes">
  <rect height="2200" id="artboard" style="fill:white;opacity:1" width="3300" x="0" y="0"/>
  <line style="fill:none;stroke:black;opacity:1;stroke-width:0.5;" x1="263" x2="3036" y1="292" y2="292"/>
  <text style="stroke:none;fill:black;font-family:sans-serif;font-size:13;font-weight:bold;" transform="matrix(1 0 0 1 263 322)">Weight/Scale Variations</text>
  <text style="stroke:none;fill:black;font-family:sans-serif;font-size:13;text-anchor:middle;" transform="matrix(1 0 0 1 559.711 322)">Ultralight</text>
  <text style="stroke:none;fill:black;font-family:sans-serif;font-size:13;text-anchor:middle;" transform="matrix(1 0 0 1 856.422 322)">Thin</text>
  <text style="stroke:none;fill:black;font-family:sans-serif;font-size:13;text-anchor:middle;" transform="matrix(1 0 0 1 1153.13 322)">Light</text>
  <text style="stroke:none;fill:black;font-family:sans-serif;font-size:13;text-anchor:middle;" transform="matrix(1 0 0 1 1449.84 322)">Regular</text>
  <text style="stroke:none;fill:black;font-family:sans-serif;font-size:13;text-anchor:middle;" transform="matrix(1 0 0 1 1746.56 322)">Medium</text>
  <text style="stroke:none;fill:black;font-family:sans-serif;font-size:13;text-anchor:middle;" transform="matrix(1 0 0 1 2043.27 322)">Semibold</text>
  <text style="stroke:none;fill:black;font-family:sans-serif;font-size:13;text-anchor:middle;" transform="matrix(1 0 0 1 2339.98 322)">Bold</text>
  <text style="stroke:none;fill:black;font-family:sans-serif;font-size:13;text-anchor:middle;" transform="matrix(1 0 0 1 2636.69 322)">Heavy</text>
  <text style="stroke:none;fill:black;font-family:sans-serif;font-size:13;text-anchor:middle;" transform="matrix(1 0 0 1 2933.4 322)">Black</text>
  <line style="fill:none;stroke:black;opacity:1;stroke-width:0.5;" x1="263" x2="3036" y1="1903" y2="1903"/>
  <g transform="matrix(0.2 0 0 0.2 263 1933)">
   <path d="m46.2402 4.15039c21.5332 0 39.4531-17.8711 39.4531-39.4043s-17.9688-39.4043-39.502-39.4043c-21.4844 0-39.3555 17.8711-39.3555 39.4043s17.9199 39.4043 39.4043 39.4043Zm0-7.42188c-17.7246 0-31.8848-14.209-31.8848-31.9824s14.1113-31.9824 31.8359-31.9824c17.7734 0 32.0312 14.209 32.0312 31.9824s-14.209 31.9824-31.9824 31.9824Zm-17.9688-31.9824c0 2.14844 1.51367 3.61328 3.75977 3.61328h10.498v10.5957c0 2.19727 1.46484 3.71094 3.61328 3.71094 2.24609 0 3.71094-1.51367 3.71094-3.71094v-10.5957h10.5957c2.19727 0 3.71094-1.46484 3.71094-3.61328 0-2.19727-1.51367-3.71094-3.71094-3.71094h-10.5957v-10.5469c0-2.24609-1.46484-3.75977-3.71094-3.75977-2.14844 0-3.61328 1.51367-3.61328 3.75977v10.5469h-10.498c-2.24609 0-3.75977 1.51367-3.75977 3.71094Z"/>
  </g>
  <g transform="matrix(0.2 0 0 0.2 281.506 1933)">
   <path d="m58.5449 14.5508c27.2461 0 49.8047-22.6074 49.8047-49.8047 0-27.2461-22.6074-49.8047-49.8535-49.8047-27.1973 0-49.7559 22.5586-49.7559 49.8047 0 27.1973 22.6074 49.8047 49.8047 49.8047Zm0-8.30078c-23.0469 0-41.4551-18.457-41.4551-41.5039s18.3594-41.5039 41.4062-41.5039 41.5527 18.457 41.5527 41.5039-18.457 41.5039-41.5039 41.5039Zm-22.6562-41.5039c0 2.39258 1.66016 4.00391 4.15039 4.00391h14.3555v14.4043c0 2.44141 1.66016 4.15039 4.05273 4.15039 2.44141 0 4.15039-1.66016 4.15039-4.15039v-14.4043h14.4043c2.44141 0 4.15039-1.61133 4.15039-4.00391 0-2.44141-1.70898-4.15039-4.15039-4.15039h-14.4043v-14.3555c0-2.49023-1.70898-4.19922-4.15039-4.19922-2.39258 0-4.05273 1.70898-4.05273 4.19922v14.3555h-14.3555c-2.49023 0-4.15039 1.70898-4.15039 4.15039Z"/>
  </g>
  <g transform="matrix(0.2 0 0 0.2 304.924 1933)">
   <path d="m74.8535 28.3203c34.8145 0 63.623-28.8086 63.623-63.5742 0-34.8145-28.8574-63.623-63.6719-63.623-34.7656 0-63.5254 28.8086-63.5254 63.623 0 34.7656 28.8086 63.5742 63.5742 63.5742Zm0-9.08203c-30.1758 0-54.4434-24.3164-54.4434-54.4922 0-30.2246 24.2188-54.4922 54.3945-54.4922 30.2246 0 54.541 24.2676 54.541 54.4922 0 30.1758-24.2676 54.4922-54.4922 54.4922Zm-28.8574-54.4922c0 2.58789 1.85547 4.39453 4.58984 4.39453h19.7266v19.7754c0 2.68555 1.85547 4.58984 4.44336 4.58984 2.68555 0 4.54102-1.85547 4.54102-4.58984v-19.7754h19.7754c2.68555 0 4.58984-1.80664 4.58984-4.39453 0-2.73438-1.85547-4.58984-4.58984-4.58984h-19.7754v-19.7266c0-2.73438-1.85547-4.63867-4.54102-4.63867-2.58789 0-4.44336 1.9043-4.44336 4.63867v19.7266h-19.7266c-2.73438 0-4.58984 1.85547-4.58984 4.58984Z"/>
  </g>
  <text style="stroke:none;fill:black;font-family:sans-serif;font-size:13;font-weight:bold;" transform="matrix(1 0 0 1 263 1953)">Design Variations</text>
  <text style="stroke:none;fill:black;font-family:sans-serif;font-size:13;" transform="matrix(1 0 0 1 263 1971)">Symbols are supported in up to nine weights and three scales.</text>
  <text style="stroke:none;fill:black;font-family:sans-serif;font-size:13;" transform="matrix(1 0 0 1 263 1989)">For optimal layout with text and other symbols, vertically align</text>
  <text style="stroke:none;fill:black;font-family:sans-serif;font-size:13;" transform="matrix(1 0 0 1 263 2007)">symbols with the adjacent text.</text>
  <line style="fill:none;stroke:#00AEEF;stroke-width:0.5;opacity:1.0;" x1="776" x2="776" y1="1919" y2="1933"/>
  <g transform="matrix(0.2 0 0 0.2 776 1933)">
   <path d="m16.5527 0.78125c2.58789 0 3.85742-0.976562 4.78516-3.71094l6.29883-17.2363h28.8086l6.29883 17.2363c0.927734 2.73438 2.19727 3.71094 4.73633 3.71094 2.58789 0 4.24805-1.5625 4.24805-4.00391 0-0.830078-0.146484-1.61133-0.537109-2.63672l-22.9004-60.9863c-1.12305-2.97852-3.125-4.49219-6.25-4.49219-3.02734 0-5.07812 1.46484-6.15234 4.44336l-22.9004 61.084c-0.390625 1.02539-0.537109 1.80664-0.537109 2.63672 0 2.44141 1.5625 3.95508 4.10156 3.95508Zm13.4766-28.3691 11.8652-32.8613h0.244141l11.8652 32.8613Z"/>
  </g>
  <line style="fill:none;stroke:#00AEEF;stroke-width:0.5;opacity:1.0;" x1="792.836" x2="792.836" y1="1919" y2="1933"/>
  <text style="stroke:none;fill:black;font-family:sans-serif;font-size:13;font-weight:bold;" transform="matrix(1 0 0 1 776 1953)">Margins</text>
  <text style="stroke:none;fill:black;font-family:sans-serif;font-size:13;" transform="matrix(1 0 0 1 776 1971)">Leading and trailing margins on the left and right side of each symbol</text>
  <text style="stroke:none;fill:black;font-family:sans-serif;font-size:13;" transform="matrix(1 0 0 1 776 1989)">can be adjusted by modifying the x-location of the margin guidelines.</text>
  <text style="stroke:none;fill:black;font-family:sans-serif;font-size:13;" transform="matrix(1 0 0 1 776 2007)">Modifications are automatically applied proportionally to all</text>
  <text style="stroke:none;fill:black;font-family:sans-serif;font-size:13;" transform="matrix(1 0 0 1 776 2025)">scales and weights.</text>
  <g transform="matrix(0.2 0 0 0.2 1289 1933)">
   <path d="m14.209 9.32617 8.49609 8.54492c4.29688 4.3457 9.22852 4.05273 13.8672-1.07422l53.4668-58.9355-4.83398-4.88281-53.0762 58.3984c-1.75781 2.00195-3.41797 2.49023-5.76172 0.146484l-5.85938-5.81055c-2.34375-2.29492-1.80664-4.00391 0.195312-5.81055l57.373-54.0039-4.88281-4.83398-57.959 54.4434c-4.93164 4.58984-5.32227 9.47266-1.02539 13.8184Zm32.0801-90.9668c-2.09961 2.05078-2.24609 4.93164-1.07422 6.88477 1.17188 1.80664 3.4668 2.97852 6.68945 2.14844 7.32422-1.70898 14.9414-2.00195 22.0703 2.68555l-2.92969 7.27539c-1.70898 4.15039-0.830078 7.08008 1.85547 9.81445l11.4746 11.5723c2.44141 2.44141 4.49219 2.53906 7.32422 2.05078l5.32227-0.976562 3.32031 3.36914-0.195312 2.7832c-0.195312 2.49023 0.439453 4.39453 2.88086 6.78711l3.80859 3.71094c2.39258 2.39258 5.46875 2.53906 7.8125 0.195312l14.5508-14.5996c2.34375-2.34375 2.24609-5.32227-0.146484-7.71484l-3.85742-3.80859c-2.39258-2.39258-4.24805-3.17383-6.64062-2.97852l-2.88086 0.244141-3.22266-3.17383 1.2207-5.61523c0.634766-2.83203-0.146484-5.0293-3.07617-7.95898l-10.9863-10.9375c-16.6992-16.6016-38.8672-16.2109-53.3203-1.75781Zm7.4707 1.85547c12.1582-8.88672 28.6133-7.37305 39.7461 3.75977l12.1582 12.0605c1.17188 1.17188 1.36719 2.09961 1.02539 3.80859l-1.61133 7.42188 7.51953 7.42188 4.93164-0.292969c1.26953-0.0488281 1.66016 0.0488281 2.63672 1.02539l2.88086 2.88086-12.207 12.207-2.88086-2.88086c-0.976562-0.976562-1.12305-1.36719-1.07422-2.68555l0.341797-4.88281-7.4707-7.42188-7.61719 1.26953c-1.61133 0.341797-2.34375 0.195312-3.56445-0.976562l-10.0098-10.0098c-1.26953-1.17188-1.41602-2.00195-0.634766-3.85742l4.39453-10.4492c-7.8125-7.27539-17.9688-10.4004-28.125-7.42188-0.78125 0.195312-1.07422-0.439453-0.439453-0.976562Z"/>
  </g>
  <text style="stroke:none;fill:black;font-family:sans-serif;font-size:13;font-weight:bold;" transform="matrix(1 0 0 1 1289 1953)">Exporting</text>
  <text style="stroke:none;fill:black;font-family:sans-serif;font-size:13;" transform="matrix(1 0 0 1 1289 1971)">Symbols should be outlined when exporting to ensure the</text>
  <text style="stroke:none;fill:black;font-family:sans-serif;font-size:13;" transform="matrix(1 0 0 1 1289 1989)">design is preserved when submitting to Xcode.</text>
  <text id="template-version" style="stroke:none;fill:black;font-family:sans-serif;font-size:13;text-anchor:end;" transform="matrix(1 0 0 1 3036 1933)">Template v.5.0</text>
  <text style="stroke:none;fill:black;font-family:sans-serif;font-size:13;text-anchor:end;" transform="matrix(1 0 0 1 3036 1951)">Requires Xcode 15 or greater</text>
  <text id="descriptive-name" style="stroke:none;fill:black;font-family:sans-serif;font-size:13;text-anchor:end;" transform="matrix(1 0 0 1 3036 1969)">Generated from textformat.abc</text>
  <text style="stroke:none;fill:black;font-family:sans-serif;font-size:13;text-anchor:end;" transform="matrix(1 0 0 1 3036 1987)">Typeset at 100.0 points</text>
  <text style="stroke:none;fill:black;font-family:sans-serif;font-size:13;" transform="matrix(1 0 0 1 263 726)">Small</text>
  <text style="stroke:none;fill:black;font-family:sans-serif;font-size:13;" transform="matrix(1 0 0 1 263 1156)">Medium</text>
  <text style="stroke:none;fill:black;font-family:sans-serif;font-size:13;" transform="matrix(1 0 0 1 263 1586)">Large</text>
 </g>
 <g id="Guides">
  <g id="H-reference" style="fill:#27AAE1;stroke:none;" transform="matrix(1 0 0 1 339 696)">
   <path d="M0.993654 0L3.63775 0L29.3281-67.1323L30.0303-67.1323L30.0303-70.459L28.1226-70.459ZM11.6885-24.4799L46.9815-24.4799L46.2315-26.7285L12.4385-26.7285ZM55.1196 0L57.7637 0L30.6382-70.459L29.4326-70.459L29.4326-67.1323Z"/>
  </g>
  <line id="Baseline-S" style="fill:none;stroke:#27AAE1;opacity:1;stroke-width:0.5;" x1="263" x2="3036" y1="696" y2="696"/>
  <line id="Capline-S" style="fill:none;stroke:#27AAE1;opacity:1;stroke-width:0.5;" x1="263" x2="3036" y1="625.541" y2="625.541"/>
  <g id="H-reference" style="fill:#27AAE1;stroke:none;" transform="matrix(1 0 0 1 339 1126)">
   <path d="M0.993654 0L3.63775 0L29.3281-67.1323L30.0303-67.1323L30.0303-70.459L28.1226-70.459ZM11.6885-24.4799L46.9815-24.4799L46.2315-26.7285L12.4385-26.7285ZM55.1196 0L57.7637 0L30.6382-70.459L29.4326-70.459L29.4326-67.1323Z"/>
  </g>
  <line id="Baseline-M" style="fill:none;stroke:#27AAE1;opacity:1;stroke-width:0.5;" x1="263" x2="3036" y1="1126" y2="1126"/>
  <line id="Capline-M" style="fill:none;stroke:#27AAE1;opacity:1;stroke-width:0.5;" x1="263" x2="3036" y1="1055.54" y2="1055.54"/>
  <g id="H-reference" style="fill:#27AAE1;stroke:none;" transform="matrix(1 0 0 1 339 1556)">
   <path d="M0.993654 0L3.63775 0L29.3281-67.1323L30.0303-67.1323L30.0303-70.459L28.1226-70.459ZM11.6885-24.4799L46.9815-24.4799L46.2315-26.7285L12.4385-26.7285ZM55.1196 0L57.7637 0L30.6382-70.459L29.4326-70.459L29.4326-67.1323Z"/>
  </g>
  <line id="Baseline-L" style="fill:none;stroke:#27AAE1;opacity:1;stroke-width:0.5;" x1="263" x2="3036" y1="1556" y2="1556"/>
  <line id="Capline-L" style="fill:none;stroke:#27AAE1;opacity:1;stroke-width:0.5;" x1="263" x2="3036" y1="1485.54" y2="1485.54"/>
  <line id="left-margin-Ultralight-S" style="fill:none;stroke:#00AEEF;stroke-width:0.5;opacity:1.0;" x1="493.757" x2="493.757" y1="600.785" y2="720.121"/>
  <line id="right-margin-Ultralight-S" style="fill:none;stroke:#00AEEF;stroke-width:0.5;opacity:1.0;" x1="625.665" x2="625.665" y1="600.785" y2="720.121"/>
  <line id="left-margin-Regular-S" style="fill:none;stroke:#00AEEF;stroke-width:0.5;opacity:1.0;" x1="1380.17" x2="1380.17" y1="600.785" y2="720.121"/>
  <line id="right-margin-Regular-S" style="fill:none;stroke:#00AEEF;stroke-width:0.5;opacity:1.0;" x1="1519.52" x2="1519.52" y1="600.785" y2="720.121"/>
  <line id="left-margin-Black-S" style="fill:none;stroke:#00AEEF;stroke-width:0.5;opacity:1.0;" x1="2851.1" x2="2851.1" y1="600.785" y2="720.121"/>
  <line id="right-margin-Black-S" style="fill:none;stroke:#00AEEF;stroke-width:0.5;opacity:1.0;" x1="3015.7" x2="3015.7" y1="600.785" y2="720.121"/>
 </g>
 <g id="Symbols">
  <g id="Black-S" transform="matrix(1 0 0 1 2851.1 696)">
   <path class="monochrome-0 multicolor-0:tintColor hierarchical-0:primary SFSymbolsPreviewWireframe" d="M133.984-4.83398C143.066-4.83398 150.928-8.93555 153.857-14.9414C154.59-16.4062 154.834-17.627 154.834-18.7012C154.834-22.2656 152.002-24.6094 148.438-24.6094C145.02-24.6094 143.408-23.1445 141.553-20.3613C139.844-17.8223 137.598-15.8203 134.277-15.8203C129.443-15.8203 126.416-20.2148 126.416-28.1738C126.416-36.0352 129.492-40.4297 134.375-40.4297C137.305-40.4297 139.6-38.8184 141.65-35.1562C143.066-32.8613 144.824-31.5918 147.998-31.5918C151.562-31.5918 154.59-33.6426 154.59-37.207C154.59-38.3301 154.248-39.6973 153.662-40.8691C150.977-47.3633 143.457-51.416 133.887-51.416C119.629-51.416 110.938-42.4805 110.938-28.1738C110.938-13.623 119.629-4.83398 133.984-4.83398Z"/>
   <path class="monochrome-1 multicolor-1:tintColor hierarchical-1:primary SFSymbolsPreviewWireframe" d="M66.8457-4.83398C71.7285-4.83398 74.5117-7.51953 74.5117-12.3047L74.5117-13.1836L74.8047-13.1836C77.002-7.95898 81.4941-4.83398 88.0371-4.83398C99.6094-4.83398 106.055-13.2324 106.055-27.7344C106.055-42.334 99.5605-50.6836 87.9395-50.6836C81.9336-50.6836 77.0996-47.5098 74.9023-42.1387L74.5605-42.1387L74.5605-57.8125C74.5605-62.3535 71.4844-65.3809 66.9434-65.3809C62.3535-65.3809 59.3262-62.3535 59.3262-57.8613L59.3262-12.3047C59.3262-7.51953 62.0117-4.83398 66.8457-4.83398ZM82.5195-16.2109C77.832-16.2109 74.5117-20.7031 74.5117-27.7344C74.5117-34.7656 77.832-39.3555 82.5195-39.3555C87.207-39.3555 90.4785-34.8145 90.4785-27.7344C90.4785-20.752 87.2559-16.2109 82.5195-16.2109Z"/>
   <path class="monochrome-2 multicolor-2:tintColor hierarchical-2:primary SFSymbolsPreviewWireframe" d="M25.0977-4.83398C30.4199-4.83398 35.498-7.37305 37.8906-11.9141L38.1836-11.9141L38.1836-11.1328C38.5742-6.88477 41.2598-4.83398 45.5566-4.83398C50.0977-4.83398 53.0273-7.22656 53.0273-12.207L53.0273-36.084C53.0273-45.0195 45.166-51.123 32.8613-51.123C22.3145-51.123 14.8926-47.7539 12.9883-42.1875C12.6465-41.3086 12.5488-40.5762 12.5488-39.5996C12.5488-36.4746 14.8926-34.2285 18.75-34.2285C21.3379-34.2285 23.2422-35.1562 24.9512-36.8652C27.7344-39.8438 29.4434-40.7227 32.1289-40.7227C35.5469-40.7227 38.0859-38.7695 38.0859-35.2051L38.0859-32.666L28.0762-32.0801C16.1621-31.3965 9.76562-26.709 9.76562-18.4082C9.76562-10.3516 16.4062-4.83398 25.0977-4.83398ZM30.1758-14.8438C27.1484-14.8438 24.8535-16.5527 24.8535-19.3848C24.8535-22.0215 27.002-23.7793 30.3711-24.0234L38.0859-24.5605L38.0859-21.4844C38.0859-17.5781 34.6191-14.8438 30.1758-14.8438Z"/>
  </g>
  <g id="Regular-S" transform="matrix(1 0 0 1 1380.17 696)">
   <path class="monochrome-0 multicolor-0:tintColor hierarchical-0:primary SFSymbolsPreviewWireframe" d="M112.891-6.98242C120.459-6.98242 127.002-11.1328 129.199-16.7969C129.443-17.5293 129.59-18.1641 129.59-18.75C129.59-20.6055 128.223-21.9238 126.416-21.9238C124.756-21.9238 123.926-21.3379 122.9-19.3848C120.85-15.4785 117.822-13.3789 112.939-13.3789C105.957-13.3789 101.27-19.043 101.27-28.1738C101.27-37.207 105.908-43.0664 112.988-43.0664C117.578-43.0664 120.752-41.0156 122.852-36.9141C123.828-35.1074 124.707-34.4727 126.318-34.4727C128.174-34.4727 129.492-35.6934 129.492-37.5977C129.492-38.0859 129.346-38.7207 129.199-39.3066C127.246-45.0195 120.703-49.4141 112.793-49.4141C101.27-49.4141 93.6523-41.0156 93.6523-28.125C93.6523-15.1855 101.318-6.98242 112.891-6.98242Z"/>
   <path class="monochrome-1 multicolor-1:tintColor hierarchical-1:primary SFSymbolsPreviewWireframe" d="M54.8828-6.98242C56.9824-6.98242 58.5449-8.44727 58.5449-10.6934L58.5449-14.8926L58.6426-14.8926C61.2793-10.0098 66.0156-6.98242 72.1191-6.98242C82.666-6.98242 89.502-15.2344 89.502-28.1738C89.502-41.1621 82.6172-49.4141 72.2168-49.4141C66.3086-49.4141 61.4258-46.3867 58.9355-41.5039L58.7402-41.5039L58.7402-59.5215C58.7402-61.9141 57.2754-63.4766 55.0293-63.4766C52.832-63.4766 51.3672-61.9141 51.3672-59.5215L51.3672-10.6934C51.3672-8.39844 52.7344-6.98242 54.8828-6.98242ZM70.4102-13.3789C63.5742-13.3789 58.7402-19.1895 58.7402-28.1738C58.7402-37.207 63.5742-43.0176 70.4102-43.0176C77.4902-43.0176 81.8848-37.3535 81.8848-28.1738C81.8848-18.9941 77.4902-13.3789 70.4102-13.3789Z"/>
   <path class="monochrome-2 multicolor-2:tintColor hierarchical-2:primary SFSymbolsPreviewWireframe" d="M23.4863-6.98242C29.0527-6.98242 34.375-10.0098 36.8164-14.7461L36.9141-14.7461L36.9141-10.5469C36.9141-8.39844 38.4277-6.93359 40.4785-6.93359C42.627-6.93359 44.0918-8.39844 44.0918-10.7422L44.0918-35.8398C44.0918-44.0918 37.8418-49.4141 28.0273-49.4141C20.9473-49.4141 14.8438-46.3867 12.5977-41.6992C12.1094-40.7715 11.8164-39.8438 11.8164-38.9648C11.8164-37.0605 13.2324-35.791 15.1367-35.791C16.4551-35.791 17.4805-36.2793 18.1641-37.4512C20.4102-41.4551 23.3887-43.1641 27.832-43.1641C33.3496-43.1641 36.6699-40.1855 36.6699-35.2539L36.6699-32.0801L24.9512-31.4941C15.2344-31.0059 9.76562-26.4648 9.76562-19.3359C9.76562-11.9141 15.3809-6.98242 23.4863-6.98242ZM25.3418-13.0371C20.5078-13.0371 17.3828-15.625 17.3828-19.4824C17.3828-23.1934 20.4102-25.7324 25.8301-26.0254L36.6699-26.709L36.6699-23.2422C36.6699-17.4316 31.6895-13.0371 25.3418-13.0371Z"/>
  </g>
  <g id="Ultralight-S" transform="matrix(1 0 0 1 493.757 696)">
   <path class="monochrome-0 multicolor-0:tintColor hierarchical-0:primary SFSymbolsPreviewWireframe" d="M106.533-6.98242C113.875-6.98242 120.009-11.0874 121.979-17.6143C122.042-17.9834 122.143-18.4365 122.143-18.8408C122.143-19.334 121.82-19.7896 121.239-19.7896C120.624-19.7896 120.384-19.4761 120.221-18.8853C118.397-12.5269 113.009-8.97416 106.537-8.97416C96.9205-8.97416 91.0977-16.1367 91.0977-27.5835C91.0977-39.0688 97.1441-46.1543 106.358-46.1543C112.81-46.1543 118.209-42.6504 120.036-36.2783C120.195-35.6523 120.439-35.3354 121.005-35.3354C121.635-35.3354 121.954-35.7388 121.954-36.2808C121.954-36.6328 121.853-37.086 121.797-37.3086C119.981-43.8389 113.71-48.1426 106.345-48.1426C95.5479-48.1426 88.8843-40.062 88.8843-27.4893C88.8843-14.9585 95.6875-6.98242 106.533-6.98242Z"/>
   <path class="monochrome-1 multicolor-1:tintColor hierarchical-1:primary SFSymbolsPreviewWireframe" d="M50.4327-7.07324C51.0337-7.07324 51.5064-7.49366 51.5064-8.24123L51.5064-19.3881L51.5586-19.3881C53.4688-11.8262 59.6128-6.98242 67.0332-6.98242C76.899-6.98242 83.8711-15.5068 83.8711-27.6289C83.8711-39.6636 76.8956-48.1426 67.0401-48.1426C59.4517-48.1426 53.3882-43.208 51.5792-35.8277L51.5201-35.8277L51.5201-62.2007C51.5201-62.9131 51.0542-63.3857 50.3975-63.3857C49.7442-63.3857 49.3237-62.9131 49.3237-62.2007L49.3237-8.24123C49.3237-7.49024 49.7827-7.07324 50.4327-7.07324ZM66.7774-8.97416C57.8072-8.97416 51.7017-16.6011 51.7017-27.5381C51.7017-38.4785 57.8526-46.1963 66.7774-46.1963C75.6738-46.1963 81.6577-38.7158 81.6577-27.6289C81.6577-16.4966 75.6284-8.97416 66.7774-8.97416Z"/>
   <path class="monochrome-2 multicolor-2:tintColor hierarchical-2:primary SFSymbolsPreviewWireframe" d="M22.9414-7.07324C29.9609-7.07324 36.2368-10.9634 38.1333-16.6533L38.1855-16.6533L38.1855-8.23098C38.1855-7.53565 38.6094-7.06982 39.207-7.06982C39.9024-7.06982 40.3228-7.53565 40.3228-8.24465L40.3228-34.4775C40.3228-42.8203 35.0718-48.1426 26.211-48.1426C18.6314-48.1426 13.4815-44.6611 11.6441-38.793C11.4282-38.0469 11.1807-37.1646 11.1807-36.6035C11.1807-35.9707 11.6431-35.6094 12.2759-35.6094C12.8223-35.6094 13.1665-35.9614 13.3052-36.543C14.5977-42.4541 19.1202-46.1611 26.1519-46.1611C33.7129-46.1611 38.1684-41.457 38.1684-34.3911L38.1684-30.627L23.7705-29.6323C14.5078-29.0078 9.76562-24.8755 9.76562-18.2461C9.76562-11.6416 15.1992-7.07324 22.9414-7.07324ZM23.1167-9.04105C16.6934-9.04105 11.9336-12.9004 11.9336-18.3926C11.9336-23.5566 15.96-27.0493 24.1499-27.7056L38.1684-28.7978L38.1684-22.334C38.1684-15.1612 31.3262-9.04105 23.1167-9.04105Z"/>
  </g>
 </g>
</svg>
