<?xml version="1.0" encoding="UTF-8"?>
<!--Generator: Apple Native CoreSVG 232.5-->
<!DOCTYPE svg
PUBLIC "-//W3C//DTD SVG 1.1//EN"
       "http://www.w3.org/Graphics/SVG/1.1/DTD/svg11.dtd">
<svg version="1.1" xmlns="http://www.w3.org/2000/svg" xmlns:xlink="http://www.w3.org/1999/xlink" width="3300" height="2200">
 <!--glyph: "uni101E9F.medium", point size: 100.0, font version: "19.0d7e1", template writer version: "128"-->
 <style>.monochrome-0 {-sfsymbols-motion-group:0}
.monochrome-1 {-sfsymbols-motion-group:0}
.monochrome-2 {-sfsymbols-motion-group:0}

.multicolor-0:tintColor {-sfsymbols-motion-group:0}
.multicolor-1:tintColor {-sfsymbols-motion-group:0}
.multicolor-2:tintColor {-sfsymbols-motion-group:0}

.hierarchical-0:secondary {-sfsymbols-motion-group:0}
.hierarchical-1:primary {-sfsymbols-motion-group:0}
.hierarchical-2:primary {-sfsymbols-motion-group:0}

.SFSymbolsPreviewWireframe {fill:none;opacity:1.0;stroke:black;stroke-width:0.5}
</style>
 <g id="Notes">
  <rect height="2200" id="artboard" style="fill:white;opacity:1" width="3300" x="0" y="0"/>
  <line style="fill:none;stroke:black;opacity:1;stroke-width:0.5;" x1="263" x2="3036" y1="292" y2="292"/>
  <text style="stroke:none;fill:black;font-family:sans-serif;font-size:13;font-weight:bold;" transform="matrix(1 0 0 1 263 322)">Weight/Scale Variations</text>
  <text style="stroke:none;fill:black;font-family:sans-serif;font-size:13;text-anchor:middle;" transform="matrix(1 0 0 1 559.711 322)">Ultralight</text>
  <text style="stroke:none;fill:black;font-family:sans-serif;font-size:13;text-anchor:middle;" transform="matrix(1 0 0 1 856.422 322)">Thin</text>
  <text style="stroke:none;fill:black;font-family:sans-serif;font-size:13;text-anchor:middle;" transform="matrix(1 0 0 1 1153.13 322)">Light</text>
  <text style="stroke:none;fill:black;font-family:sans-serif;font-size:13;text-anchor:middle;" transform="matrix(1 0 0 1 1449.84 322)">Regular</text>
  <text style="stroke:none;fill:black;font-family:sans-serif;font-size:13;text-anchor:middle;" transform="matrix(1 0 0 1 1746.56 322)">Medium</text>
  <text style="stroke:none;fill:black;font-family:sans-serif;font-size:13;text-anchor:middle;" transform="matrix(1 0 0 1 2043.27 322)">Semibold</text>
  <text style="stroke:none;fill:black;font-family:sans-serif;font-size:13;text-anchor:middle;" transform="matrix(1 0 0 1 2339.98 322)">Bold</text>
  <text style="stroke:none;fill:black;font-family:sans-serif;font-size:13;text-anchor:middle;" transform="matrix(1 0 0 1 2636.69 322)">Heavy</text>
  <text style="stroke:none;fill:black;font-family:sans-serif;font-size:13;text-anchor:middle;" transform="matrix(1 0 0 1 2933.4 322)">Black</text>
  <line style="fill:none;stroke:black;opacity:1;stroke-width:0.5;" x1="263" x2="3036" y1="1903" y2="1903"/>
  <g transform="matrix(0.2 0 0 0.2 263 1933)">
   <path d="m46.2402 4.15039c21.5332 0 39.4531-17.8711 39.4531-39.4043s-17.9688-39.4043-39.502-39.4043c-21.4844 0-39.3555 17.8711-39.3555 39.4043s17.9199 39.4043 39.4043 39.4043Zm0-7.42188c-17.7246 0-31.8848-14.209-31.8848-31.9824s14.1113-31.9824 31.8359-31.9824c17.7734 0 32.0312 14.209 32.0312 31.9824s-14.209 31.9824-31.9824 31.9824Zm-17.9688-31.9824c0 2.14844 1.51367 3.61328 3.75977 3.61328h10.498v10.5957c0 2.19727 1.46484 3.71094 3.61328 3.71094 2.24609 0 3.71094-1.51367 3.71094-3.71094v-10.5957h10.5957c2.19727 0 3.71094-1.46484 3.71094-3.61328 0-2.19727-1.51367-3.71094-3.71094-3.71094h-10.5957v-10.5469c0-2.24609-1.46484-3.75977-3.71094-3.75977-2.14844 0-3.61328 1.51367-3.61328 3.75977v10.5469h-10.498c-2.24609 0-3.75977 1.51367-3.75977 3.71094Z"/>
  </g>
  <g transform="matrix(0.2 0 0 0.2 281.506 1933)">
   <path d="m58.5449 14.5508c27.2461 0 49.8047-22.6074 49.8047-49.8047 0-27.2461-22.6074-49.8047-49.8535-49.8047-27.1973 0-49.7559 22.5586-49.7559 49.8047 0 27.1973 22.6074 49.8047 49.8047 49.8047Zm0-8.30078c-23.0469 0-41.4551-18.457-41.4551-41.5039s18.3594-41.5039 41.4062-41.5039 41.5527 18.457 41.5527 41.5039-18.457 41.5039-41.5039 41.5039Zm-22.6562-41.5039c0 2.39258 1.66016 4.00391 4.15039 4.00391h14.3555v14.4043c0 2.44141 1.66016 4.15039 4.05273 4.15039 2.44141 0 4.15039-1.66016 4.15039-4.15039v-14.4043h14.4043c2.44141 0 4.15039-1.61133 4.15039-4.00391 0-2.44141-1.70898-4.15039-4.15039-4.15039h-14.4043v-14.3555c0-2.49023-1.70898-4.19922-4.15039-4.19922-2.39258 0-4.05273 1.70898-4.05273 4.19922v14.3555h-14.3555c-2.49023 0-4.15039 1.70898-4.15039 4.15039Z"/>
  </g>
  <g transform="matrix(0.2 0 0 0.2 304.924 1933)">
   <path d="m74.8535 28.3203c34.8145 0 63.623-28.8086 63.623-63.5742 0-34.8145-28.8574-63.623-63.6719-63.623-34.7656 0-63.5254 28.8086-63.5254 63.623 0 34.7656 28.8086 63.5742 63.5742 63.5742Zm0-9.08203c-30.1758 0-54.4434-24.3164-54.4434-54.4922 0-30.2246 24.2188-54.4922 54.3945-54.4922 30.2246 0 54.541 24.2676 54.541 54.4922 0 30.1758-24.2676 54.4922-54.4922 54.4922Zm-28.8574-54.4922c0 2.58789 1.85547 4.39453 4.58984 4.39453h19.7266v19.7754c0 2.68555 1.85547 4.58984 4.44336 4.58984 2.68555 0 4.54102-1.85547 4.54102-4.58984v-19.7754h19.7754c2.68555 0 4.58984-1.80664 4.58984-4.39453 0-2.73438-1.85547-4.58984-4.58984-4.58984h-19.7754v-19.7266c0-2.73438-1.85547-4.63867-4.54102-4.63867-2.58789 0-4.44336 1.9043-4.44336 4.63867v19.7266h-19.7266c-2.73438 0-4.58984 1.85547-4.58984 4.58984Z"/>
  </g>
  <text style="stroke:none;fill:black;font-family:sans-serif;font-size:13;font-weight:bold;" transform="matrix(1 0 0 1 263 1953)">Design Variations</text>
  <text style="stroke:none;fill:black;font-family:sans-serif;font-size:13;" transform="matrix(1 0 0 1 263 1971)">Symbols are supported in up to nine weights and three scales.</text>
  <text style="stroke:none;fill:black;font-family:sans-serif;font-size:13;" transform="matrix(1 0 0 1 263 1989)">For optimal layout with text and other symbols, vertically align</text>
  <text style="stroke:none;fill:black;font-family:sans-serif;font-size:13;" transform="matrix(1 0 0 1 263 2007)">symbols with the adjacent text.</text>
  <line style="fill:none;stroke:#00AEEF;stroke-width:0.5;opacity:1.0;" x1="776" x2="776" y1="1919" y2="1933"/>
  <g transform="matrix(0.2 0 0 0.2 776 1933)">
   <path d="m16.5527 0.78125c2.58789 0 3.85742-0.976562 4.78516-3.71094l6.29883-17.2363h28.8086l6.29883 17.2363c0.927734 2.73438 2.19727 3.71094 4.73633 3.71094 2.58789 0 4.24805-1.5625 4.24805-4.00391 0-0.830078-0.146484-1.61133-0.537109-2.63672l-22.9004-60.9863c-1.12305-2.97852-3.125-4.49219-6.25-4.49219-3.02734 0-5.07812 1.46484-6.15234 4.44336l-22.9004 61.084c-0.390625 1.02539-0.537109 1.80664-0.537109 2.63672 0 2.44141 1.5625 3.95508 4.10156 3.95508Zm13.4766-28.3691 11.8652-32.8613h0.244141l11.8652 32.8613Z"/>
  </g>
  <line style="fill:none;stroke:#00AEEF;stroke-width:0.5;opacity:1.0;" x1="792.836" x2="792.836" y1="1919" y2="1933"/>
  <text style="stroke:none;fill:black;font-family:sans-serif;font-size:13;font-weight:bold;" transform="matrix(1 0 0 1 776 1953)">Margins</text>
  <text style="stroke:none;fill:black;font-family:sans-serif;font-size:13;" transform="matrix(1 0 0 1 776 1971)">Leading and trailing margins on the left and right side of each symbol</text>
  <text style="stroke:none;fill:black;font-family:sans-serif;font-size:13;" transform="matrix(1 0 0 1 776 1989)">can be adjusted by modifying the x-location of the margin guidelines.</text>
  <text style="stroke:none;fill:black;font-family:sans-serif;font-size:13;" transform="matrix(1 0 0 1 776 2007)">Modifications are automatically applied proportionally to all</text>
  <text style="stroke:none;fill:black;font-family:sans-serif;font-size:13;" transform="matrix(1 0 0 1 776 2025)">scales and weights.</text>
  <g transform="matrix(0.2 0 0 0.2 1289 1933)">
   <path d="m14.209 9.32617 8.49609 8.54492c4.29688 4.3457 9.22852 4.05273 13.8672-1.07422l53.4668-58.9355-4.83398-4.88281-53.0762 58.3984c-1.75781 2.00195-3.41797 2.49023-5.76172 0.146484l-5.85938-5.81055c-2.34375-2.29492-1.80664-4.00391 0.195312-5.81055l57.373-54.0039-4.88281-4.83398-57.959 54.4434c-4.93164 4.58984-5.32227 9.47266-1.02539 13.8184Zm32.0801-90.9668c-2.09961 2.05078-2.24609 4.93164-1.07422 6.88477 1.17188 1.80664 3.4668 2.97852 6.68945 2.14844 7.32422-1.70898 14.9414-2.00195 22.0703 2.68555l-2.92969 7.27539c-1.70898 4.15039-0.830078 7.08008 1.85547 9.81445l11.4746 11.5723c2.44141 2.44141 4.49219 2.53906 7.32422 2.05078l5.32227-0.976562 3.32031 3.36914-0.195312 2.7832c-0.195312 2.49023 0.439453 4.39453 2.88086 6.78711l3.80859 3.71094c2.39258 2.39258 5.46875 2.53906 7.8125 0.195312l14.5508-14.5996c2.34375-2.34375 2.24609-5.32227-0.146484-7.71484l-3.85742-3.80859c-2.39258-2.39258-4.24805-3.17383-6.64062-2.97852l-2.88086 0.244141-3.22266-3.17383 1.2207-5.61523c0.634766-2.83203-0.146484-5.0293-3.07617-7.95898l-10.9863-10.9375c-16.6992-16.6016-38.8672-16.2109-53.3203-1.75781Zm7.4707 1.85547c12.1582-8.88672 28.6133-7.37305 39.7461 3.75977l12.1582 12.0605c1.17188 1.17188 1.36719 2.09961 1.02539 3.80859l-1.61133 7.42188 7.51953 7.42188 4.93164-0.292969c1.26953-0.0488281 1.66016 0.0488281 2.63672 1.02539l2.88086 2.88086-12.207 12.207-2.88086-2.88086c-0.976562-0.976562-1.12305-1.36719-1.07422-2.68555l0.341797-4.88281-7.4707-7.42188-7.61719 1.26953c-1.61133 0.341797-2.34375 0.195312-3.56445-0.976562l-10.0098-10.0098c-1.26953-1.17188-1.41602-2.00195-0.634766-3.85742l4.39453-10.4492c-7.8125-7.27539-17.9688-10.4004-28.125-7.42188-0.78125 0.195312-1.07422-0.439453-0.439453-0.976562Z"/>
  </g>
  <text style="stroke:none;fill:black;font-family:sans-serif;font-size:13;font-weight:bold;" transform="matrix(1 0 0 1 1289 1953)">Exporting</text>
  <text style="stroke:none;fill:black;font-family:sans-serif;font-size:13;" transform="matrix(1 0 0 1 1289 1971)">Symbols should be outlined when exporting to ensure the</text>
  <text style="stroke:none;fill:black;font-family:sans-serif;font-size:13;" transform="matrix(1 0 0 1 1289 1989)">design is preserved when submitting to Xcode.</text>
  <text id="template-version" style="stroke:none;fill:black;font-family:sans-serif;font-size:13;text-anchor:end;" transform="matrix(1 0 0 1 3036 1933)">Template v.5.0</text>
  <text style="stroke:none;fill:black;font-family:sans-serif;font-size:13;text-anchor:end;" transform="matrix(1 0 0 1 3036 1951)">Requires Xcode 15 or greater</text>
  <text id="descriptive-name" style="stroke:none;fill:black;font-family:sans-serif;font-size:13;text-anchor:end;" transform="matrix(1 0 0 1 3036 1969)">Generated from square.resize.up</text>
  <text style="stroke:none;fill:black;font-family:sans-serif;font-size:13;text-anchor:end;" transform="matrix(1 0 0 1 3036 1987)">Typeset at 100.0 points</text>
  <text style="stroke:none;fill:black;font-family:sans-serif;font-size:13;" transform="matrix(1 0 0 1 263 726)">Small</text>
  <text style="stroke:none;fill:black;font-family:sans-serif;font-size:13;" transform="matrix(1 0 0 1 263 1156)">Medium</text>
  <text style="stroke:none;fill:black;font-family:sans-serif;font-size:13;" transform="matrix(1 0 0 1 263 1586)">Large</text>
 </g>
 <g id="Guides">
  <g id="H-reference" style="fill:#27AAE1;stroke:none;" transform="matrix(1 0 0 1 339 696)">
   <path d="M0.993654 0L3.63775 0L29.3281-67.1323L30.0303-67.1323L30.0303-70.459L28.1226-70.459ZM11.6885-24.4799L46.9815-24.4799L46.2315-26.7285L12.4385-26.7285ZM55.1196 0L57.7637 0L30.6382-70.459L29.4326-70.459L29.4326-67.1323Z"/>
  </g>
  <line id="Baseline-S" style="fill:none;stroke:#27AAE1;opacity:1;stroke-width:0.5;" x1="263" x2="3036" y1="696" y2="696"/>
  <line id="Capline-S" style="fill:none;stroke:#27AAE1;opacity:1;stroke-width:0.5;" x1="263" x2="3036" y1="625.541" y2="625.541"/>
  <g id="H-reference" style="fill:#27AAE1;stroke:none;" transform="matrix(1 0 0 1 339 1126)">
   <path d="M0.993654 0L3.63775 0L29.3281-67.1323L30.0303-67.1323L30.0303-70.459L28.1226-70.459ZM11.6885-24.4799L46.9815-24.4799L46.2315-26.7285L12.4385-26.7285ZM55.1196 0L57.7637 0L30.6382-70.459L29.4326-70.459L29.4326-67.1323Z"/>
  </g>
  <line id="Baseline-M" style="fill:none;stroke:#27AAE1;opacity:1;stroke-width:0.5;" x1="263" x2="3036" y1="1126" y2="1126"/>
  <line id="Capline-M" style="fill:none;stroke:#27AAE1;opacity:1;stroke-width:0.5;" x1="263" x2="3036" y1="1055.54" y2="1055.54"/>
  <g id="H-reference" style="fill:#27AAE1;stroke:none;" transform="matrix(1 0 0 1 339 1556)">
   <path d="M0.993654 0L3.63775 0L29.3281-67.1323L30.0303-67.1323L30.0303-70.459L28.1226-70.459ZM11.6885-24.4799L46.9815-24.4799L46.2315-26.7285L12.4385-26.7285ZM55.1196 0L57.7637 0L30.6382-70.459L29.4326-70.459L29.4326-67.1323Z"/>
  </g>
  <line id="Baseline-L" style="fill:none;stroke:#27AAE1;opacity:1;stroke-width:0.5;" x1="263" x2="3036" y1="1556" y2="1556"/>
  <line id="Capline-L" style="fill:none;stroke:#27AAE1;opacity:1;stroke-width:0.5;" x1="263" x2="3036" y1="1485.54" y2="1485.54"/>
  <line id="left-margin-Ultralight-S" style="fill:none;stroke:#00AEEF;stroke-width:0.5;opacity:1.0;" x1="516.336" x2="516.336" y1="600.785" y2="720.121"/>
  <line id="right-margin-Ultralight-S" style="fill:none;stroke:#00AEEF;stroke-width:0.5;opacity:1.0;" x1="603.086" x2="603.086" y1="600.785" y2="720.121"/>
  <line id="left-margin-Regular-S" style="fill:none;stroke:#00AEEF;stroke-width:0.5;opacity:1.0;" x1="1404.31" x2="1404.31" y1="600.785" y2="720.121"/>
  <line id="right-margin-Regular-S" style="fill:none;stroke:#00AEEF;stroke-width:0.5;opacity:1.0;" x1="1495.38" x2="1495.38" y1="600.785" y2="720.121"/>
  <line id="left-margin-Black-S" style="fill:none;stroke:#00AEEF;stroke-width:0.5;opacity:1.0;" x1="2883.35" x2="2883.35" y1="600.785" y2="720.121"/>
  <line id="right-margin-Black-S" style="fill:none;stroke:#00AEEF;stroke-width:0.5;opacity:1.0;" x1="2983.45" x2="2983.45" y1="600.785" y2="720.121"/>
 </g>
 <g id="Symbols">
  <g id="Black-S" transform="matrix(1 0 0 1 2883.35 696)">
   <path class="monochrome-0 multicolor-0:tintColor hierarchical-0:secondary SFSymbolsPreviewWireframe" d="M14.8926-41.8457C17.7246-41.8457 20.0195-44.1406 20.0195-46.9727C20.0195-49.8047 17.7246-52.0996 14.8926-52.0996C12.0605-52.0996 9.76562-49.8047 9.76562-46.9727C9.76562-44.1406 12.0605-41.8457 14.8926-41.8457ZM14.8926-53.5645C17.7246-53.5645 20.0195-55.8594 20.0195-58.6914C20.0195-61.5234 17.7246-63.8184 14.8926-63.8184C12.0605-63.8184 9.76562-61.5234 9.76562-58.6914C9.76562-55.8594 12.0605-53.5645 14.8926-53.5645ZM14.8926-65.2832C17.7246-65.2832 20.0195-67.5781 20.0195-70.4102C20.0195-73.2422 17.7246-75.5371 14.8926-75.5371C12.0605-75.5371 9.76562-73.2422 9.76562-70.4102C9.76562-67.5781 12.0605-65.2832 14.8926-65.2832ZM26.6113-65.2832C29.4434-65.2832 31.7383-67.5781 31.7383-70.4102C31.7383-73.2422 29.4434-75.5371 26.6113-75.5371C23.7793-75.5371 21.4844-73.2422 21.4844-70.4102C21.4844-67.5781 23.7793-65.2832 26.6113-65.2832ZM38.3301-65.2832C41.1621-65.2832 43.457-67.5781 43.457-70.4102C43.457-73.2422 41.1621-75.5371 38.3301-75.5371C35.498-75.5371 33.2031-73.2422 33.2031-70.4102C33.2031-67.5781 35.498-65.2832 38.3301-65.2832ZM50.0488-65.2832C52.8809-65.2832 55.1758-67.5781 55.1758-70.4102C55.1758-73.2422 52.8809-75.5371 50.0488-75.5371C47.2168-75.5371 44.9219-73.2422 44.9219-70.4102C44.9219-67.5781 47.2168-65.2832 50.0488-65.2832ZM61.7676-65.2832C64.5996-65.2832 66.8945-67.5781 66.8945-70.4102C66.8945-73.2422 64.5996-75.5371 61.7676-75.5371C58.9355-75.5371 56.6406-73.2422 56.6406-70.4102C56.6406-67.5781 58.9355-65.2832 61.7676-65.2832ZM73.4863-65.2832C76.3184-65.2832 78.6133-67.5781 78.6133-70.4102C78.6133-73.2422 76.3184-75.5371 73.4863-75.5371C70.6543-75.5371 68.3594-73.2422 68.3594-70.4102C68.3594-67.5781 70.6543-65.2832 73.4863-65.2832ZM85.2051-65.2832C88.0371-65.2832 90.332-67.5781 90.332-70.4102C90.332-73.2422 88.0371-75.5371 85.2051-75.5371C82.373-75.5371 80.0781-73.2422 80.0781-70.4102C80.0781-67.5781 82.373-65.2832 85.2051-65.2832ZM85.2051-53.5645C88.0371-53.5645 90.332-55.8594 90.332-58.6914C90.332-61.5234 88.0371-63.8184 85.2051-63.8184C82.373-63.8184 80.0781-61.5234 80.0781-58.6914C80.0781-55.8594 82.373-53.5645 85.2051-53.5645ZM85.2051-41.8457C88.0371-41.8457 90.332-44.1406 90.332-46.9727C90.332-49.8047 88.0371-52.0996 85.2051-52.0996C82.373-52.0996 80.0781-49.8047 80.0781-46.9727C80.0781-44.1406 82.373-41.8457 85.2051-41.8457ZM85.2051-30.127C88.0371-30.127 90.332-32.4219 90.332-35.2539C90.332-38.0859 88.0371-40.3809 85.2051-40.3809C82.373-40.3809 80.0781-38.0859 80.0781-35.2539C80.0781-32.4219 82.373-30.127 85.2051-30.127ZM85.2051-18.4082C88.0371-18.4082 90.332-20.7031 90.332-23.5352C90.332-26.3672 88.0371-28.6621 85.2051-28.6621C82.373-28.6621 80.0781-26.3672 80.0781-23.5352C80.0781-20.7031 82.373-18.4082 85.2051-18.4082ZM85.2051-6.68945C88.0371-6.68945 90.332-8.98438 90.332-11.8164C90.332-14.6484 88.0371-16.9434 85.2051-16.9434C82.373-16.9434 80.0781-14.6484 80.0781-11.8164C80.0781-8.98438 82.373-6.68945 85.2051-6.68945ZM85.2051 5.0293C88.0371 5.0293 90.332 2.73438 90.332-0.0976562C90.332-2.92969 88.0371-5.22461 85.2051-5.22461C82.373-5.22461 80.0781-2.92969 80.0781-0.0976562C80.0781 2.73438 82.373 5.0293 85.2051 5.0293ZM61.7676 5.0293C64.5996 5.0293 66.8945 2.73438 66.8945-0.0976562C66.8945-2.92969 64.5996-5.22461 61.7676-5.22461C58.9355-5.22461 56.6406-2.92969 56.6406-0.0976562C56.6406 2.73438 58.9355 5.0293 61.7676 5.0293ZM73.4863 5.0293C76.3184 5.0293 78.6133 2.73438 78.6133-0.0976562C78.6133-2.92969 76.3184-5.22461 73.4863-5.22461C70.6543-5.22461 68.3594-2.92969 68.3594-0.0976562C68.3594 2.73438 70.6543 5.0293 73.4863 5.0293Z"/>
   <path class="monochrome-1 multicolor-1:tintColor hierarchical-1:primary SFSymbolsPreviewWireframe" d="M14.1602 5.0293L48.877 5.0293C51.5137 5.0293 53.2715 3.27148 53.2715 0.634766L53.2715-25.3906L50.293-22.5098C48.1934-20.459 45.459-19.5312 42.7734-19.7266L42.7734-6.49414C42.7734-5.9082 42.3828-5.51758 41.7969-5.51758L21.2402-5.51758C20.6543-5.51758 20.2637-5.9082 20.2637-6.49414L20.2637-26.9043C20.2637-27.4902 20.6543-27.8809 21.2402-27.8809L33.9355-27.8809C33.4473-30.9082 34.4238-34.0332 36.7188-36.2793L38.916-38.4277L14.1602-38.4277C11.5234-38.4277 9.76562-36.6699 9.76562-34.0332L9.76562 0.634766C9.76562 3.27148 11.5234 5.0293 14.1602 5.0293Z"/>
   <path class="monochrome-2 multicolor-2:tintColor hierarchical-2:primary SFSymbolsPreviewWireframe" d="M41.0645-27.0508C42.3828-25.7324 44.4824-25.6836 45.8984-27.0508L59.9609-40.6738L62.3047-38.2812C64.0137-36.5723 66.748-37.4512 67.2852-39.8926L69.8242-51.5625C70.3125-53.8086 68.4082-55.7129 66.1133-55.2246L54.4434-52.832C51.9043-52.2949 50.9766-49.6582 52.7344-47.9004L55.2246-45.459L41.1133-31.7383C39.8438-30.5176 39.8438-28.4668 41.0645-27.0508Z"/>
  </g>
  <g id="Regular-S" transform="matrix(1 0 0 1 1404.31 696)">
   <path class="monochrome-0 multicolor-0:tintColor hierarchical-0:secondary SFSymbolsPreviewWireframe" d="M13.3301-42.4316C15.2832-42.4316 16.8945-44.043 16.8945-45.9961C16.8945-47.9492 15.2832-49.5605 13.3301-49.5605C11.377-49.5605 9.76562-47.9492 9.76562-45.9961C9.76562-44.043 11.377-42.4316 13.3301-42.4316ZM13.3301-53.125C15.2832-53.125 16.8945-54.7363 16.8945-56.6895C16.8945-58.6426 15.2832-60.3027 13.3301-60.3027C11.377-60.3027 9.76562-58.6426 9.76562-56.6895C9.76562-54.7363 11.377-53.125 13.3301-53.125ZM13.3301-63.8672C15.2832-63.8672 16.8945-65.4785 16.8945-67.4316C16.8945-69.3848 15.2832-70.9961 13.3301-70.9961C11.377-70.9961 9.76562-69.3848 9.76562-67.4316C9.76562-65.4785 11.377-63.8672 13.3301-63.8672ZM24.0723-63.8672C26.0254-63.8672 27.6367-65.4785 27.6367-67.4316C27.6367-69.3848 26.0254-70.9961 24.0723-70.9961C22.1191-70.9961 20.5078-69.3848 20.5078-67.4316C20.5078-65.4785 22.1191-63.8672 24.0723-63.8672ZM34.8145-63.8672C36.7676-63.8672 38.3789-65.4785 38.3789-67.4316C38.3789-69.3848 36.7676-70.9961 34.8145-70.9961C32.8613-70.9961 31.25-69.3848 31.25-67.4316C31.25-65.4785 32.8613-63.8672 34.8145-63.8672ZM45.5078-63.8672C47.4609-63.8672 49.1211-65.4785 49.1211-67.4316C49.1211-69.3848 47.4609-70.9961 45.5078-70.9961C43.5547-70.9961 41.9434-69.3848 41.9434-67.4316C41.9434-65.4785 43.5547-63.8672 45.5078-63.8672ZM56.25-63.8672C58.2031-63.8672 59.8145-65.4785 59.8145-67.4316C59.8145-69.3848 58.2031-70.9961 56.25-70.9961C54.2969-70.9961 52.6855-69.3848 52.6855-67.4316C52.6855-65.4785 54.2969-63.8672 56.25-63.8672ZM66.9922-63.8672C68.9453-63.8672 70.5566-65.4785 70.5566-67.4316C70.5566-69.3848 68.9453-70.9961 66.9922-70.9961C65.0391-70.9961 63.4277-69.3848 63.4277-67.4316C63.4277-65.4785 65.0391-63.8672 66.9922-63.8672ZM77.7344-63.8672C79.6875-63.8672 81.2988-65.4785 81.2988-67.4316C81.2988-69.3848 79.6875-70.9961 77.7344-70.9961C75.7812-70.9961 74.1699-69.3848 74.1699-67.4316C74.1699-65.4785 75.7812-63.8672 77.7344-63.8672ZM77.7344-53.125C79.6875-53.125 81.2988-54.7363 81.2988-56.6895C81.2988-58.6426 79.6875-60.3027 77.7344-60.3027C75.7812-60.3027 74.1699-58.6426 74.1699-56.6895C74.1699-54.7363 75.7812-53.125 77.7344-53.125ZM77.7344-42.4316C79.6875-42.4316 81.2988-44.043 81.2988-45.9961C81.2988-47.9492 79.6875-49.5605 77.7344-49.5605C75.7812-49.5605 74.1699-47.9492 74.1699-45.9961C74.1699-44.043 75.7812-42.4316 77.7344-42.4316ZM77.7344-31.6895C79.6875-31.6895 81.2988-33.3008 81.2988-35.2539C81.2988-37.207 79.6875-38.8184 77.7344-38.8184C75.7812-38.8184 74.1699-37.207 74.1699-35.2539C74.1699-33.3008 75.7812-31.6895 77.7344-31.6895ZM77.7344-20.9473C79.6875-20.9473 81.2988-22.5586 81.2988-24.5117C81.2988-26.4648 79.6875-28.0762 77.7344-28.0762C75.7812-28.0762 74.1699-26.4648 74.1699-24.5117C74.1699-22.5586 75.7812-20.9473 77.7344-20.9473ZM77.7344-10.2051C79.6875-10.2051 81.2988-11.8164 81.2988-13.7695C81.2988-15.7227 79.6875-17.3828 77.7344-17.3828C75.7812-17.3828 74.1699-15.7227 74.1699-13.7695C74.1699-11.8164 75.7812-10.2051 77.7344-10.2051ZM77.7344 0.537109C79.6875 0.537109 81.2988-1.12305 81.2988-3.07617C81.2988-5.0293 79.6875-6.64062 77.7344-6.64062C75.7812-6.64062 74.1699-5.0293 74.1699-3.07617C74.1699-1.12305 75.7812 0.537109 77.7344 0.537109ZM66.9922 0.537109C68.9453 0.537109 70.5566-1.12305 70.5566-3.07617C70.5566-5.0293 68.9453-6.64062 66.9922-6.64062C65.0391-6.64062 63.4277-5.0293 63.4277-3.07617C63.4277-1.12305 65.0391 0.537109 66.9922 0.537109ZM56.25 0.537109C58.2031 0.537109 59.8145-1.12305 59.8145-3.07617C59.8145-5.0293 58.2031-6.64062 56.25-6.64062C54.2969-6.64062 52.6855-5.0293 52.6855-3.07617C52.6855-1.12305 54.2969 0.537109 56.25 0.537109Z"/>
   <path class="monochrome-1 multicolor-1:tintColor hierarchical-1:primary SFSymbolsPreviewWireframe" d="M13.0859 0.390625L46.0449 0.390625C48.0469 0.390625 49.3652-0.976562 49.3652-2.97852L49.3652-29.1016L46.5332-26.3672C45.5566-25.3906 44.3848-24.7559 43.1641-24.4141L43.1641-7.03125C43.1641-6.15234 42.8711-5.85938 41.9434-5.85938L17.1875-5.85938C16.2598-5.85938 15.9668-6.15234 15.9668-7.03125L15.9668-31.8359C15.9668-32.7148 16.2598-33.0078 17.1875-33.0078L34.1797-33.0078C34.4238-34.375 35.1074-35.6934 36.1816-36.7676L38.6719-39.209L13.0859-39.209C11.084-39.209 9.76562-37.8906 9.76562-35.8887L9.76562-2.97852C9.76562-0.976562 11.084 0.390625 13.0859 0.390625Z"/>
   <path class="monochrome-2 multicolor-2:tintColor hierarchical-2:primary SFSymbolsPreviewWireframe" d="M39.502-29.7363C40.5762-28.6621 42.1875-28.7598 43.2129-29.7363L56.8359-43.1641L60.0098-39.8926C61.3281-38.623 63.3301-39.3066 63.6719-41.2109L66.3086-53.5645C66.6992-55.2734 65.2344-56.6406 63.5254-56.25L51.2207-53.6621C49.3164-53.3203 48.6328-51.416 49.9023-50.0977L53.2227-46.8262L39.502-33.3984C38.5254-32.373 38.5742-30.8105 39.502-29.7363Z"/>
  </g>
  <g id="Ultralight-S" transform="matrix(1 0 0 1 516.336 696)">
   <path class="monochrome-0 multicolor-0:tintColor hierarchical-0:secondary SFSymbolsPreviewWireframe" d="M11.7861-43.7031C12.9219-43.7031 13.8521-44.5879 13.8521-45.7236C13.8521-46.814 12.9219-47.7442 11.7861-47.7442C10.6958-47.7442 9.76562-46.814 9.76562-45.7236C9.76562-44.5879 10.6958-43.7031 11.7861-43.7031ZM11.7861-54.2148C12.9219-54.2148 13.8521-55.0996 13.8521-56.2354C13.8521-57.3257 12.9219-58.2593 11.7861-58.2593C10.6958-58.2593 9.76562-57.3257 9.76562-56.2354C9.76562-55.0996 10.6958-54.2148 11.7861-54.2148ZM11.7861-64.6846C12.9219-64.6846 13.8521-65.6147 13.8521-66.7505C13.8521-67.8408 12.9219-68.771 11.7861-68.771C10.6958-68.771 9.76562-67.8408 9.76562-66.7505C9.76562-65.6147 10.6958-64.6846 11.7861-64.6846ZM22.3467-64.6846C23.4824-64.6846 24.3672-65.6147 24.3672-66.7505C24.3672-67.8408 23.4824-68.771 22.3467-68.771C21.2564-68.771 20.3262-67.8408 20.3262-66.7505C20.3262-65.6147 21.2564-64.6846 22.3467-64.6846ZM32.8618-64.6846C33.9976-64.6846 34.8824-65.6147 34.8824-66.7505C34.8824-67.8408 33.9976-68.771 32.8618-68.771C31.7261-68.771 30.8413-67.8408 30.8413-66.7505C30.8413-65.6147 31.7261-64.6846 32.8618-64.6846ZM43.3736-64.6846C44.5093-64.6846 45.3975-65.6147 45.3975-66.7505C45.3975-67.8408 44.5093-68.771 43.3736-68.771C42.2378-68.771 41.353-67.8408 41.353-66.7505C41.353-65.6147 42.2378-64.6846 43.3736-64.6846ZM53.9341-64.6846C55.0244-64.6846 55.9546-65.6147 55.9546-66.7505C55.9546-67.8408 55.0244-68.771 53.9341-68.771C52.7984-68.771 51.9136-67.8408 51.9136-66.7505C51.9136-65.6147 52.7984-64.6846 53.9341-64.6846ZM64.4492-64.6846C65.5396-64.6846 66.4698-65.6147 66.4698-66.7505C66.4698-67.8408 65.5396-68.771 64.4492-68.771C63.3135-68.771 62.4287-67.8408 62.4287-66.7505C62.4287-65.6147 63.3135-64.6846 64.4492-64.6846ZM74.9644-64.6846C76.0547-64.6846 76.9849-65.6147 76.9849-66.7505C76.9849-67.8408 76.0547-68.771 74.9644-68.771C73.8286-68.771 72.8984-67.8408 72.8984-66.7505C72.8984-65.6147 73.8286-64.6846 74.9644-64.6846ZM74.9644-54.2148C76.0547-54.2148 76.9849-55.0996 76.9849-56.2354C76.9849-57.3257 76.0547-58.2593 74.9644-58.2593C73.8286-58.2593 72.8984-57.3257 72.8984-56.2354C72.8984-55.0996 73.8286-54.2148 74.9644-54.2148ZM74.9644-43.7031C76.0547-43.7031 76.9849-44.5879 76.9849-45.7236C76.9849-46.814 76.0547-47.7442 74.9644-47.7442C73.8286-47.7442 72.8984-46.814 72.8984-45.7236C72.8984-44.5879 73.8286-43.7031 74.9644-43.7031ZM74.9644-33.1426C76.0547-33.1426 76.9849-34.0273 76.9849-35.1631C76.9849-36.2988 76.0547-37.1836 74.9644-37.1836C73.8286-37.1836 72.8984-36.2988 72.8984-35.1631C72.8984-34.0273 73.8286-33.1426 74.9644-33.1426ZM74.9644-22.6274C76.0547-22.6274 76.9849-23.5122 76.9849-24.6479C76.9849-25.7837 76.0547-26.6685 74.9644-26.6685C73.8286-26.6685 72.8984-25.7837 72.8984-24.6479C72.8984-23.5122 73.8286-22.6274 74.9644-22.6274ZM74.9644-12.1123C76.0547-12.1123 76.9849-13.0425 76.9849-14.1328C76.9849-15.2686 76.0547-16.1567 74.9644-16.1567C73.8286-16.1567 72.8984-15.2686 72.8984-14.1328C72.8984-13.0425 73.8286-12.1123 74.9644-12.1123ZM74.9644-1.55174C76.0547-1.55174 76.9849-2.48534 76.9849-3.57568C76.9849-4.71143 76.0547-5.64161 74.9644-5.64161C73.8286-5.64161 72.8984-4.71143 72.8984-3.57568C72.8984-2.48534 73.8286-1.55174 74.9644-1.55174ZM64.4492-1.55174C65.5396-1.55174 66.4698-2.48534 66.4698-3.57568C66.4698-4.71143 65.5396-5.64161 64.4492-5.64161C63.3135-5.64161 62.4287-4.71143 62.4287-3.57568C62.4287-2.48534 63.3135-1.55174 64.4492-1.55174ZM53.8887-1.55174C54.979-1.55174 55.9092-2.48534 55.9092-3.57568C55.9092-4.71143 54.979-5.64161 53.8887-5.64161C52.7529-5.64161 51.8682-4.71143 51.8682-3.57568C51.8682-2.48534 52.7529-1.55174 53.8887-1.55174Z"/>
   <path class="monochrome-1 multicolor-1:tintColor hierarchical-1:primary SFSymbolsPreviewWireframe" d="M11.542-1.65282L42.4121-1.65282C43.5513-1.65282 44.2339-2.33886 44.2339-3.43261L44.2339-30.373L43.3545-29.5459C42.9683-29.1142 42.523-28.8427 42.0288-28.6372L42.0288-4.57912C42.0288-4.1089 41.7358-3.81593 41.3076-3.81593L12.6919-3.81593C12.2183-3.81593 11.9253-4.1089 11.9253-4.57912L11.9253-33.1074C11.9253-33.5322 12.2183-33.8252 12.6919-33.8252L36.6772-33.8252C36.876-34.375 37.1963-34.9214 37.6802-35.3599L38.3086-35.9849L11.542-35.9849C10.4482-35.9849 9.76562-35.3477 9.76562-34.2085L9.76562-3.43261C9.76562-2.33886 10.4482-1.65282 11.542-1.65282Z"/>
   <path class="monochrome-2 multicolor-2:tintColor hierarchical-2:primary SFSymbolsPreviewWireframe" d="M39.7744-31.6889C40.2129-31.2505 40.8252-31.2573 41.2603-31.6889L55.9277-46.0703L60.2368-41.7544C61.0557-40.9389 62.1494-41.3955 62.4004-42.6186L65.0371-54.9722C65.2915-56.0454 64.417-56.8677 63.2983-56.6133L50.9937-54.0254C49.7705-53.7744 49.314-52.7783 50.1294-51.9595L54.4941-47.5527L39.7744-33.2168C39.3428-32.7817 39.3462-32.1274 39.7744-31.6889Z"/>
  </g>
 </g>
</svg>
